{
.appVersion = "3129";
.formatVersion = 3;
axes = (
{
name = wght;
tag = wght;
}
);
customParameters = (
{
name = "Write lastChange";
value = 0;
}
);
date = "2022-02-21 08:08:28 +0000";
familyName = "QLD Beginners";
featurePrefixes = (
{
automatic = 1;
code = "languagesystem DFLT dflt;";
name = Languagesystems;
}
);
features = (
{
automatic = 1;
code = "feature c2sc;
feature smcp;
feature smcp;";
tag = aalt;
},
{
automatic = 1;
code = "sub A by a.sc;
sub B by b.sc;
sub C by c.sc;
sub D by d.sc;
sub E by e.sc;
sub F by f.sc;
sub G by g.sc;
sub H by h.sc;
sub I by i.sc;
sub J by j.sc;
sub K by k.sc;
sub L by l.sc;
sub M by m.sc;
sub N by n.sc;
sub O by o.sc;
sub P by p.sc;
sub Q by q.sc;
sub R by r.sc;
sub S by s.sc;
sub T by t.sc;
sub U by u.sc;
sub V by v.sc;
sub W by w.sc;
sub X by x.sc;
sub Y by y.sc;
sub Z by z.sc;";
tag = c2sc;
},
{
automatic = 1;
code = "sub a by a.sc;
sub b by b.sc;
sub c by c.sc;
sub d by d.sc;
sub e by e.sc;
sub f by f.sc;
sub g by g.sc;
sub h by h.sc;
sub i by i.sc;
sub j by j.sc;
sub k by k.sc;
sub l by l.sc;
sub m by m.sc;
sub n by n.sc;
sub o by o.sc;
sub p by p.sc;
sub q by q.sc;
sub r by r.sc;
sub s by s.sc;
sub t by t.sc;
sub u by u.sc;
sub v by v.sc;
sub w by w.sc;
sub x by x.sc;
sub y by y.sc;
sub z by z.sc;";
tag = smcp;
}
);
fontMaster = (
{
axesValues = (
400
);
guides = (
{
name = " [#BSF9iKGkvn]";
pos = (632,650);
},
{
name = " [#MdZR07RzEf]";
pos = (416,175);
},
{
name = " [#VFrCvf82hR]";
pos = (253,350);
},
{
name = " [#MtyaYaee32]";
pos = (127,568);
}
);
id = m01;
metricValues = (
{
over = 4;
pos = 700;
},
{
over = 4;
pos = 650;
},
{
over = 4;
pos = 350;
},
{
over = -4;
},
{
over = -4;
pos = -300;
},
{
pos = 10;
}
);
name = Regular;
stemValues = (
50,
45
);
userData = {
com.defcon.sortDescriptor = (
{
ascending = "Latin-1";
type = characterSet;
}
);
com.schriftgestaltung.Glyphs.layerLib.background = {
com.typemytype.robofont.layerShow = 0;
com.typemytype.robofont.layerShowCoordinates = 0;

glyphs = (
{
color = 6;
glyphname = A;
layers = (
{
layerId = m01;
shapes = (
{
closed = 1;
nodes = (
(19,0,o),
(24,7,o),
(33,25,cs),
(278,504,l),
(329,619,l),
(344,625,l),
(348,638,o),
(340,650,o),
(321,650,cs),
(299,650,o),
(298,639,o),
(291,625,cs),
(-18,32,ls),
(-28,12,o),
(-16,0,o),
(-1,0,cs)
);
},
{
closed = 1;
nodes = (
(349,304,l),
(344,347,l),
(175,347,l),
(153,304,l)
);
},
{
closed = 1;
nodes = (
(392,0,o),
(398,11,o),
(397,26,cs),
(345,631,l),
(310,613,l),
(310,500,l),
(348,24,ls),
(349,14,o),
(352,0,o),
(374,0,c)
);
}
);
vertWidth = 0;
width = 479;
},
{
layerId = m002;
shapes = (
{
closed = 1;
nodes = (
(58,0,o),
(73,8,o),
(86,33,cs),
(297,449,l),
(358,603,l),
(403,603,l),
(400,634,o),
(378,650,o),
(347,650,cs),
(314,650,o),
(294,635,o),
(284,616,cs),
(-6,60,ls),
(-25,24,o),
(1,0,o),
(31,0,cs)
);
},
{
closed = 1;
nodes = (
(384,244,l),
(376,329,l),
(178,329,l),
(135,244,l)
);
},
{
closed = 1;
nodes = (
(434,0,o),
(454,15,o),
(451,46,cs),
(403,603,l),
(329,603,l),
(323,448,l),
(357,40,ls),
(359,16,o),
(375,0,o),
(406,0,cs)
);
}
);
vertWidth = 0;
width = 530;
},
{
associatedMasterId = m01;
layerId = "48DF87F4-C72F-4FC9-8329-4E8255600EC0";
name = background;
shapes = (
{
closed = 1;
nodes = (
(344,625,l),
(348,638,o),
(340,650,o),
(321,650,cs),
(299,650,o),
(298,639,o),
(291,625,cs),
(-18,32,ls),
(-28,12,o),
(-16,0,o),
(-1,0,cs),
(19,0,o),
(24,7,o),
(33,25,cs),
(342,619,l)
);
},
{
closed = 1;
nodes = (
(349,304,l),
(344,350,l),
(175,350,l),
(153,304,l)
);
},
{
closed = 1;
nodes = (
(298,613,l),
(348,24,ls),
(349,14,o),
(352,0,o),
(374,0,c),
(392,0,o),
(398,11,o),
(397,26,cs),
(345,635,l)
);
}
);
vertWidth = 0;
width = 500;
}
);
unicode = 65;
},
{
color = 6;
glyphname = B;
kernLeft = H_left;
layers = (
{
layerId = m01;
shapes = (
{
closed = 1;
nodes = (
(465,595,o),
(362,650,o),
(147,650,c),
(156,604,l),
(314,604,o),
(410,570,o),
(399,479,cs),
(389,399,o),
(353,359,o),
(112,359,c),
(104,327,l),
(382,327,o),
(435,373,o),
(449,477,cs)
);
},
{
closed = 1;
nodes = (
(429,279,o),
(318,359,o),
(108,359,c),
(104,320,l),
(294,320,o),
(374,248,o),
(363,169,cs),
(350,71,o),
(240,46,o),
(58,46,c),
(33,0,l),
(315,0,o),
(396,53,o),
(412,163,cs)
);
},
{
closed = 1;
nodes = (
(11,14,o),
(21,0,o),
(38,0,c),
(64,29,l),
(168,619,l),
(147,650,l),
(130,650,o),
(122,643,o),
(118,623,cs),
(14,31,ls)
);
}
);
vertWidth = 0;
width = 476;
},
{
layerId = m002;
shapes = (
{
closed = 1;
nodes = (
(553,597,o),
(430,650,o),
(173,650,c),
(156,560,l),
(387,560,o),
(443,529,o),
(435,467,cs),
(428,413,o),
(410,358,o),
(166,358,c),
(153,277,l),
(453,277,o),
(519,344,o),
(535,462,cs)
);
},
{
closed = 1;
nodes = (
(499,292,o),
(348,358,o),
(161,358,c),
(147,277,l),
(324,277,o),
(391,241,o),
(381,168,cs),
(373,110,o),
(302,90,o),
(84,90,c),
(69,0,l),
(362,0,o),
(463,26,o),
(480,151,cs)
);
},
{
closed = 1;
nodes = (
(21,23,o),
(43,0,o),
(69,0,c),
(126,44,l),
(224,599,l),
(173,650,l),
(150,650,o),
(130,642,o),
(124,609,cs),
(26,53,ls)
);
}
);
vertWidth = 0;
width = 564;
},
{
associatedMasterId = m01;
layerId = "C390BF64-4B74-44D2-936D-D44319E19B75";
name = background;
shapes = (
{
closed = 1;
nodes = (
(397,304,o),
(454,367,o),
(469,475,cs),
(485,593,o),
(362,650,o),
(147,650,c),
(156,604,l),
(314,604,o),
(431,568,o),
(419,477,cs),
(409,405,o),
(369,350,o),
(112,350,c),
(104,304,l)
);
},
{
closed = 1;
nodes = (
(314,0,o),
(396,35,o),
(411,144,cs),
(428,270,o),
(308,350,o),
(108,350,c),
(101,304,l),
(281,304,o),
(374,239,o),
(362,151,cs),
(350,62,o),
(240,46,o),
(58,46,c),
(33,0,l)
);
},
{
closed = 1;
nodes = (
(172,641,o),
(166,650,o),
(147,650,cs),
(130,650,o),
(122,643,o),
(118,623,cs),
(14,31,ls),
(11,14,o),
(21,0,o),
(38,0,cs),
(52,0,o),
(60,9,o),
(64,29,cs),
(168,619,ls)
);
}
);
vertWidth = 0;
width = 500;
}
);
unicode = 66;
},
{
color = 6;
glyphname = C;
kernLeft = O_left;
layers = (
{
layerId = m01;
shapes = (
{
closed = 1;
nodes = (
(250,-4,o),
(326,46,o),
(408,169,cs),
(429,200,o),
(430,206,o),
(430,212,cs),
(430,224,o),
(420,232,o),
(408,232,cs),
(392,232,o),
(384,223,o),
(367,198,cs),
(289,87,o),
(231,46,o),
(169,46,cs),
(106,46,o),
(92,99,o),
(92,137,cs),
(92,210,o),
(112,310,o),
(119,349,cs),
(142,468,o),
(178,600,o),
(415,600,cs),
(478,600,o),
(484,601,o),
(494,607,cs),
(505,613,o),
(507,635,o),
(496,642,cs),
(487,648,o),
(478,650,o),
(416,650,cs),
(143,650,o),
(94,498,o),
(66,338,cs),
(62,318,o),
(42,203,o),
(42,138,cs),
(42,70,o),
(72,-4,o),
(170,-4,cs)
);
}
);
vertWidth = 0;
width = 482;
},
{
layerId = m002;
shapes = (
{
closed = 1;
nodes = (
(281,-4,o),
(375,47,o),
(455,166,cs),
(479,201,o),
(480,210,o),
(480,219,cs),
(480,243,o),
(458,259,o),
(434,259,cs),
(411,259,o),
(398,248,o),
(376,218,cs),
(305,115,o),
(251,85,o),
(201,85,cs),
(165,85,o),
(143,113,o),
(143,148,cs),
(143,214,o),
(161,308,o),
(167,343,cs),
(188,454,o),
(229,561,o),
(433,561,cs),
(488,561,o),
(514,563,o),
(528,571,cs),
(554,587,o),
(556,623,o),
(531,641,cs),
(518,650,o),
(490,650,o),
(434,650,cs),
(158,650,o),
(92,494,o),
(65,341,cs),
(61,321,o),
(43,212,o),
(43,149,cs),
(43,80,o),
(82,-4,o),
(195,-4,cs)
);
}
);
vertWidth = 0;
width = 545;
}
);
unicode = 67;
},
{
color = 6;
glyphname = D;
kernLeft = H_left;
kernRight = O_right;
layers = (
{
layerId = m01;
shapes = (
{
closed = 1;
nodes = (
(482,543,o),
(368,650,o),
(183,650,cs),
(148,650,l),
(141,597,l),
(185,597,ls),
(338,597,o),
(425,512,o),
(406,351,cs),
(382,149,o),
(262,46,o),
(100,46,cs),
(47,46,l),
(37,0,l),
(100,0,ls),
(292,0,o),
(427,122,o),
(456,344,cs)
);
},
{
closed = 1;
nodes = (
(10,12,o),
(18,0,o),
(36,0,cs),
(58,0,o),
(62,15,o),
(64,25,cs),
(168,619,ls),
(171,637,o),
(169,650,o),
(148,650,cs),
(126,650,o),
(121,639,o),
(118,623,cs),
(13,27,ls)
);
}
);
vertWidth = 0;
width = 500;
},
{
layerId = m002;
shapes = (
{
closed = 1;
nodes = (
(539,523,o),
(418,650,o),
(226,650,cs),
(176,650,l),
(168,561,l),
(231,561,ls),
(369,561,o),
(435,473,o),
(419,350,cs),
(396,177,o),
(292,89,o),
(149,89,cs),
(89,89,l),
(71,0,l),
(149,0,ls),
(342,0,o),
(486,129,o),
(516,351,cs)
);
},
{
closed = 1;
nodes = (
(21,21,o),
(41,0,o),
(73,0,cs),
(100,0,o),
(121,15,o),
(126,41,cs),
(225,600,ls),
(232,641,o),
(205,650,o),
(177,650,cs),
(145,650,o),
(130,636,o),
(125,609,cs),
(26,49,ls)
);
}
);
vertWidth = 0;
width = 566;
}
);
unicode = 68;
},
{
color = 6;
glyphname = E;
kernLeft = H_left;
layers = (
{
layerId = m01;
shapes = (
{
closed = 1;
nodes = (
(10,12,o),
(18,0,o),
(36,0,cs),
(58,0,o),
(62,15,o),
(64,25,c),
(168,619,l),
(171,637,o),
(169,650,o),
(148,650,cs),
(126,650,o),
(121,639,o),
(118,623,c),
(13,27,l)
);
},
{
closed = 1;
nodes = (
(372,36,o),
(366,46,o),
(346,46,cs),
(45,46,l),
(37,0,l),
(346,0,ls),
(366,0,o),
(372,12,o),
(372,24,cs)
);
},
{
closed = 1;
nodes = (
(392,339,o),
(386,350,o),
(366,350,cs),
(93,350,l),
(85,304,l),
(366,304,ls),
(386,304,o),
(392,315,o),
(392,327,cs)
);
},
{
closed = 1;
nodes = (
(474,639,o),
(468,650,o),
(448,650,cs),
(148,650,l),
(141,604,l),
(448,604,ls),
(468,604,o),
(474,615,o),
(474,627,cs)
);
}
);
vertWidth = 0;
width = 436;
},
{
layerId = m002;
shapes = (
{
closed = 1;
nodes = (
(21,22,o),
(33,0,o),
(63,0,cs),
(95,0,o),
(121,18,o),
(125,40,cs),
(223,597,ls),
(230,638,o),
(206,650,o),
(178,650,cs),
(147,650,o),
(130,639,o),
(125,611,cs),
(26,50,ls)
);
},
{
closed = 1;
nodes = (
(460,79,o),
(444,95,o),
(412,95,cs),
(84,95,l),
(70,0,l),
(410,0,ls),
(440,0,o),
(460,19,o),
(460,50,cs)
);
},
{
closed = 1;
nodes = (
(482,340,o),
(463,358,o),
(433,358,cs),
(132,358,l),
(116,266,l),
(428,266,ls),
(460,266,o),
(482,287,o),
(482,312,cs)
);
},
{
closed = 1;
nodes = (
(560,631,o),
(542,650,o),
(511,650,cs),
(185,650,l),
(169,555,l),
(509,555,ls),
(539,555,o),
(560,580,o),
(560,606,cs)
);
}
);
vertWidth = 0;
width = 544;
},
{
associatedMasterId = m01;
layerId = "7D81A9B3-6763-4C6E-8CF8-C1959E1CDD3E";
name = background;
shapes = (
{
closed = 1;
nodes = (
(171,637,o),
(169,650,o),
(148,650,cs),
(126,650,o),
(121,639,o),
(118,623,c),
(13,27,l),
(10,12,o),
(18,0,o),
(36,0,cs),
(58,0,o),
(62,15,o),
(64,25,c),
(168,619,l)
);
},
{
closed = 1;
nodes = (
(371,0,ls),
(391,0,o),
(397,14,o),
(397,26,cs),
(397,38,o),
(391,50,o),
(371,50,cs),
(45,50,l),
(37,0,l)
);
},
{
closed = 1;
nodes = (
(397,304,ls),
(417,304,o),
(423,315,o),
(423,327,cs),
(423,339,o),
(417,350,o),
(397,350,cs),
(93,350,l),
(85,304,l)
);
},
{
closed = 1;
nodes = (
(479,600,ls),
(499,600,o),
(505,613,o),
(505,625,cs),
(505,637,o),
(499,650,o),
(479,650,cs),
(152,650,l),
(143,600,l)
);
}
);
vertWidth = 0;
width = 500;
},
{
associatedMasterId = m002;
layerId = "BD7EF2B7-F3AE-423E-98C0-14594FE969C3";
name = background;
shapes = (
{
closed = 1;
nodes = (
(21,22,o),
(33,0,o),
(63,0,cs),
(95,0,o),
(123,18,o),
(127,40,cs),
(225,597,ls),
(232,638,o),
(206,650,o),
(178,650,cs),
(147,650,o),
(130,639,o),
(125,611,cs),
(26,50,ls)
);
},
{
closed = 1;
nodes = (
(460,66,o),
(444,80,o),
(412,80,cs),
(84,80,l),
(70,0,l),
(410,0,ls),
(440,0,o),
(460,16,o),
(460,42,cs)
);
},
{
closed = 1;
nodes = (
(482,334,o),
(463,350,o),
(433,350,cs),
(132,350,l),
(116,265,l),
(428,265,ls),
(460,265,o),
(482,284,o),
(482,308,cs)
);
},
{
closed = 1;
nodes = (
(560,631,o),
(542,650,o),
(511,650,cs),
(185,650,l),
(169,555,l),
(509,555,ls),
(539,555,o),
(560,580,o),
(560,606,cs)
);
}
);
vertWidth = 0;
width = 500;
}
);
unicode = 69;
},
{
color = 6;
glyphname = F;
kernLeft = H_left;
layers = (
{
layerId = m01;
shapes = (
{
closed = 1;
nodes = (
(10,12,o),
(18,0,o),
(36,0,cs),
(58,0,o),
(62,15,o),
(64,25,cs),
(168,619,ls),
(171,637,o),
(169,650,o),
(148,650,cs),
(126,650,o),
(121,639,o),
(118,623,cs),
(13,27,ls)
);
},
{
closed = 1;
nodes = (
(388,339,o),
(382,350,o),
(362,350,cs),
(100,350,l),
(93,304,l),
(362,304,ls),
(382,304,o),
(388,315,o),
(388,327,cs)
);
},
{
closed = 1;
nodes = (
(463,639,o),
(457,650,o),
(437,650,cs),
(148,650,l),
(141,604,l),
(437,604,ls),
(457,604,o),
(463,615,o),
(463,627,cs)
);
}
);
vertWidth = 0;
width = 421;
},
{
layerId = m002;
shapes = (
{
closed = 1;
nodes = (
(22,27,o),
(30,0,o),
(62,0,cs),
(100,0,o),
(122,21,o),
(127,51,cs),
(223,597,ls),
(230,638,o),
(204,650,o),
(176,650,cs),
(145,650,o),
(130,638,o),
(125,610,cs),
(27,54,ls)
);
},
{
closed = 1;
nodes = (
(472,334,o),
(457,356,o),
(425,356,cs),
(129,356,l),
(113,265,l),
(423,265,ls),
(455,265,o),
(472,284,o),
(472,308,cs)
);
},
{
closed = 1;
nodes = (
(550,632,o),
(532,650,o),
(501,650,cs),
(176,650,l),
(157,555,l),
(496,555,ls),
(526,555,o),
(550,575,o),
(550,604,cs)
);
}
);
vertWidth = 0;
width = 534;
},
{
associatedMasterId = m01;
layerId = "F9C33966-9A92-4AEC-87C7-153E19327B3B";
name = background;
shapes = (
{
closed = 1;
nodes = (
(171,637,o),
(169,650,o),
(148,650,cs),
(126,650,o),
(121,639,o),
(118,623,cs),
(13,27,ls),
(10,12,o),
(18,0,o),
(36,0,cs),
(58,0,o),
(62,15,o),
(64,25,cs),
(168,619,ls)
);
},
{
closed = 1;
nodes = (
(396,304,ls),
(416,304,o),
(422,315,o),
(422,327,cs),
(422,339,o),
(416,350,o),
(396,350,cs),
(100,350,l),
(93,304,l)
);
},
{
closed = 1;
nodes = (
(479,600,ls),
(499,600,o),
(505,613,o),
(505,625,cs),
(505,637,o),
(499,650,o),
(479,650,cs),
(149,650,l),
(142,600,l)
);
}
);
vertWidth = 0;
width = 500;
}
);
unicode = 70;
},
{
color = 6;
glyphname = G;
kernLeft = O_left;
layers = (
{
layerId = m01;
shapes = (
{
closed = 1;
nodes = (
(228,-4,o),
(327,134,o),
(419,275,c),
(431,350,l),
(407,350,o),
(404,343,o),
(346,255,cs),
(309,199,o),
(206,42,o),
(137,42,cs),
(101,42,o),
(92,89,o),
(92,135,cs),
(92,200,o),
(110,310,o),
(121,364,cs),
(142,468,o),
(185,604,o),
(422,604,cs),
(478,604,ls),
(493,604,o),
(503,614,o),
(503,627,cs),
(503,639,o),
(494,650,o),
(482,650,cs),
(423,650,ls),
(150,650,o),
(94,498,o),
(66,338,cs),
(62,318,o),
(42,203,o),
(42,140,cs),
(42,70,o),
(67,-4,o),
(134,-4,cs)
);
},
{
closed = 1;
nodes = (
(391,-1,o),
(396,16,o),
(398,27,cs),
(450,323,ls),
(453,340,o),
(449,350,o),
(432,350,c),
(412,350,o),
(402,342,o),
(399,323,cs),
(347,27,ls),
(345,15,o),
(348,1,o),
(368,0,cs)
);
}
);
vertWidth = 0;
width = 503;
},
{
layerId = m002;
shapes = (
{
closed = 1;
nodes = (
(258,-4,o),
(357,153,o),
(428,265,c),
(438,370,l),
(400,370,o),
(394,361,o),
(336,271,cs),
(301,217,o),
(214,85,o),
(163,85,cs),
(147,85,o),
(141,114,o),
(141,155,cs),
(141,214,o),
(159,304,o),
(168,354,cs),
(185,450,o),
(224,561,o),
(428,561,cs),
(481,561,ls),
(508,561,o),
(529,582,o),
(529,607,cs),
(529,631,o),
(509,650,o),
(484,650,cs),
(429,650,ls),
(153,650,o),
(92,494,o),
(65,341,cs),
(61,321,o),
(43,212,o),
(43,151,cs),
(43,79,o),
(67,-4,o),
(151,-4,cs)
);
},
{
closed = 1;
nodes = (
(417,0,o),
(426,18,o),
(430,42,cs),
(479,320,ls),
(484,351,o),
(468,370,o),
(437,370,cs),
(398,370,o),
(385,343,o),
(382,327,cs),
(333,49,ls),
(328,18,o),
(348,0,o),
(382,0,cs)
);
}
);
vertWidth = 0;
width = 525;
}
);
unicode = 71;
},
{
color = 6;
glyphname = H;
kernLeft = H_left;
kernRight = H_right;
layers = (
{
layerId = m01;
shapes = (
{
closed = 1;
nodes = (
(58,0,o),
(62,15,o),
(64,25,cs),
(168,619,ls),
(171,637,o),
(165,650,o),
(148,650,cs),
(129,650,o),
(121,639,o),
(118,623,cs),
(13,27,ls),
(10,12,o),
(18,0,o),
(36,0,cs)
);
},
{
closed = 1;
nodes = (
(426,304,l),
(434,350,l),
(100,350,l),
(92,304,l)
);
},
{
closed = 1;
nodes = (
(391,0,o),
(397,13,o),
(399,22,cs),
(504,621,ls),
(507,638,o),
(501,650,o),
(481,650,cs),
(463,650,o),
(456,638,o),
(454,628,cs),
(349,27,ls),
(347,15,o),
(349,0,o),
(372,0,cs)
);
}
);
vertWidth = 0;
width = 517;
},
{
layerId = m002;
shapes = (
{
closed = 1;
nodes = (
(107,0,o),
(123,20,o),
(126,40,cs),
(223,597,ls),
(229,632,o),
(211,650,o),
(182,650,cs),
(155,650,o),
(129,637,o),
(124,609,cs),
(26,49,ls),
(21,21,o),
(41,0,o),
(73,0,cs)
);
},
{
closed = 1;
nodes = (
(452,274,l),
(467,364,l),
(136,364,l),
(121,274,l)
);
},
{
closed = 1;
nodes = (
(435,0,o),
(456,17,o),
(460,37,cs),
(558,599,ls),
(564,631,o),
(543,650,o),
(512,650,cs),
(484,650,o),
(463,635,o),
(459,613,cs),
(361,49,ls),
(356,20,o),
(373,0,o),
(406,0,cs)
);
}
);
vertWidth = 0;
width = 584;
}
);
unicode = 72;
},
{
color = 6;
glyphname = I;
layers = (
{
layerId = m01;
shapes = (
{
closed = 1;
nodes = (
(111,25,l),
(215,620,l),
(164,620,l),
(60,25,l)
);
},
{
closed = 1;
nodes = (
(13,11,o),
(19,0,o),
(39,0,cs),
(128,0,ls),
(148,0,o),
(154,11,o),
(154,23,cs),
(154,35,o),
(148,46,o),
(128,46,cs),
(39,46,ls),
(19,46,o),
(13,35,o),
(13,23,cs)
);
},
{
closed = 1;
nodes = (
(121,616,o),
(127,604,o),
(147,604,cs),
(236,604,ls),
(256,604,o),
(262,616,o),
(262,628,cs),
(262,640,o),
(256,650,o),
(236,650,cs),
(147,650,ls),
(127,650,o),
(121,640,o),
(121,628,cs)
);
}
);
vertWidth = 0;
width = 267;
},
{
layerId = m002;
shapes = (
{
closed = 1;
nodes = (
(171,65,l),
(260,584,l),
(159,584,l),
(70,65,l)
);
},
{
closed = 1;
nodes = (
(20,15,o),
(36,0,o),
(61,0,cs),
(159,0,ls),
(192,0,o),
(203,15,o),
(207,39,cs),
(211,63,o),
(198,78,o),
(173,78,cs),
(75,78,ls),
(43,78,o),
(28,63,o),
(24,39,cs)
);
},
{
closed = 1;
nodes = (
(122,588,o),
(138,570,o),
(161,570,cs),
(259,570,ls),
(291,570,o),
(305,588,o),
(309,612,cs),
(313,636,o),
(296,650,o),
(273,650,cs),
(175,650,ls),
(144,650,o),
(130,636,o),
(126,612,cs)
);
}
);
vertWidth = 0;
width = 326;
}
);
unicode = 73;
},
{
color = 6;
glyphname = J;
kernRight = H_right;
layers = (
{
background = {
shapes = (
{
closed = 1;
nodes = (
(303,621,l),
(246,301,ls),
(234,232,o),
(227,159,o),
(198,111,cs),
(180,80,o),
(152,59,o),
(111,54,cs),
(84,51,o),
(14,46,o),
(-10,46,cs),
(-22,46,o),
(-35,38,o),
(-35,24,cs),
(-35,9,o),
(-22,0,o),
(-10,0,cs),
(21,0,o),
(88,5,o),
(107,7,cs),
(177,16,o),
(214,46,o),
(239,86,cs),
(273,140,o),
(281,211,o),
(296,296,cs),
(354,621,l)
);
},
{
closed = 1;
nodes = (
(481,600,o),
(487,613,o),
(487,625,cs),
(487,637,o),
(481,650,o),
(461,650,cs),
(197,650,ls),
(177,650,o),
(171,637,o),
(171,625,cs),
(171,613,o),
(177,600,o),
(197,600,cs),
(461,600,ls)
);
}
);
};
layerId = m01;
shapes = (
{
closed = 1;
nodes = (
(-45,9,o),
(-32,0,o),
(-20,0,cs),
(11,0,o),
(68,1,o),
(87,3,cs),
(199,17,o),
(238,84,o),
(269,257,cs),
(334,621,l),
(283,621,l),
(221,271,ls),
(197,135,o),
(173,58,o),
(83,49,cs),
(57,46,o),
(4,46,o),
(-20,46,cs),
(-32,46,o),
(-45,38,o),
(-45,24,cs)
);
},
{
closed = 1;
nodes = (
(151,615,o),
(157,604,o),
(177,604,cs),
(441,604,ls),
(461,604,o),
(467,615,o),
(467,627,cs),
(467,639,o),
(461,650,o),
(441,650,cs),
(177,650,ls),
(157,650,o),
(151,639,o),
(151,627,cs)
);
}
);
vertWidth = 0;
width = 416;
},
{
layerId = m002;
shapes = (
{
closed = 1;
nodes = (
(-41,18,o),
(-16,0,o),
(8,0,cs),
(38,0,o),
(114,2,o),
(132,4,cs),
(262,19,o),
(307,123,o),
(337,294,cs),
(390,597,l),
(288,597,l),
(238,306,ls),
(212,154,o),
(183,101,o),
(130,95,cs),
(106,92,o),
(29,90,o),
(8,90,cs),
(-16,90,o),
(-41,71,o),
(-41,45,cs)
);
},
{
closed = 1;
nodes = (
(149,574,o),
(168,555,o),
(198,555,cs),
(486,555,ls),
(518,555,o),
(536,576,o),
(536,602,cs),
(536,630,o),
(517,650,o),
(487,650,cs),
(199,650,ls),
(168,650,o),
(149,629,o),
(149,602,cs)
);
}
);
vertWidth = 0;
width = 490;
},
{
associatedMasterId = m01;
layerId = "06052F2C-BE0F-40BC-8081-A274CED33EF8";
name = background;
shapes = (
{
closed = 1;
nodes = (
(374,621,l),
(317,301,ls),
(305,232,o),
(296,161,o),
(267,113,cs),
(249,82,o),
(223,59,o),
(182,54,cs),
(155,51,o),
(62,46,o),
(38,46,cs),
(26,46,o),
(13,38,o),
(13,24,cs),
(13,9,o),
(26,0,o),
(38,0,cs),
(69,0,o),
(159,5,o),
(178,7,cs),
(248,16,o),
(285,46,o),
(310,86,cs),
(344,140,o),
(352,211,o),
(367,296,cs),
(425,621,l)
);
},
{
closed = 1;
nodes = (
(572,600,o),
(578,613,o),
(578,625,cs),
(578,637,o),
(572,650,o),
(552,650,cs),
(248,650,ls),
(228,650,o),
(222,637,o),
(222,625,cs),
(222,613,o),
(228,600,o),
(248,600,cs),
(552,600,ls)
);
}
);
vertWidth = 0;
width = 500;
},
{
associatedMasterId = m002;
layerId = "F37B6A25-0192-483E-B22B-1CA87C39BAD9";
name = background;
shapes = (
{
closed = 1;
nodes = (
(-74,18,o),
(-49,0,o),
(-25,0,cs),
(5,0,o),
(81,2,o),
(99,4,cs),
(175,14,o),
(216,48,o),
(242,88,cs),
(276,145,o),
(290,215,o),
(304,294,cs),
(357,597,l),
(255,597,l),
(205,306,ls),
(194,241,o),
(183,178,o),
(158,137,cs),
(143,111,o),
(128,99,o),
(97,95,cs),
(73,92,o),
(-4,90,o),
(-25,90,cs),
(-49,90,o),
(-74,71,o),
(-74,45,cs)
);
},
{
closed = 1;
nodes = (
(116,574,o),
(135,555,o),
(165,555,cs),
(453,555,ls),
(485,555,o),
(503,576,o),
(503,602,cs),
(503,630,o),
(484,650,o),
(454,650,cs),
(166,650,ls),
(135,650,o),
(116,629,o),
(116,602,cs)
);
}
);
vertWidth = 0;
width = 500;
}
);
unicode = 74;
},
{
color = 6;
glyphname = K;
kernLeft = H_left;
layers = (
{
layerId = m01;
shapes = (
{
closed = 1;
nodes = (
(478,638,o),
(471,650,o),
(457,650,cs),
(447,650,o),
(435,644,o),
(426,635,cs),
(163,395,l),
(118,358,l),
(118,348,l),
(171,345,l),
(458,599,ls),
(470,609,o),
(478,619,o),
(478,628,cs)
);
},
{
closed = 1;
nodes = (
(385,0,o),
(395,6,o),
(398,17,cs),
(400,24,o),
(398,32,o),
(391,42,cs),
(174,354,l),
(118,356,l),
(119,345,l),
(154,295,l),
(346,19,ls),
(353,9,o),
(362,0,o),
(375,0,cs)
);
},
{
closed = 1;
nodes = (
(58,0,o),
(63,18,o),
(65,31,cs),
(169,619,ls),
(172,637,o),
(168,650,o),
(149,650,cs),
(129,650,o),
(122,639,o),
(119,623,cs),
(14,32,ls),
(11,17,o),
(19,0,o),
(37,0,cs)
);
}
);
vertWidth = 0;
width = 450;
},
{
layerId = m002;
shapes = (
{
closed = 1;
nodes = (
(537,627,o),
(522,650,o),
(493,650,cs),
(477,650,o),
(457,645,o),
(441,631,cs),
(232,446,l),
(143,358,l),
(143,326,l),
(226,318,l),
(509,562,ls),
(523,574,o),
(532,589,o),
(534,604,cs)
);
},
{
closed = 1;
nodes = (
(429,0,o),
(452,10,o),
(456,31,cs),
(459,44,o),
(458,60,o),
(448,74,cs),
(243,368,l),
(143,382,l),
(142,348,l),
(189,271,l),
(360,25,ls),
(371,9,o),
(390,0,o),
(409,0,cs)
);
},
{
closed = 1;
nodes = (
(106,0,o),
(122,19,o),
(127,45,cs),
(225,597,ls),
(232,636,o),
(205,650,o),
(181,650,cs),
(155,650,o),
(131,637,o),
(126,609,cs),
(27,54,ls),
(22,24,o),
(43,0,o),
(75,0,cs)
);
}
);
vertWidth = 0;
width = 531;
},
{
associatedMasterId = m01;
layerId = "E010F034-4598-4FE9-A40B-8BF5FC7CFE65";
name = background;
shapes = (
{
closed = 1;
nodes = (
(487,599,ls),
(499,609,o),
(504,619,o),
(506,628,cs),
(507,640,o),
(499,650,o),
(486,650,cs),
(478,651,o),
(467,647,o),
(455,637,cs),
(118,360,l),
(118,348,l),
(176,343,l)
);
},
{
closed = 1;
nodes = (
(118,356,l),
(119,345,l),
(346,19,ls),
(353,9,o),
(362,0,o),
(375,0,cs),
(385,0,o),
(395,6,o),
(398,17,cs),
(400,24,o),
(398,32,o),
(391,42,cs),
(174,354,l)
);
},
{
closed = 1;
nodes = (
(172,637,o),
(168,650,o),
(149,650,cs),
(129,650,o),
(122,639,o),
(119,623,cs),
(14,32,ls),
(11,17,o),
(19,0,o),
(37,0,cs),
(58,0,o),
(63,18,o),
(65,31,cs),
(169,619,ls)
);
}
);
vertWidth = 0;
width = 500;
}
);
unicode = 75;
},
{
color = 6;
glyphname = L;
kernLeft = H_left;
layers = (
{
layerId = m01;
shapes = (
{
closed = 1;
nodes = (
(10,12,o),
(18,0,o),
(36,0,cs),
(58,0,o),
(61,15,o),
(63,25,cs),
(168,619,ls),
(171,637,o),
(168,650,o),
(148,650,cs),
(128,650,o),
(121,639,o),
(118,623,cs),
(13,27,ls)
);
},
{
closed = 1;
nodes = (
(359,36,o),
(351,46,o),
(333,46,cs),
(36,46,l),
(36,0,l),
(333,0,ls),
(351,0,o),
(359,12,o),
(359,24,cs)
);
}
);
vertWidth = 0;
width = 396;
},
{
layerId = m002;
shapes = (
{
closed = 1;
nodes = (
(21,21,o),
(39,0,o),
(69,0,cs),
(103,0,o),
(122,18,o),
(126,39,cs),
(225,597,ls),
(232,639,o),
(208,650,o),
(183,650,cs),
(154,650,o),
(130,637,o),
(125,609,cs),
(26,49,ls)
);
},
{
closed = 1;
nodes = (
(465,70,o),
(445,90,o),
(415,90,cs),
(86,90,l),
(70,0,l),
(415,0,ls),
(445,0,o),
(465,22,o),
(465,46,cs)
);
}
);
vertWidth = 0;
width = 511;
}
);
unicode = 76;
},
{
color = 6;
glyphname = M;
kernLeft = H_left;
kernRight = H_right;
layers = (
{
layerId = m01;
shapes = (
{
closed = 1;
nodes = (
(12,0,o),
(24,7,o),
(33,25,cs),
(278,510,l),
(311,593,l),
(311,650,l),
(293,650,o),
(289,639,o),
(282,625,cs),
(-14,38,ls),
(-20,26,o),
(-22,16,o),
(-18,10,cs),
(-14,4,o),
(-7,0,o),
(1,0,cs)
);
},
{
closed = 1;
nodes = (
(331,14,o),
(335,0,o),
(357,0,c),
(372,61,l),
(369,154,l),
(336,626,ls),
(335,639,o),
(328,650,o),
(310,650,c),
(296,584,l),
(296,506,l),
(330,35,ls)
);
},
{
closed = 1;
nodes = (
(633,511,l),
(672,588,l),
(667,650,l),
(652,650,o),
(646,635,o),
(640,624,cs),
(401,149,l),
(362,61,l),
(357,0,l),
(377,0,o),
(385,17,o),
(393,32,cs)
);
},
{
closed = 1;
nodes = (
(731,0,o),
(739,11,o),
(738,30,cs),
(699,622,ls),
(698,638,o),
(695,650,o),
(666,650,c),
(655,608,l),
(658,510,l),
(688,28,ls),
(689,14,o),
(694,0,o),
(715,0,cs)
);
}
);
vertWidth = 0;
width = 824;
},
{
layerId = m002;
shapes = (
{
closed = 1;
nodes = (
(32,0,o),
(60,9,o),
(72,33,cs),
(256,392,l),
(331,555,l),
(312,650,l),
(284,650,o),
(275,638,o),
(264,617,cs),
(-21,73,ls),
(-34,47,o),
(-33,34,o),
(-26,21,cs),
(-19,8,o),
(-1,0,o),
(14,0,cs)
);
},
{
closed = 1;
nodes = (
(315,18,o),
(332,0,o),
(363,0,c),
(401,90,l),
(390,277,l),
(363,606,ls),
(361,635,o),
(352,650,o),
(312,650,c),
(280,559,l),
(283,393,l),
(312,50,ls)
);
},
{
closed = 1;
nodes = (
(601,392,l),
(675,566,l),
(672,650,l),
(641,650,o),
(624,638,o),
(612,616,cs),
(430,271,l),
(352,86,l),
(363,0,l),
(402,0,o),
(413,19,o),
(424,41,cs)
);
},
{
closed = 1;
nodes = (
(743,0,o),
(762,20,o),
(759,52,cs),
(714,606,ls),
(712,635,o),
(706,650,o),
(672,650,c),
(627,562,l),
(634,390,l),
(663,46,ls),
(665,19,o),
(683,0,o),
(714,0,cs)
);
}
);
vertWidth = 0;
width = 827;
},
{
associatedMasterId = m01;
layerId = "821342D0-DD98-4007-9C88-2E342CE68D40";
name = background;
shapes = (
{
closed = 1;
nodes = (
(321,650,l),
(303,650,o),
(297,639,o),
(290,625,cs),
(-16,38,ls),
(-22,26,o),
(-22,16,o),
(-18,10,cs),
(-14,4,o),
(-7,0,o),
(1,0,cs),
(12,0,o),
(24,7,o),
(34,25,cs),
(330,593,l)
);
},
{
closed = 1;
nodes = (
(346,631,ls),
(345,639,o),
(338,650,o),
(320,650,c),
(300,584,l),
(345,24,ls),
(346,14,o),
(350,0,o),
(374,0,c),
(392,61,l)
);
},
{
closed = 1;
nodes = (
(392,0,o),
(400,17,o),
(404,24,cs),
(697,586,l),
(687,650,l),
(672,650,o),
(666,635,o),
(660,624,cs),
(367,61,l),
(372,0,l)
);
},
{
closed = 1;
nodes = (
(718,638,o),
(715,650,o),
(686,650,c),
(670,608,l),
(718,24,ls),
(719,14,o),
(724,0,o),
(745,0,c),
(761,0,o),
(769,11,o),
(768,26,cs),
(719,622,ls)
);
}
);
vertWidth = 0;
width = 500;
}
);
unicode = 77;
},
{
color = 6;
glyphname = N;
kernLeft = H_left;
kernRight = H_right;
layers = (
{
layerId = m01;
shapes = (
{
closed = 1;
nodes = (
(352,8,o),
(361,0,o),
(375,0,c),
(370,67,l),
(351,149,l),
(178,630,ls),
(175,639,o),
(166,650,o),
(148,650,c),
(148,590,l),
(166,517,l),
(348,18,ls)
);
},
{
closed = 1;
nodes = (
(58,0,o),
(62,16,o),
(64,28,cs),
(150,516,l),
(160,612,l),
(148,650,l),
(126,650,o),
(121,639,o),
(118,623,cs),
(13,27,ls),
(10,12,o),
(18,0,o),
(36,0,cs)
);
},
{
closed = 1;
nodes = (
(465,650,o),
(458,639,o),
(455,623,cs),
(372,149,l),
(364,48,l),
(374,0,l),
(396,0,o),
(398,15,o),
(400,25,cs),
(504,619,ls),
(507,637,o),
(504,650,o),
(485,650,cs)
);
}
);
vertWidth = 0;
width = 517;
},
{
layerId = m002;
shapes = (
{
closed = 1;
nodes = (
(362,10,o),
(378,0,o),
(404,0,c),
(410,129,l),
(362,266,l),
(218,620,ls),
(210,641,o),
(191,650,o),
(171,650,c),
(142,569,l),
(211,382,l),
(355,28,ls)
);
},
{
closed = 1;
nodes = (
(102,0,o),
(122,19,o),
(126,42,cs),
(186,383,l),
(216,592,l),
(171,650,l),
(146,650,o),
(129,636,o),
(124,609,cs),
(26,49,ls),
(21,21,o),
(40,0,o),
(69,0,cs)
);
},
{
closed = 1;
nodes = (
(477,653,o),
(454,637,o),
(449,609,cs),
(389,267,l),
(364,105,l),
(404,0,l),
(433,0,o),
(445,14,o),
(450,40,cs),
(548,597,ls),
(554,629,o),
(538,653,o),
(505,653,cs)
);
}
);
vertWidth = 0;
width = 574;
}
);
unicode = 78;
},
{
color = 6;
glyphname = O;
kernLeft = O_left;
kernRight = O_right;
layers = (
{
background = {
shapes = (
{
closed = 1;
nodes = (
(313,-11,o),
(448,247,o),
(465,441,cs),
(475,556,o),
(439,657,o),
(297,656,cs),
(174,654,o),
(113,558,o),
(78,408,cs),
(69,367,o),
(62,319,o),
(60,275,cs),
(54,137,o),
(73,-11,o),
(166,-11,cs)
);
},
{
closed = 1;
nodes = (
(110,35,o),
(102,172,o),
(110,264,cs),
(114,307,o),
(120,353,o),
(127,388,cs),
(159,528,o),
(197,606,o),
(294,608,cs),
(407,610,o),
(423,535,o),
(415,435,cs),
(402,270,o),
(270,35,o),
(163,35,cs)
);
}
);
};
layerId = m01;
shapes = (
{
closed = 1;
nodes = (
(321,-11,o),
(458,245,o),
(475,439,cs),
(485,554,o),
(440,658,o),
(298,656,cs),
(178,654,o),
(105,563,o),
(68,410,cs),
(17,199,o),
(51,-11,o),
(163,-11,cs)
);
},
{
closed = 1;
nodes = (
(97,35,o),
(78,222,o),
(116,391,cs),
(147,530,o),
(198,606,o),
(295,608,cs),
(408,610,o),
(433,533,o),
(425,433,cs),
(412,268,o),
(278,35,o),
(167,35,cs)
);
}
);
vertWidth = 0;
width = 497;
},
{
layerId = m002;
shapes = (
{
closed = 1;
nodes = (
(336,-10,o),
(497,245,o),
(516,423,cs),
(528,542,o),
(463,656,o),
(318,656,cs),
(180,656,o),
(118,552,o),
(79,404,cs),
(28,205,o),
(54,-10,o),
(184,-10,cs)
);
},
{
closed = 1;
nodes = (
(145,80,o),
(152,261,o),
(175,372,cs),
(201,498,o),
(229,566,o),
(316,566,cs),
(417,566,o),
(420,478,o),
(415,421,cs),
(400,275,o),
(256,80,o),
(187,80,cs)
);
}
);
vertWidth = 0;
width = 553;
},
{
associatedMasterId = m01;
layerId = "7307B018-DEB8-4492-83DD-A560B2CDD96E";
name = background;
shapes = (
{
closed = 1;
nodes = (
(296,-4,o),
(446,256,o),
(470,438,cs),
(485,551,o),
(454,650,o),
(312,650,cs),
(189,650,o),
(124,557,o),
(82,409,cs),
(71,369,o),
(62,322,o),
(58,278,cs),
(46,143,o),
(58,-4,o),
(151,-4,cs)
);
},
{
closed = 1;
nodes = (
(97,42,o),
(100,178,o),
(107,268,cs),
(111,310,o),
(121,355,o),
(130,388,cs),
(168,526,o),
(210,604,o),
(307,604,cs),
(440,604,o),
(429,495,o),
(420,432,cs),
(398,270,o),
(239,42,o),
(150,42,cs)
);
}
);
vertWidth = 0;
width = 497;
},
{
associatedMasterId = m002;
layerId = "D1F148A5-460D-423B-8A8D-A02342BEA43C";
name = background;
shapes = (
{
closed = 1;
nodes = (
(331,-10,o),
(498,245,o),
(521,423,cs),
(536,542,o),
(474,656,o),
(329,656,cs),
(191,656,o),
(124,549,o),
(84,404,cs),
(73,364,o),
(65,319,o),
(63,277,cs),
(52,144,o),
(59,-10,o),
(179,-10,cs)
);
},
{
closed = 1;
nodes = (
(147,80,o),
(156,181,o),
(162,263,cs),
(164,302,o),
(172,342,o),
(179,372,cs),
(213,499,o),
(238,566,o),
(325,566,cs),
(426,566,o),
(427,478,o),
(420,421,cs),
(402,275,o),
(253,80,o),
(184,80,cs)
);
}
);
vertWidth = 0;
width = 500;
}
);
unicode = 79;
},
{
color = 6;
glyphname = P;
kernLeft = H_left;
layers = (
{
layerId = m01;
shapes = (
{
closed = 1;
nodes = (
(496,606,o),
(361,651,o),
(148,650,c),
(143,604,l),
(354,605,o),
(440,571,o),
(428,481,cs),
(415,384,o),
(287,350,o),
(98,350,c),
(91,304,l),
(311,304,o),
(461,339,o),
(479,476,cs)
);
},
{
closed = 1;
nodes = (
(58,-4,o),
(61,15,o),
(63,25,cs),
(168,619,ls),
(171,637,o),
(169,650,o),
(148,650,cs),
(126,650,o),
(121,639,o),
(118,623,cs),
(13,27,ls),
(10,12,o),
(18,-4,o),
(36,-4,cs)
);
}
);
vertWidth = 0;
width = 467;
},
{
layerId = m002;
shapes = (
{
closed = 1;
nodes = (
(554,602,o),
(426,656,o),
(177,652,c),
(160,562,l),
(387,565,o),
(446,535,o),
(438,472,cs),
(427,382,o),
(288,364,o),
(137,364,c),
(125,274,l),
(317,274,o),
(510,289,o),
(535,467,cs)
);
},
{
closed = 1;
nodes = (
(106,-6,o),
(119,17,o),
(123,39,cs),
(221,597,ls),
(228,639,o),
(202,652,o),
(177,652,cs),
(147,652,o),
(129,637,o),
(124,609,cs),
(25,48,ls),
(20,21,o),
(39,-6,o),
(72,-6,cs)
);
}
);
vertWidth = 0;
width = 548;
},
{
associatedMasterId = m01;
layerId = "20E38FB0-B6D6-4C6B-89B9-150B1056CEBB";
name = background;
shapes = (
{
closed = 1;
nodes = (
(296,304,o),
(457,321,o),
(479,476,cs),
(496,597,o),
(366,650,o),
(152,650,c),
(155,604,l),
(359,604,o),
(439,557,o),
(429,481,cs),
(414,367,o),
(267,350,o),
(113,350,c),
(106,304,l)
);
},
{
closed = 1;
nodes = (
(171,637,o),
(169,650,o),
(148,650,cs),
(126,650,o),
(121,639,o),
(118,623,cs),
(13,27,ls),
(10,12,o),
(18,-4,o),
(36,-4,cs),
(58,-4,o),
(61,15,o),
(63,25,cs),
(168,619,ls)
);
}
);
vertWidth = 0;
width = 500;
}
);
unicode = 80;
},
{
color = 6;
glyphname = Q;
kernLeft = O_left;
kernRight = O_right;
layers = (
{
layerId = m01;
shapes = (
{
closed = 1;
nodes = (
(347,-37,o),
(347,-18,o),
(339,-6,cs),
(231,151,ls),
(221,165,o),
(203,172,o),
(189,160,cs),
(177,151,o),
(179,139,o),
(190,123,cs),
(294,-29,ls),
(304,-44,o),
(320,-52,o),
(333,-45,cs)
);
},
{
closed = 1;
nodes = (
(321,-6,o),
(460,242,o),
(477,436,cs),
(487,551,o),
(440,658,o),
(304,656,cs),
(178,654,o),
(102,566,o),
(65,413,cs),
(14,202,o),
(51,-6,o),
(163,-6,cs)
);
},
{
closed = 1;
nodes = (
(97,40,o),
(75,225,o),
(113,394,cs),
(144,533,o),
(198,606,o),
(301,608,cs),
(408,610,o),
(435,530,o),
(427,430,cs),
(414,265,o),
(278,40,o),
(167,40,cs)
);
}
);
vertWidth = 0;
width = 497;
},
{
layerId = m002;
shapes = (
{
closed = 1;
nodes = (
(423,-28,o),
(425,1,o),
(409,25,cs),
(309,172,l),
(288,199,o),
(253,204,o),
(235,189,cs),
(216,174,o),
(210,149,o),
(228,122,cs),
(326,-21,ls),
(344,-47,o),
(376,-55,o),
(397,-42,cs)
);
},
{
closed = 1;
nodes = (
(352,-10,o),
(513,245,o),
(532,423,cs),
(544,542,o),
(479,656,o),
(326,656,cs),
(180,656,o),
(118,552,o),
(79,404,cs),
(28,205,o),
(54,-10,o),
(195,-10,cs)
);
},
{
closed = 1;
nodes = (
(145,80,o),
(152,261,o),
(175,372,cs),
(201,498,o),
(229,566,o),
(326,566,cs),
(433,566,o),
(436,478,o),
(431,421,cs),
(416,275,o),
(272,80,o),
(198,80,cs)
);
}
);
vertWidth = 0;
width = 568;
}
);
unicode = 81;
},
{
color = 6;
glyphname = R;
kernLeft = H_left;
layers = (
{
layerId = m01;
shapes = (
{
closed = 1;
nodes = (
(484,609,o),
(348,650,o),
(148,650,c),
(148,604,l),
(327,604,o),
(428,568,o),
(415,481,cs),
(401,390,o),
(286,350,o),
(106,350,c),
(99,307,l),
(298,307,o),
(445,337,o),
(465,476,cs)
);
},
{
closed = 1;
nodes = (
(384,0,o),
(394,7,o),
(397,15,cs),
(400,23,o),
(399,35,o),
(393,43,cs),
(156,329,l),
(113,317,l),
(146,263,l),
(349,18,ls),
(359,5,o),
(366,0,o),
(374,0,cs)
);
},
{
closed = 1;
nodes = (
(58,0,o),
(62,16,o),
(65,31,cs),
(168,619,ls),
(171,637,o),
(169,650,o),
(148,650,cs),
(126,650,o),
(121,639,o),
(118,623,cs),
(14,33,ls),
(11,16,o),
(18,0,o),
(36,0,cs)
);
}
);
vertWidth = 0;
width = 467;
},
{
layerId = m002;
shapes = (
{
closed = 1;
nodes = (
(544,602,o),
(407,650,o),
(181,650,c),
(200,560,l),
(376,563,o),
(434,533,o),
(423,470,cs),
(408,382,o),
(286,345,o),
(139,344,c),
(126,272,l),
(314,273,o),
(488,289,o),
(520,467,cs)
);
},
{
closed = 1;
nodes = (
(433,0,o),
(454,11,o),
(459,29,cs),
(463,42,o),
(464,57,o),
(454,69,cs),
(247,318,l),
(138,318,l),
(185,237,l),
(362,23,ls),
(379,3,o),
(401,0,o),
(414,0,cs)
);
},
{
closed = 1;
nodes = (
(97,0,o),
(123,23,o),
(128,53,cs),
(224,597,ls),
(231,638,o),
(208,650,o),
(180,650,cs),
(149,650,o),
(130,637,o),
(125,609,cs),
(27,54,ls),
(22,24,o),
(34,0,o),
(66,0,cs)
);
}
);
vertWidth = 0;
width = 549;
},
{
associatedMasterId = m01;
layerId = "C47353F9-FE80-40FB-AB91-6D72AFE07355";
name = background;
shapes = (
{
closed = 1;
nodes = (
(316,304,o),
(484,321,o),
(506,476,cs),
(523,597,o),
(396,650,o),
(179,650,c),
(179,604,l),
(372,604,o),
(467,560,o),
(456,481,cs),
(440,368,o),
(292,350,o),
(133,350,c),
(126,304,l)
);
},
{
closed = 1;
nodes = (
(119,328,l),
(376,18,ls),
(386,5,o),
(393,0,o),
(401,0,cs),
(411,0,o),
(421,7,o),
(424,15,cs),
(427,23,o),
(426,35,o),
(420,43,cs),
(190,321,l)
);
},
{
closed = 1;
nodes = (
(198,637,o),
(196,650,o),
(175,650,cs),
(153,650,o),
(148,639,o),
(145,623,cs),
(41,33,ls),
(38,16,o),
(45,0,o),
(63,0,cs),
(85,0,o),
(89,16,o),
(92,31,cs),
(195,619,ls)
);
}
);
vertWidth = 0;
width = 500;
}
);
unicode = 82;
},
{
color = 6;
glyphname = S;
layers = (
{
background = {
shapes = (
{
closed = 1;
nodes = (
(186,0,o),
(268,32,o),
(313,90,cs),
(371,165,o),
(351,287,o),
(237,363,cs),
(207,383,ls),
(114,445,o),
(95,490,o),
(127,545,cs),
(158,598,o),
(236,600,o),
(324,600,cs),
(405,600,ls),
(418,600,o),
(428,613,o),
(428,626,cs),
(428,650,o),
(408,650,o),
(404,650,cs),
(325,650,ls),
(216,650,o),
(125,635,o),
(81,566,cs),
(35,494,o),
(68,415,o),
(161,352,cs),
(192,331,ls),
(282,270,o),
(323,189,o),
(277,124,cs),
(238,69,o),
(153,50,o),
(78,50,cs),
(-2,50,ls),
(-15,50,o),
(-26,37,o),
(-26,24,cs),
(-26,0,o),
(-4,0,o),
(-2,0,cs),
(78,0,ls)
);
}
);
};
layerId = m01;
shapes = (
{
closed = 1;
nodes = (
(250,0,o),
(348,83,o),
(348,183,cs),
(348,264,o),
(300,321,o),
(237,363,cs),
(207,383,ls),
(140,427,o),
(112,460,o),
(112,500,cs),
(112,577,o),
(195,604,o),
(301,604,cs),
(387,604,ls),
(400,604,o),
(410,613,o),
(410,628,c),
(410,650,o),
(390,650,o),
(386,650,cs),
(294,650,ls),
(150,650,o),
(60,591,o),
(60,497,cs),
(60,445,o),
(97,395,o),
(161,352,cs),
(192,331,ls),
(252,290,o),
(296,246,o),
(296,182,cs),
(296,105,o),
(223,46,o),
(84,46,cs),
(-2,46,ls),
(-15,46,o),
(-26,37,o),
(-26,22,c),
(-26,0,o),
(-4,0,o),
(-2,0,cs),
(78,0,ls)
);
}
);
vertWidth = 0;
width = 395;
},
{
layerId = m002;
shapes = (
{
closed = 1;
nodes = (
(236,0,o),
(408,50,o),
(408,192,cs),
(408,283,o),
(343,334,o),
(279,379,cs),
(259,393,ls),
(198,436,o),
(167,460,o),
(167,487,cs),
(167,527,o),
(237,559,o),
(304,559,cs),
(437,559,ls),
(463,559,o),
(484,580,o),
(484,605,cs),
(484,641,o),
(454,650,o),
(436,650,cs),
(305,650,ls),
(171,650,o),
(67,575,o),
(67,483,cs),
(67,411,o),
(129,372,o),
(196,324,cs),
(217,309,ls),
(280,264,o),
(308,235,o),
(308,192,cs),
(308,115,o),
(195,91,o),
(137,91,cs),
(35,91,ls),
(9,91,o),
(-13,69,o),
(-13,44,cs),
(-13,8,o),
(21,0,o),
(35,0,cs),
(137,0,ls)
);
}
);
vertWidth = 0;
width = 466;
},
{
associatedMasterId = m01;
layerId = "A440414B-586A-40A5-AE6A-EB7CED442D21";
name = background;
shapes = (
{
closed = 1;
nodes = (
(198,0,o),
(347,50,o),
(347,184,cs),
(347,269,o),
(302,318,o),
(231,368,cs),
(157,419,o),
(112,452,o),
(112,497,cs),
(112,555,o),
(200,600,o),
(277,600,cs),
(407,600,ls),
(420,600,o),
(430,613,o),
(430,626,cs),
(430,650,o),
(410,650,o),
(406,650,cs),
(278,650,ls),
(149,650,o),
(61,576,o),
(61,493,cs),
(61,422,o),
(119,385,o),
(198,329,cs),
(269,278,o),
(297,241,o),
(297,183,cs),
(297,83,o),
(165,50,o),
(100,50,cs),
(0,50,ls),
(-13,50,o),
(-24,37,o),
(-24,24,cs),
(-24,0,o),
(-2,0,o),
(0,0,cs),
(100,0,ls)
);
}
);
vertWidth = 0;
width = 500;
}
);
unicode = 83;
},
{
color = 6;
glyphname = T;
layers = (
{
layerId = m01;
shapes = (
{
closed = 1;
nodes = (
(189,0,o),
(192,15,o),
(194,25,cs),
(298,621,l),
(247,621,l),
(144,27,ls),
(141,12,o),
(149,0,o),
(167,0,cs)
);
},
{
closed = 1;
nodes = (
(37,615,o),
(43,604,o),
(63,604,cs),
(487,604,ls),
(507,604,o),
(513,615,o),
(513,627,cs),
(513,639,o),
(507,650,o),
(487,650,cs),
(63,650,ls),
(43,650,o),
(37,639,o),
(37,627,cs)
);
}
);
vertWidth = 0;
width = 445;
},
{
layerId = m002;
shapes = (
{
closed = 1;
nodes = (
(230,-2,o),
(246,18,o),
(250,39,cs),
(347,601,l),
(246,601,l),
(150,49,ls),
(145,21,o),
(166,-2,o),
(197,-2,cs)
);
},
{
closed = 1;
nodes = (
(37,583,o),
(55,563,o),
(87,563,cs),
(511,563,ls),
(543,563,o),
(561,583,o),
(561,607,cs),
(561,633,o),
(541,653,o),
(511,653,cs),
(87,653,ls),
(57,653,o),
(37,633,o),
(37,607,cs)
);
}
);
vertWidth = 0;
width = 499;
}
);
unicode = 84;
},
{
color = 6;
glyphname = U;
kernLeft = H_left;
kernRight = H_right;
layers = (
{
layerId = m01;
shapes = (
{
closed = 1;
nodes = (
(216,-4,o),
(323,175,o),
(406,338,c),
(437,381,l),
(464,520,l),
(430,520,l),
(411,417,o),
(367,350,o),
(331,291,cs),
(286,217,o),
(187,42,o),
(109,42,c),
(62,42,o),
(72,116,o),
(84,180,cs),
(164,622,ls),
(167,636,o),
(158,649,o),
(143,650,cs),
(127,650,o),
(116,636,o),
(113,620,cs),
(34,183,ls),
(10,52,o),
(42,-4,o),
(101,-4,cs)
);
},
{
closed = 1;
nodes = (
(378,-1,o),
(390,7,o),
(393,22,cs),
(499,624,ls),
(502,639,o),
(495,650,o),
(475,650,cs),
(457,650,o),
(450,638,o),
(448,626,cs),
(343,27,ls),
(340,8,o),
(352,-1,o),
(366,-1,cs)
);
}
);
vertWidth = 0;
width = 511;
},
{
layerId = m002;
shapes = (
{
closed = 1;
nodes = (
(259,-4,o),
(369,166,o),
(446,326,c),
(497,385,l),
(531,543,l),
(447,543,l),
(437,486,o),
(390,372,o),
(364,323,cs),
(335,268,o),
(226,86,o),
(157,86,cs),
(138,86,o),
(140,125,o),
(151,185,cs),
(225,600,ls),
(230,629,o),
(209,650,o),
(180,650,cs),
(148,651,o),
(128,624,o),
(125,606,cs),
(51,195,ls),
(26,57,o),
(68,-4,o),
(141,-4,cs)
);
},
{
closed = 1;
nodes = (
(430,0,o),
(456,12,o),
(460,37,cs),
(559,602,ls),
(564,630,o),
(546,650,o),
(512,650,cs),
(484,650,o),
(463,635,o),
(459,612,cs),
(361,49,ls),
(355,16,o),
(379,0,o),
(407,0,cs)
);
}
);
vertWidth = 0;
width = 584;
}
);
unicode = 85;
},
{
color = 6;
glyphname = V;
kernLeft = V_left;
kernRight = V_right;
layers = (
{
layerId = m01;
shapes = (
{
closed = 1;
nodes = (
(464,607,ls),
(475,629,o),
(469,643,o),
(457,649,cs),
(444,655,o),
(427,645,o),
(418,626,cs),
(179,143,l),
(137,39,l),
(146,0,l),
(165,0,o),
(169,11,o),
(176,25,cs)
);
},
{
closed = 1;
nodes = (
(120,15,o),
(127,0,o),
(146,0,c),
(163,37,l),
(162,147,l),
(136,626,ls),
(135,636,o),
(131,650,o),
(109,650,c),
(91,650,o),
(85,639,o),
(86,624,cs),
(119,33,ls)
);
}
);
vertWidth = 0;
width = 440;
},
{
layerId = m002;
shapes = (
{
closed = 1;
nodes = (
(486,591,ls),
(503,625,o),
(481,650,o),
(449,650,cs),
(420,650,o),
(401,638,o),
(391,618,cs),
(212,256,l),
(132,59,l),
(159,-2,l),
(188,-2,o),
(200,15,o),
(210,34,cs)
);
},
{
closed = 1;
nodes = (
(110,19,o),
(129,-2,o),
(159,-2,c),
(188,64,l),
(193,259,l),
(174,610,ls),
(173,633,o),
(155,650,o),
(123,650,cs),
(94,650,o),
(75,634,o),
(77,604,cs),
(109,44,ls)
);
}
);
vertWidth = 0;
width = 460;
}
);
unicode = 86;
},
{
color = 6;
glyphname = W;
kernLeft = V_left;
kernRight = V_right;
layers = (
{
background = {
shapes = (
{
closed = 1;
nodes = (
(534,0,o),
(538,11,o),
(545,25,cs),
(838,618,ls),
(848,638,o),
(836,650,o),
(821,650,cs),
(802,650,o),
(794,642,o),
(785,625,cs),
(496,39,l),
(515,0,l)
);
},
{
closed = 1;
nodes = (
(505,626,ls),
(504,636,o),
(500,650,o),
(478,650,c),
(460,650,o),
(454,639,o),
(455,624,cs),
(488,28,ls),
(489,15,o),
(497,0,o),
(516,0,c),
(537,37,l)
);
}
);
};
layerId = m01;
shapes = (
{
closed = 1;
nodes = (
(805,607,ls),
(816,629,o),
(809,643,o),
(797,648,cs),
(783,654,o),
(768,645,o),
(759,627,cs),
(526,155,l),
(473,31,l),
(486,0,l),
(505,0,o),
(511,11,o),
(518,25,cs)
);
},
{
closed = 1;
nodes = (
(120,13,o),
(129,0,o),
(147,0,c),
(161,37,l),
(162,151,l),
(136,626,ls),
(135,636,o),
(131,650,o),
(109,650,c),
(91,650,o),
(85,639,o),
(86,624,cs),
(119,29,ls)
);
},
{
closed = 1;
nodes = (
(416,510,l),
(460,619,l),
(449,650,l),
(430,650,o),
(422,637,o),
(417,626,cs),
(182,147,l),
(133,40,l),
(147,0,l),
(165,0,o),
(172,15,o),
(178,26,cs)
);
},
{
closed = 1;
nodes = (
(463,8,o),
(470,0,o),
(486,0,c),
(501,30,l),
(505,157,l),
(477,626,ls),
(476,638,o),
(471,650,o),
(449,650,c),
(435,617,l),
(434,511,l),
(462,22,ls)
);
}
);
vertWidth = 0;
width = 780;
},
{
layerId = m002;
shapes = (
{
closed = 1;
nodes = (
(828,585,ls),
(843,616,o),
(821,650,o),
(797,650,cs),
(763,650,o),
(745,636,o),
(735,615,cs),
(567,263,l),
(478,74,l),
(505,0,l),
(533,0,o),
(545,12,o),
(555,33,cs)
);
},
{
closed = 1;
nodes = (
(117,15,o),
(136,0,o),
(169,0,c),
(199,75,l),
(194,256,l),
(174,610,ls),
(173,633,o),
(156,650,o),
(124,650,cs),
(95,650,o),
(75,634,o),
(77,604,cs),
(115,44,ls)
);
},
{
closed = 1;
nodes = (
(394,388,l),
(484,578,l),
(455,650,l),
(421,650,o),
(412,631,o),
(406,619,cs),
(226,257,l),
(141,75,l),
(169,0,l),
(200,0,o),
(208,14,o),
(220,39,cs)
);
},
{
closed = 1;
nodes = (
(458,15,o),
(485,0,o),
(505,0,c),
(540,74,l),
(534,267,l),
(508,610,ls),
(506,635,o),
(490,650,o),
(455,650,c),
(423,582,l),
(429,385,l),
(456,38,ls)
);
}
);
vertWidth = 0;
width = 800;
},
{
associatedMasterId = m01;
layerId = "0A5AEDD3-7312-4DBD-857C-C4F2C135CE12";
name = background;
shapes = (
{
closed = 1;
nodes = (
(506,0,o),
(511,11,o),
(518,25,cs),
(805,607,ls),
(813,622,o),
(816,635,o),
(813,640,cs),
(809,647,o),
(801,650,o),
(794,650,cs),
(786,650,o),
(780,649,o),
(776,646,cs),
(766,640,o),
(762,632,o),
(758,625,cs),
(526,155,l),
(468,31,l),
(488,0,l)
);
},
{
closed = 1;
nodes = (
(162,151,l),
(136,626,ls),
(135,636,o),
(131,650,o),
(109,650,c),
(91,650,o),
(85,639,o),
(86,624,cs),
(119,28,ls),
(120,12,o),
(131,0,o),
(152,0,c),
(168,37,l)
);
},
{
closed = 1;
nodes = (
(165,0,o),
(172,15,o),
(178,26,cs),
(416,510,l),
(469,619,l),
(447,650,l),
(431,650,o),
(421,635,o),
(417,626,cs),
(182,147,l),
(129,40,l),
(151,0,l)
);
},
{
closed = 1;
nodes = (
(505,157,l),
(477,626,ls),
(476,638,o),
(470,650,o),
(447,650,c),
(428,617,l),
(434,511,l),
(462,19,ls),
(463,6,o),
(471,0,o),
(489,0,c),
(508,30,l)
);
}
);
vertWidth = 0;
width = 500;
}
);
unicode = 87;
},
{
color = 6;
glyphname = X;
layers = (
{
layerId = m01;
shapes = (
{
closed = 1;
nodes = (
(-9,-3,o),
(10,-4,o),
(21,11,cs),
(225,292,l),
(240,302,l),
(463,609,ls),
(474,624,o),
(472,638,o),
(463,645,cs),
(453,653,o),
(434,652,o),
(423,637,cs),
(218,355,l),
(204,347,l),
(-22,38,ls),
(-31,26,o),
(-29,13,o),
(-20,6,cs)
);
},
{
closed = 1;
nodes = (
(353,7,o),
(362,20,o),
(353,44,cs),
(132,631,ls),
(125,650,o),
(106,654,o),
(94,649,cs),
(82,645,o),
(77,631,o),
(84,613,cs),
(302,28,ls),
(312,2,o),
(330,-4,o),
(342,2,cs)
);
}
);
vertWidth = 0;
width = 440;
},
{
layerId = m002;
shapes = (
{
closed = 1;
nodes = (
(12,-3,o),
(52,-8,o),
(69,16,cs),
(240,255,l),
(265,270,l),
(486,578,ls),
(503,602,o),
(499,623,o),
(481,639,cs),
(463,655,o),
(427,656,o),
(409,631,cs),
(226,377,l),
(199,359,l),
(-10,69,ls),
(-25,48,o),
(-25,29,o),
(-7,13,cs)
);
},
{
closed = 1;
nodes = (
(385,17,o),
(395,36,o),
(385,61,cs),
(173,623,ls),
(162,651,o),
(130,654,o),
(107,647,cs),
(81,637,o),
(72,617,o),
(84,586,cs),
(292,28,ls),
(303,-1,o),
(341,-6,o),
(364,6,cs)
);
}
);
vertWidth = 0;
width = 465;
}
);
unicode = 88;
},
{
color = 6;
glyphname = Y;
layers = (
{
layerId = m01;
shapes = (
{
closed = 1;
nodes = (
(449,654,o),
(431,650,o),
(422,637,cs),
(255,410,l),
(203,333,l),
(229,291,l),
(463,609,ls),
(473,623,o),
(471,638,o),
(460,646,cs)
);
},
{
closed = 1;
nodes = (
(194,0,o),
(198,15,o),
(200,25,cs),
(257,350,l),
(206,350,l),
(149,27,ls),
(146,12,o),
(154,0,o),
(172,0,cs)
);
},
{
closed = 1;
nodes = (
(87,643,o),
(83,628,o),
(89,613,cs),
(205,307,l),
(237,349,l),
(219,411,l),
(136,630,ls),
(130,647,o),
(113,653,o),
(100,648,cs)
);
}
);
vertWidth = 0;
width = 439;
},
{
layerId = m002;
shapes = (
{
closed = 1;
nodes = (
(451,659,o),
(421,659,o),
(401,632,cs),
(265,448,l),
(196,350,l),
(237,254,l),
(479,578,ls),
(500,606,o),
(490,633,o),
(471,646,cs)
);
},
{
closed = 1;
nodes = (
(218,-2,o),
(232,19,o),
(236,40,cs),
(293,371,l),
(192,371,l),
(136,49,ls),
(131,21,o),
(152,-2,o),
(184,-2,cs)
);
},
{
closed = 1;
nodes = (
(83,639,o),
(70,617,o),
(81,588,cs),
(208,266,l),
(275,340,l),
(236,450,l),
(170,621,ls),
(157,654,o),
(127,660,o),
(104,649,cs)
);
}
);
vertWidth = 0;
width = 457;
},
{
associatedMasterId = m01;
layerId = "00B86DF0-33AC-4F1C-ADC9-58C3EF72DD24";
name = background;
shapes = (
{
closed = 1;
nodes = (
(446,609,ls),
(451,616,o),
(454,623,o),
(454,629,cs),
(454,635,o),
(451,641,o),
(445,645,cs),
(438,650,o),
(431,651,o),
(425,650,cs),
(418,648,o),
(410,643,o),
(405,637,cs),
(181,333,l),
(212,291,l)
);
},
{
closed = 1;
nodes = (
(189,350,l),
(132,27,ls),
(129,12,o),
(137,0,o),
(155,0,cs),
(177,0,o),
(181,15,o),
(183,25,cs),
(240,350,l)
);
},
{
closed = 1;
nodes = (
(225,349,l),
(119,630,ls),
(116,638,o),
(109,645,o),
(102,648,cs),
(97,651,o),
(90,651,o),
(82,648,cs),
(74,645,o),
(69,640,o),
(68,634,cs),
(67,628,o),
(69,621,o),
(72,613,cs),
(188,307,l)
);
}
);
vertWidth = 0;
width = 500;
},
{
associatedMasterId = m002;
layerId = "ABE7B4F7-B3A0-4559-B244-B70180902683";
name = background;
shapes = (
{
closed = 1;
nodes = (
(434,653,o),
(416,653,o),
(406,653,c),
(395,650,o),
(380,642,o),
(373,632,cs),
(165,350,l),
(209,254,l),
(451,578,ls),
(459,589,o),
(463,599,o),
(463,611,cs),
(463,623,o),
(457,634,o),
(446,642,cs)
);
},
{
closed = 1;
nodes = (
(190,-2,o),
(204,19,o),
(208,40,cs),
(265,371,l),
(164,371,l),
(108,49,ls),
(103,21,o),
(124,-2,o),
(156,-2,cs)
);
},
{
closed = 1;
nodes = (
(61,643,o),
(50,632,o),
(47,619,cs),
(45,609,o),
(49,599,o),
(53,588,cs),
(180,266,l),
(250,340,l),
(142,621,ls),
(138,632,o),
(129,642,o),
(116,648,cs),
(107,653,o),
(89,654,o),
(76,649,cs)
);
}
);
vertWidth = 0;
width = 500;
}
);
unicode = 89;
},
{
color = 6;
glyphname = Z;
layers = (
{
layerId = m01;
shapes = (
{
closed = 1;
nodes = (
(-12,25,o),
(-6,0,o),
(15,0,cs),
(31,0,o),
(36,7,o),
(46,20,cs),
(476,608,ls),
(489,625,o),
(477,650,o),
(459,650,cs),
(448,650,o),
(441,644,o),
(432,632,cs),
(-1,40,ls)
);
},
{
closed = 1;
nodes = (
(377,35,o),
(371,46,o),
(351,46,cs),
(93,46,l),
(15,45,l),
(15,0,l),
(351,0,ls),
(371,0,o),
(377,11,o),
(377,23,cs)
);
},
{
closed = 1;
nodes = (
(98,615,o),
(104,604,o),
(124,604,cs),
(385,604,l),
(459,605,l),
(459,650,l),
(124,650,ls),
(104,650,o),
(98,639,o),
(98,627,cs)
);
}
);
vertWidth = 0;
width = 458;
},
{
layerId = m002;
shapes = (
{
closed = 1;
nodes = (
(-35,40,o),
(-6,0,o),
(24,0,cs),
(49,0,o),
(62,10,o),
(67,17,cs),
(485,577,ls),
(511,612,o),
(487,653,o),
(446,653,cs),
(430,653,o),
(417,644,o),
(409,633,cs),
(-8,76,ls)
);
},
{
closed = 1;
nodes = (
(406,69,o),
(386,90,o),
(356,90,cs),
(169,90,l),
(24,77,l),
(24,0,l),
(356,0,ls),
(388,0,o),
(406,19,o),
(406,43,cs)
);
},
{
closed = 1;
nodes = (
(80,583,o),
(98,563,o),
(130,563,cs),
(309,563,l),
(446,573,l),
(446,653,l),
(130,653,ls),
(100,653,o),
(80,633,o),
(80,607,cs)
);
}
);
vertWidth = 0;
width = 474;
}
);
unicode = 90;
},
{
color = 6;
glyphname = a;
kernLeft = o_left;
kernRight = n_right;
layers = (
{
layerId = m01;
shapes = (
{
closed = 1;
nodes = (
(101,-4,o),
(153,50,o),
(213,126,cs),
(243,163,o),
(285,235,o),
(304,300,c),
(273,300,l),
(245,253,o),
(212,205,o),
(171,153,cs),
(110,77,o),
(73,47,o),
(54,47,cs),
(40,47,o),
(40,62,o),
(40,78,cs),
(40,116,o),
(64,206,o),
(90,245,cs),
(120,290,o),
(171,300,o),
(205,300,cs),
(293,300,l),
(293,350,l),
(205,350,l),
(148,350,o),
(89,333,o),
(51,276,cs),
(19,228,o),
(-10,131,o),
(-10,73,cs),
(-10,22,o),
(10,-4,o),
(43,-4,cs)
);
},
{
closed = 1;
nodes = (
(279,0,o),
(281,18,o),
(282,23,cs),
(334,316,ls),
(338,339,o),
(330,350,o),
(307,350,cs),
(273,350,l),
(273,223,l),
(231,23,ls),
(229,15,o),
(231,0,o),
(253,0,cs)
);
}
);
vertWidth = 0;
width = 395;
},
{
layerId = m002;
shapes = (
{
closed = 1;
nodes = (
(122,-4,o),
(199,60,o),
(243,134,c),
(278,192,o),
(318,249,o),
(345,308,c),
(277,308,l),
(251,262,o),
(224,215,o),
(186,167,cs),
(133,101,o),
(106,84,o),
(101,84,cs),
(96,84,o),
(95,97,o),
(95,102,cs),
(95,134,o),
(110,194,o),
(129,224,cs),
(151,257,o),
(184,263,o),
(210,263,cs),
(296,263,l),
(296,350,l),
(210,350,ls),
(154,350,o),
(92,333,o),
(53,276,cs),
(22,228,o),
(1,139,o),
(1,85,cs),
(1,22,o),
(19,-4,o),
(58,-4,cs)
);
},
{
closed = 1;
nodes = (
(293,0,o),
(305,22,o),
(308,37,cs),
(353,295,ls),
(359,328,o),
(342,350,o),
(315,350,cs),
(250,350,l),
(250,252,l),
(213,44,ls),
(209,21,o),
(225,0,o),
(257,0,cs)
);
}
);
vertWidth = 0;
width = 400;
},
{
associatedMasterId = m01;
layerId = "0512CE0E-1919-4D4E-A8DF-3BC8F2425765";
name = background;
shapes = (
{
closed = 1;
nodes = (
(287,301,l),
(259,254,o),
(226,205,o),
(185,153,cs),
(124,77,o),
(87,47,o),
(68,47,cs),
(54,47,o),
(54,62,o),
(54,78,cs),
(54,116,o),
(72,206,o),
(98,245,cs),
(128,290,o),
(179,300,o),
(213,300,cs),
(220,300,o),
(288,300,o),
(307,300,c),
(307,350,l),
(295,350,o),
(233,350,o),
(213,350,cs),
(156,350,o),
(97,333,o),
(59,276,cs),
(27,228,o),
(4,131,o),
(4,73,cs),
(4,22,o),
(24,-4,o),
(57,-4,cs),
(115,-4,o),
(167,50,o),
(227,126,cs),
(257,163,o),
(313,236,o),
(329,291,cs),
(332,301,l)
);
},
{
closed = 1;
nodes = (
(350,329,o),
(350,337,o),
(347,342,cs),
(344,347,o),
(340,350,o),
(333,350,cs),
(287,350,l),
(287,261,l),
(245,23,ls),
(244,15,o),
(245,0,o),
(267,0,cs),
(293,0,o),
(295,18,o),
(296,23,cs),
(348,316,ls)
);
}
);
vertWidth = 0;
width = 500;
}
);
unicode = 97;
},
{
color = 6;
glyphname = b;
kernLeft = h_left;
kernRight = o_right;
layers = (
{
layerId = m01;
shapes = (
{
closed = 1;
nodes = (
(285,0,o),
(335,151,o),
(335,277,cs),
(335,328,o),
(313,354,o),
(277,354,cs),
(193,354,o),
(83,191,o),
(32,86,c),
(32,46,l),
(52,46,l),
(110,158,o),
(233,303,o),
(267,303,cs),
(285,303,o),
(286,289,o),
(286,267,cs),
(286,175,o),
(249,46,o),
(126,46,cs),
(32,46,l),
(32,0,l),
(126,0,ls)
);
},
{
closed = 1;
nodes = (
(52,0,l),
(52,97,l),
(146,621,ls),
(149,640,o),
(139,650,o),
(127,650,cs),
(114,650,o),
(100,641,o),
(96,621,cs),
(-10,22,ls),
(-12,10,o),
(-6,0,o),
(6,0,cs)
);
}
);
vertWidth = 0;
width = 384;
},
{
layerId = m002;
shapes = (
{
closed = 1;
nodes = (
(335,0,o),
(382,150,o),
(382,265,cs),
(382,331,o),
(354,354,o),
(313,354,cs),
(239,354,o),
(121,219,o),
(65,104,c),
(65,51,l),
(106,51,l),
(149,133,o),
(258,266,o),
(282,266,cs),
(287,266,o),
(288,255,o),
(288,246,cs),
(288,155,o),
(247,87,o),
(173,87,c),
(65,87,l),
(65,0,l),
(173,0,l)
);
},
{
closed = 1;
nodes = (
(111,0,l),
(107,101,l),
(202,599,ls),
(208,632,o),
(190,650,o),
(163,650,cs),
(143,650,o),
(115,640,o),
(109,607,cs),
(10,44,ls),
(5,18,o),
(23,0,o),
(50,0,cs)
);
}
);
vertWidth = 0;
width = 427;
},
{
associatedMasterId = m01;
layerId = "37741203-4949-4251-BBC6-E0723D02A970";
name = background;
shapes = (
{
closed = 1;
nodes = (
(126,0,ls),
(183,0,o),
(242,17,o),
(280,74,cs),
(312,122,o),
(335,219,o),
(335,277,cs),
(335,328,o),
(315,354,o),
(282,354,cs),
(224,354,o),
(172,300,o),
(135,253,cs),
(96,204,o),
(57,140,o),
(32,94,c),
(32,48,l),
(52,48,l),
(80,96,o),
(113,146,o),
(168,215,cs),
(215,274,o),
(252,303,o),
(267,303,cs),
(285,303,o),
(286,289,o),
(286,273,cs),
(286,243,o),
(267,144,o),
(241,105,cs),
(211,60,o),
(165,48,o),
(126,48,cs),
(32,48,l),
(32,0,l)
);
},
{
closed = 1;
nodes = (
(52,97,l),
(146,621,ls),
(149,640,o),
(139,650,o),
(127,650,cs),
(114,650,o),
(100,641,o),
(96,621,cs),
(-10,22,ls),
(-12,10,o),
(-6,0,o),
(6,0,cs),
(52,0,l)
);
}
);
vertWidth = 0;
width = 500;
},
{
associatedMasterId = m002;
layerId = "E0DABD11-634D-4846-BE24-CDDCCBAEB0AF";
name = background;
shapes = (
{
closed = 1;
nodes = (
(160,0,l),
(215,0,o),
(279,16,o),
(316,74,cs),
(347,122,o),
(369,211,o),
(369,265,cs),
(369,331,o),
(341,354,o),
(300,354,cs),
(239,354,o),
(177,291,o),
(146,254,cs),
(108,208,o),
(74,153,o),
(52,112,c),
(52,42,l),
(93,42,l),
(119,88,o),
(155,148,o),
(202,203,cs),
(242,250,o),
(262,266,o),
(269,266,cs),
(274,266,o),
(275,255,o),
(275,246,cs),
(275,222,o),
(262,155,o),
(240,125,cs),
(217,94,o),
(191,87,o),
(160,87,c),
(52,87,l),
(52,0,l)
);
},
{
closed = 1;
nodes = (
(101,101,l),
(189,599,ls),
(195,632,o),
(177,650,o),
(150,650,cs),
(130,650,o),
(102,640,o),
(96,607,cs),
(-3,44,ls),
(-8,18,o),
(10,0,o),
(37,0,cs),
(105,0,l)
);
}
);
vertWidth = 0;
width = 500;
}
);
unicode = 98;
},
{
color = 6;
glyphname = c;
kernLeft = o_left;
layers = (
{
layerId = m01;
shapes = (
{
closed = 1;
nodes = (
(139,-4,o),
(216,71,o),
(246,135,cs),
(252,147,o),
(244,160,o),
(233,165,cs),
(218,172,o),
(205,162,o),
(200,151,cs),
(185,119,o),
(125,47,o),
(75,47,cs),
(51,47,o),
(42,61,o),
(42,94,cs),
(42,116,o),
(61,207,o),
(87,245,cs),
(122,296,o),
(168,318,o),
(259,296,cs),
(272,293,o),
(281,310,o),
(281,319,cs),
(281,333,o),
(276,342,o),
(259,346,cs),
(159,367,o),
(87,334,o),
(47,276,cs),
(14,229,o),
(-8,131,o),
(-8,86,cs),
(-8,22,o),
(19,-4,o),
(67,-4,cs)
);
}
);
vertWidth = 0;
width = 301;
},
{
layerId = m002;
shapes = (
{
closed = 1;
nodes = (
(135,-4,o),
(211,44,o),
(258,117,cs),
(272,139,o),
(272,165,o),
(254,178,cs),
(236,191,o),
(202,187,o),
(184,164,cs),
(175,152,o),
(120,85,o),
(95,85,cs),
(87,85,o),
(87,99,o),
(87,104,cs),
(87,136,o),
(104,197,o),
(124,227,cs),
(145,260,o),
(196,269,o),
(254,269,cs),
(279,269,o),
(298,289,o),
(298,312,cs),
(298,333,o),
(279,354,o),
(254,354,cs),
(168,354,o),
(92,334,o),
(53,276,cs),
(22,228,o),
(1,139,o),
(1,85,cs),
(1,23,o),
(36,-4,o),
(74,-4,cs)
);
}
);
vertWidth = 0;
width = 329;
},
{
associatedMasterId = m01;
layerId = "46184994-1B49-4094-8A0D-A96E5DA8C5AF";
name = background;
shapes = (
{
closed = 1;
nodes = (
(97,-4,o),
(150,32,o),
(193,84,cs),
(205,99,o),
(219,117,o),
(230,132,cs),
(236,141,o),
(238,149,o),
(238,155,cs),
(238,168,o),
(226,175,o),
(217,175,cs),
(208,175,o),
(198,171,o),
(190,161,cs),
(181,150,o),
(169,134,o),
(159,121,cs),
(124,77,o),
(91,47,o),
(71,47,cs),
(60,47,o),
(54,59,o),
(54,78,cs),
(54,116,o),
(72,206,o),
(98,245,cs),
(128,290,o),
(179,300,o),
(248,300,cs),
(261,300,o),
(270,314,o),
(270,326,cs),
(270,337,o),
(261,350,o),
(248,350,cs),
(156,350,o),
(97,333,o),
(59,276,cs),
(27,228,o),
(4,131,o),
(4,73,cs),
(4,22,o),
(27,-4,o),
(59,-4,cs)
);
}
);
vertWidth = 0;
width = 500;
},
{
associatedMasterId = m002;
layerId = "6E5D3D0E-C8B9-4D84-8D71-16A53C56BEDD";
name = background;
shapes = (
{
closed = 1;
nodes = (
(163,-4,o),
(216,32,o),
(256,81,cs),
(269,96,o),
(282,114,o),
(291,126,cs),
(298,137,o),
(302,148,o),
(302,157,cs),
(302,182,o),
(279,197,o),
(258,197,cs),
(245,197,o),
(229,189,o),
(217,173,cs),
(208,162,o),
(199,150,o),
(191,139,cs),
(162,102,o),
(150,85,o),
(140,85,cs),
(132,85,o),
(132,99,o),
(132,104,cs),
(132,136,o),
(149,197,o),
(169,227,cs),
(190,260,o),
(228,265,o),
(286,265,cs),
(311,265,o),
(330,285,o),
(330,308,cs),
(330,329,o),
(311,350,o),
(286,350,cs),
(200,350,o),
(137,334,o),
(98,276,cs),
(67,228,o),
(46,139,o),
(46,85,cs),
(46,23,o),
(81,-4,o),
(119,-4,cs)
);
}
);
vertWidth = 0;
width = 500;
}
);
unicode = 99;
},
{
color = 6;
glyphname = d;
kernLeft = o_left;
layers = (
{
layerId = m01;
shapes = (
{
closed = 1;
nodes = (
(335,-6,o),
(360,16,o),
(381,50,cs),
(392,68,o),
(403,86,o),
(403,94,cs),
(403,109,o),
(393,117,o),
(382,117,cs),
(370,117,o),
(363,109,o),
(353,92,cs),
(347,82,ls),
(331,56,o),
(320,46,o),
(306,46,cs),
(293,46,o),
(296,101,o),
(302,132,cs),
(389,623,ls),
(392,642,o),
(382,650,o),
(369,650,cs),
(356,650,o),
(341,640,o),
(338,623,cs),
(253,146,ls),
(239,69,o),
(248,7,o),
(293,0,cs)
);
},
{
closed = 1;
nodes = (
(101,-4,o),
(155,53,o),
(203,113,cs),
(245,166,o),
(279,235,o),
(306,300,c),
(269,300,l),
(243,251,o),
(213,208,o),
(175,160,cs),
(113,80,o),
(73,46,o),
(54,46,cs),
(40,46,o),
(40,61,o),
(40,77,cs),
(40,115,o),
(60,204,o),
(86,243,cs),
(116,288,o),
(165,299,o),
(199,299,c),
(293,299,l),
(305,350,l),
(199,350,l),
(142,350,o),
(85,331,o),
(47,274,cs),
(15,226,o),
(-10,130,o),
(-10,72,cs),
(-10,21,o),
(10,-4,o),
(43,-4,cs)
);
}
);
vertWidth = 0;
width = 446;
},
{
layerId = m002;
shapes = (
{
closed = 1;
nodes = (
(380,0,o),
(406,21,o),
(436,57,cs),
(456,81,o),
(457,100,o),
(457,113,cs),
(457,140,o),
(437,153,o),
(415,153,cs),
(403,153,o),
(391,142,o),
(382,129,cs),
(367,108,ls),
(364,104,o),
(357,99,o),
(349,99,cs),
(341,99,o),
(337,113,o),
(343,146,cs),
(426,602,ls),
(432,635,o),
(410,650,o),
(382,650,cs),
(359,650,o),
(336,637,o),
(331,606,cs),
(268,238,ls),
(245,105,o),
(261,0,o),
(340,0,cs)
);
},
{
closed = 1;
nodes = (
(128,-4,o),
(196,46,o),
(246,107,cs),
(284,153,o),
(346,239,o),
(366,307,c),
(287,307,l),
(259,261,o),
(226,202,o),
(191,159,cs),
(148,106,o),
(110,84,o),
(102,84,cs),
(96,84,o),
(96,101,o),
(96,106,cs),
(96,132,o),
(111,197,o),
(131,226,cs),
(153,258,o),
(187,263,o),
(219,263,c),
(316,263,l),
(336,350,l),
(220,350,l),
(155,350,o),
(94,334,o),
(55,277,cs),
(24,229,o),
(1,138,o),
(1,84,cs),
(1,21,o),
(26,-4,o),
(65,-4,cs)
);
}
);
vertWidth = 0;
width = 503;
}
);
unicode = 100;
},
{
color = 6;
glyphname = e;
kernLeft = o_left;
layers = (
{
layerId = m01;
shapes = (
{
closed = 1;
nodes = (
(156,-4,o),
(203,50,o),
(214,64,cs),
(236,93,o),
(231,106,o),
(221,113,cs),
(210,121,o),
(195,122,o),
(176,97,cs),
(166,83,o),
(130,45,o),
(84,45,cs),
(52,45,o),
(40,64,o),
(42,98,cs),
(45,142,o),
(68,216,o),
(97,259,cs),
(121,294,o),
(155,303,o),
(180,303,cs),
(198,303,o),
(212,296,o),
(212,288,cs),
(212,271,o),
(189,251,o),
(127,212,cs),
(89,187,o),
(52,170,o),
(31,158,c),
(21,108,l),
(36,115,o),
(103,147,o),
(142,168,cs),
(226,213,o),
(264,265,o),
(264,302,cs),
(264,335,o),
(220,351,o),
(182,351,cs),
(135,351,o),
(86,328,o),
(56,284,cs),
(26,241,o),
(-2,167,o),
(-7,107,cs),
(-14,28,o),
(27,-4,o),
(83,-4,cs)
);
}
);
vertWidth = 0;
width = 304;
},
{
layerId = m002;
shapes = (
{
closed = 1;
nodes = (
(197,-4,o),
(246,47,o),
(254,58,cs),
(274,83,o),
(269,114,o),
(252,128,cs),
(233,143,o),
(207,135,o),
(186,110,cs),
(174,96,o),
(151,80,o),
(126,80,cs),
(105,80,o),
(95,102,o),
(95,118,cs),
(95,155,o),
(111,205,o),
(133,239,cs),
(150,265,o),
(178,286,o),
(194,286,cs),
(203,286,o),
(212,280,o),
(212,273,cs),
(212,259,o),
(194,234,o),
(153,210,cs),
(126,194,o),
(79,166,o),
(61,157,c),
(49,80,l),
(108,107,o),
(162,136,o),
(196,156,cs),
(243,183,o),
(301,244,o),
(301,280,cs),
(301,325,o),
(255,354,o),
(197,354,cs),
(149,354,o),
(94,337,o),
(58,285,cs),
(29,243,o),
(8,173,o),
(4,117,cs),
(-3,23,o),
(67,-4,o),
(119,-4,cs)
);
}
);
vertWidth = 0;
width = 337;
},
{
associatedMasterId = m01;
layerId = "3742B3E8-D857-4AD2-86DA-CF53D00404BC";
name = background;
shapes = (
{
closed = 1;
nodes = (
(41,115,o),
(103,147,o),
(141,168,cs),
(181,191,o),
(245,230,o),
(256,291,cs),
(263,332,o),
(221,354,o),
(170,354,cs),
(151,354,o),
(102,350,o),
(58,284,cs),
(29,240,o),
(2,167,o),
(-2,107,cs),
(-9,19,o),
(37,-4,o),
(85,-4,cs),
(158,-4,o),
(196,50,o),
(207,64,cs),
(229,93,o),
(224,106,o),
(214,113,cs),
(203,121,o),
(188,122,o),
(169,97,cs),
(158,84,o),
(132,45,o),
(86,45,cs),
(54,45,o),
(47,64,o),
(49,98,cs),
(52,142,o),
(70,216,o),
(99,259,cs),
(123,294,o),
(151,303,o),
(176,303,cs),
(194,303,o),
(207,296,o),
(205,288,cs),
(201,267,o),
(162,239,o),
(113,210,cs),
(88,196,o),
(60,181,o),
(38,169,c),
(26,108,l)
);
}
);
vertWidth = 0;
width = 500;
}
);
unicode = 101;
},
{
color = 6;
glyphname = f;
layers = (
{
layerId = m01;
shapes = (
{
closed = 1;
nodes = (
(70,0,o),
(77,15,o),
(79,27,cs),
(165,518,ls),
(172,558,o),
(201,600,o),
(234,600,cs),
(318,600,ls),
(335,600,o),
(343,614,o),
(343,625,cs),
(343,635,o),
(335,650,o),
(318,650,cs),
(234,650,ls),
(184,650,o),
(132,616,o),
(116,527,cs),
(28,28,ls),
(26,16,o),
(35,0,o),
(53,0,cs)
);
},
{
closed = 1;
nodes = (
(-15,316,o),
(-9,305,o),
(11,305,cs),
(205,305,ls),
(225,305,o),
(231,316,o),
(231,328,cs),
(231,340,o),
(225,350,o),
(205,350,cs),
(11,350,ls),
(-9,350,o),
(-15,340,o),
(-15,328,cs)
);
}
);
vertWidth = 0;
width = 230;
},
{
layerId = m002;
shapes = (
{
closed = 1;
nodes = (
(117,0,o),
(131,20,o),
(135,44,cs),
(216,502,ls),
(222,534,o),
(243,560,o),
(260,560,cs),
(348,560,ls),
(377,560,o),
(397,584,o),
(397,607,cs),
(397,629,o),
(377,650,o),
(348,650,cs),
(260,650,ls),
(202,650,o),
(140,614,o),
(123,519,cs),
(40,51,ls),
(36,28,o),
(56,0,o),
(90,0,cs)
);
},
{
closed = 1;
nodes = (
(-2,283,o),
(16,265,o),
(47,265,cs),
(230,265,ls),
(260,265,o),
(279,281,o),
(279,307,cs),
(279,331,o),
(262,350,o),
(230,350,cs),
(47,350,ls),
(16,350,o),
(-2,331,o),
(-2,307,cs)
);
}
);
vertWidth = 0;
width = 280;
},
{
associatedMasterId = m01;
layerId = "771454BB-5D08-4A3C-8FF8-B782C6700B6A";
name = background;
shapes = (
{
closed = 1;
nodes = (
(172,558,o),
(201,600,o),
(234,600,cs),
(318,600,ls),
(335,600,o),
(343,614,o),
(343,625,cs),
(343,635,o),
(335,650,o),
(318,650,cs),
(234,650,ls),
(184,650,o),
(132,616,o),
(116,527,cs),
(28,28,ls),
(26,16,o),
(35,0,o),
(53,0,cs),
(70,0,o),
(77,15,o),
(79,27,cs),
(165,518,ls)
);
},
{
closed = 1;
nodes = (
(225,305,o),
(231,316,o),
(231,328,cs),
(231,340,o),
(225,350,o),
(205,350,cs),
(11,350,ls),
(-9,350,o),
(-15,340,o),
(-15,328,cs),
(-15,316,o),
(-9,305,o),
(11,305,cs),
(205,305,ls)
);
}
);
vertWidth = 0;
width = 500;
}
);
unicode = 102;
},
{
color = 6;
glyphname = g;
kernLeft = o_left;
layers = (
{
layerId = m01;
shapes = (
{
closed = 1;
nodes = (
(-58,-290,o),
(-45,-299,o),
(-20,-299,cs),
(-2,-299,o),
(70,-295,o),
(103,-290,cs),
(157,-282,o),
(197,-254,o),
(222,-212,cs),
(255,-159,o),
(264,-83,o),
(279,1,cs),
(335,315,ls),
(339,338,o),
(331,350,o),
(312,350,cs),
(297,350,l),
(265,198,l),
(227,1,ls),
(214,-67,o),
(209,-138,o),
(180,-185,cs),
(162,-215,o),
(135,-236,o),
(89,-241,cs),
(66,-244,o),
(-9,-249,o),
(-24,-249,cs),
(-45,-249,o),
(-58,-261,o),
(-58,-275,cs)
);
},
{
closed = 1;
nodes = (
(-9,22,o),
(11,-4,o),
(44,-4,cs),
(106,-4,o),
(154,50,o),
(204,113,cs),
(244,163,o),
(278,240,o),
(304,301,c),
(274,301,l),
(245,254,o),
(212,205,o),
(176,159,cs),
(112,77,o),
(74,47,o),
(55,47,cs),
(46,47,o),
(41,57,o),
(41,78,cs),
(41,116,o),
(59,206,o),
(85,245,cs),
(115,290,o),
(166,300,o),
(200,300,cs),
(312,300,l),
(312,350,l),
(200,350,ls),
(143,350,o),
(84,333,o),
(46,276,cs),
(14,228,o),
(-9,131,o),
(-9,73,cs)
);
}
);
vertWidth = 0;
width = 401;
},
{
layerId = m002;
shapes = (
{
closed = 1;
nodes = (
(-62,-279,o),
(-41,-300,o),
(-1,-300,cs),
(17,-300,o),
(107,-294,o),
(139,-289,cs),
(197,-281,o),
(242,-253,o),
(268,-210,cs),
(302,-154,o),
(308,-80,o),
(322,-2,cs),
(374,292,ls),
(381,330,o),
(364,350,o),
(331,350,cs),
(291,350,l),
(265,192,l),
(232,6,ls),
(221,-58,o),
(210,-122,o),
(186,-161,cs),
(170,-187,o),
(154,-199,o),
(119,-203,cs),
(97,-206,o),
(8,-211,o),
(-5,-211,cs),
(-37,-211,o),
(-62,-229,o),
(-62,-255,cs)
);
},
{
closed = 1;
nodes = (
(3,22,o),
(36,-4,o),
(75,-4,cs),
(143,-4,o),
(195,54,o),
(225,92,cs),
(276,156,o),
(318,226,o),
(364,308,c),
(300,308,l),
(272,262,o),
(233,207,o),
(199,163,cs),
(163,117,o),
(113,84,o),
(103,84,cs),
(98,84,o),
(97,99,o),
(97,108,cs),
(97,123,o),
(112,197,o),
(134,228,cs),
(156,260,o),
(188,263,o),
(225,263,cs),
(323,263,l),
(323,350,l),
(225,350,ls),
(169,350,o),
(97,336,o),
(58,279,cs),
(27,231,o),
(3,151,o),
(3,85,cs)
);
}
);
vertWidth = 0;
width = 422;
},
{
associatedMasterId = m01;
layerId = "A6621916-736D-41DD-8A59-23E8498167AE";
name = background;
shapes = (
{
closed = 1;
nodes = (
(347,343,o),
(336,350,o),
(319,350,c),
(294,350,l),
(270,198,l),
(235,1,ls),
(223,-67,o),
(216,-138,o),
(187,-185,cs),
(169,-215,o),
(142,-236,o),
(96,-241,cs),
(73,-244,o),
(-19,-250,o),
(-34,-250,cs),
(-55,-250,o),
(-68,-262,o),
(-68,-276,cs),
(-68,-291,o),
(-55,-300,o),
(-30,-300,cs),
(-12,-300,o),
(77,-295,o),
(110,-290,cs),
(164,-282,o),
(204,-254,o),
(229,-212,cs),
(262,-159,o),
(271,-83,o),
(286,1,cs),
(344,326,ls)
);
},
{
closed = 1;
nodes = (
(281,301,l),
(252,254,o),
(219,205,o),
(181,157,cs),
(119,77,o),
(81,47,o),
(62,47,cs),
(48,47,o),
(48,62,o),
(48,78,cs),
(48,116,o),
(66,206,o),
(92,245,cs),
(122,290,o),
(173,300,o),
(207,300,cs),
(214,300,o),
(282,300,o),
(290,300,c),
(301,300,l),
(301,302,o),
(301,347,o),
(301,350,c),
(289,350,o),
(227,350,o),
(207,350,cs),
(150,350,o),
(91,333,o),
(53,276,cs),
(21,228,o),
(-2,131,o),
(-2,73,cs),
(-2,22,o),
(18,-4,o),
(51,-4,cs),
(113,-4,o),
(161,50,o),
(195,93,cs),
(251,163,o),
(299,240,o),
(322,292,cs),
(326,301,l)
);
},
{
closed = 1;
nodes = (
(347,343,o),
(336,350,o),
(319,350,c),
(294,350,l),
(270,198,l),
(235,1,ls),
(223,-67,o),
(216,-138,o),
(187,-185,cs),
(169,-215,o),
(142,-236,o),
(96,-241,cs),
(73,-244,o),
(-19,-250,o),
(-34,-250,cs),
(-55,-250,o),
(-68,-262,o),
(-68,-276,cs),
(-68,-291,o),
(-55,-300,o),
(-30,-300,cs),
(-12,-300,o),
(77,-295,o),
(110,-290,cs),
(164,-282,o),
(204,-254,o),
(229,-212,cs),
(262,-159,o),
(271,-83,o),
(286,1,cs),
(344,326,ls)
);
},
{
closed = 1;
nodes = (
(281,301,l),
(252,254,o),
(219,205,o),
(181,157,cs),
(119,77,o),
(81,47,o),
(62,47,cs),
(48,47,o),
(48,62,o),
(48,78,cs),
(48,116,o),
(66,206,o),
(92,245,cs),
(122,290,o),
(173,300,o),
(207,300,cs),
(214,300,o),
(282,300,o),
(290,300,c),
(301,300,l),
(301,302,o),
(301,347,o),
(301,350,c),
(289,350,o),
(227,350,o),
(207,350,cs),
(150,350,o),
(91,333,o),
(53,276,cs),
(21,228,o),
(-2,131,o),
(-2,73,cs),
(-2,22,o),
(18,-4,o),
(51,-4,cs),
(113,-4,o),
(161,50,o),
(195,93,cs),
(251,163,o),
(299,240,o),
(322,292,cs),
(326,301,l)
);
}
);
vertWidth = 0;
width = 500;
}
);
unicode = 103;
},
{
color = 6;
glyphname = h;
kernLeft = h_left;
kernRight = n_right;
layers = (
{
layerId = m01;
shapes = (
{
closed = 1;
nodes = (
(26,-3,o),
(32,4,o),
(38,15,c),
(146,623,ls),
(149,641,o),
(138,650,o),
(125,650,cs),
(112,650,o),
(98,641,o),
(95,623,cs),
(-8,36,ls),
(-12,14,o),
(-8,5,o),
(9,1,cs)
);
},
{
closed = 1;
nodes = (
(292,0,o),
(294,18,o),
(295,23,cs),
(334,234,ls),
(345,291,o),
(334,354,o),
(277,354,cs),
(183,354,o),
(87,185,o),
(29,98,c),
(38,15,l),
(104,126,o),
(218,305,o),
(269,305,cs),
(294,305,o),
(288,261,o),
(283,234,cs),
(244,23,ls),
(242,12,o),
(244,0,o),
(266,0,cs)
);
}
);
vertWidth = 0;
width = 395;
},
{
layerId = m002;
shapes = (
{
closed = 1;
nodes = (
(78,0,o),
(101,11,o),
(106,37,cs),
(205,601,ls),
(211,633,o),
(190,653,o),
(163,653,cs),
(139,653,o),
(114,637,o),
(109,609,cs),
(10,45,ls),
(5,17,o),
(27,0,o),
(54,0,cs)
);
},
{
closed = 1;
nodes = (
(333,0,o),
(350,22,o),
(353,37,cs),
(387,223,ls),
(399,287,o),
(375,354,o),
(307,354,cs),
(203,354,o),
(133,194,o),
(84,122,c),
(106,37,l),
(162,145,o),
(262,276,o),
(284,276,cs),
(298,276,o),
(298,256,o),
(293,231,cs),
(259,45,ls),
(255,21,o),
(268,0,o),
(297,0,cs)
);
}
);
vertWidth = 0;
width = 447;
}
);
unicode = 104;
},
{
color = 6;
glyphname = i;
layers = (
{
layerId = m01;
shapes = (
{
closed = 1;
nodes = (
(39,0,o),
(55,10,o),
(58,28,cs),
(110,320,ls),
(114,340,o),
(101,350,o),
(89,350,cs),
(76,350,o),
(60,341,o),
(57,323,cs),
(5,28,ls),
(2,9,o),
(14,0,o),
(27,0,cs)
);
},
{
closed = 1;
nodes = (
(127,427,o),
(142,444,o),
(142,463,cs),
(142,483,o),
(126,498,o),
(108,498,cs),
(88,498,o),
(75,481,o),
(75,463,cs),
(75,444,o),
(89,427,o),
(108,427,cs)
);
}
);
vertWidth = 0;
width = 173;
},
{
layerId = m002;
shapes = (
{
closed = 1;
nodes = (
(73,0,o),
(99,10,o),
(104,37,cs),
(149,294,ls),
(155,327,o),
(131,350,o),
(106,350,cs),
(82,350,o),
(60,332,o),
(55,305,cs),
(10,49,ls),
(5,19,o),
(25,0,o),
(51,0,cs)
);
},
{
closed = 1;
nodes = (
(163,413,o),
(188,437,o),
(188,466,cs),
(188,497,o),
(162,519,o),
(134,519,cs),
(104,519,o),
(82,495,o),
(82,466,cs),
(82,437,o),
(106,413,o),
(134,413,cs)
);
}
);
vertWidth = 0;
width = 213;
}
);
unicode = 105;
},
{
color = 6;
glyphname = j;
layers = (
{
layerId = m01;
shapes = (
{
closed = 1;
nodes = (
(-264,-292,o),
(-250,-300,o),
(-226,-300,cs),
(-207,-300,o),
(-157,-299,o),
(-124,-294,cs),
(-70,-286,o),
(-31,-257,o),
(-6,-217,cs),
(28,-163,o),
(37,-87,o),
(52,-3,cs),
(109,317,ls),
(113,338,o),
(100,350,o),
(86,350,cs),
(74,350,o),
(60,341,o),
(56,320,cs),
(1,-3,ls),
(-11,-71,o),
(-19,-142,o),
(-47,-189,cs),
(-65,-219,o),
(-92,-240,o),
(-140,-246,cs),
(-161,-248,o),
(-206,-250,o),
(-225,-250,cs),
(-251,-250,o),
(-264,-263,o),
(-264,-277,cs)
);
},
{
closed = 1;
nodes = (
(128,426,o),
(143,443,o),
(143,463,cs),
(143,484,o),
(128,499,o),
(109,499,cs),
(90,499,o),
(76,484,o),
(76,463,cs),
(76,443,o),
(90,426,o),
(109,426,cs)
);
}
);
vertWidth = 0;
width = 183;
},
{
layerId = m002;
shapes = (
{
closed = 1;
nodes = (
(-282,-282,o),
(-260,-300,o),
(-221,-300,cs),
(-202,-300,o),
(-117,-300,o),
(-85,-295,cs),
(-27,-285,o),
(17,-256,o),
(43,-215,cs),
(78,-158,o),
(81,-83,o),
(95,-5,cs),
(149,295,ls),
(155,330,o),
(135,350,o),
(108,350,cs),
(86,350,o),
(60,337,o),
(55,306,cs),
(3,3,ls),
(-8,-62,o),
(-15,-126,o),
(-38,-165,cs),
(-54,-190,o),
(-70,-203,o),
(-107,-208,cs),
(-126,-210,o),
(-203,-209,o),
(-220,-209,cs),
(-257,-209,o),
(-282,-231,o),
(-282,-257,cs)
);
},
{
closed = 1;
nodes = (
(163,413,o),
(188,437,o),
(188,466,cs),
(188,497,o),
(162,519,o),
(134,519,cs),
(104,519,o),
(82,495,o),
(82,466,cs),
(82,437,o),
(106,413,o),
(134,413,cs)
);
}
);
vertWidth = 0;
width = 213;
}
);
unicode = 106;
},
{
color = 6;
glyphname = k;
kernLeft = h_left;
layers = (
{
layerId = m01;
shapes = (
{
closed = 1;
nodes = (
(27,0,o),
(39,7,o),
(42,26,cs),
(147,621,ls),
(151,642,o),
(139,650,o),
(123,650,cs),
(108,650,o),
(99,639,o),
(96,622,cs),
(-9,26,ls),
(-12,10,o),
(-2,0,o),
(11,0,cs)
);
},
{
closed = 1;
nodes = (
(273,-1,o),
(283,5,o),
(286,16,cs),
(288,23,o),
(287,31,o),
(280,41,cs),
(197,161,l),
(275,203,o),
(303,243,o),
(303,293,cs),
(303,325,o),
(289,354,o),
(249,354,cs),
(188,354,o),
(112,285,o),
(49,188,c),
(23,39,l),
(87,222,o),
(211,304,o),
(234,304,cs),
(247,304,o),
(252,294,o),
(252,285,cs),
(252,252,o),
(233,234,o),
(159,192,cs),
(141,182,o),
(128,168,o),
(144,145,cs),
(233,18,ls),
(240,8,o),
(250,-1,o),
(263,-1,cs)
);
}
);
vertWidth = 0;
width = 358;
},
{
layerId = m002;
shapes = (
{
closed = 1;
nodes = (
(81,0,o),
(101,11,o),
(106,40,cs),
(204,599,ls),
(210,633,o),
(190,653,o),
(160,653,cs),
(137,653,o),
(114,638,o),
(109,608,cs),
(11,48,ls),
(6,19,o),
(27,0,o),
(54,0,cs)
);
},
{
closed = 1;
nodes = (
(335,0,o),
(355,13,o),
(359,33,c),
(363,45,o),
(361,57,o),
(351,71,cs),
(285,166,l),
(332,201,o),
(370,236,o),
(370,281,cs),
(370,315,o),
(338,354,o),
(283,354,cs),
(216,354,o),
(141,282,o),
(84,208,c),
(78,101,l),
(142,191,o),
(230,280,o),
(266,280,cs),
(274,280,o),
(281,274,o),
(281,267,cs),
(281,256,o),
(250,223,o),
(192,189,cs),
(178,180,o),
(172,165,o),
(181,152,cs),
(268,27,ls),
(279,11,o),
(297,0,o),
(315,0,cs)
);
}
);
vertWidth = 0;
width = 439;
},
{
associatedMasterId = m01;
layerId = "72543C3F-9967-439D-A7B0-5AA06D08102C";
name = background;
shapes = (
{
closed = 1;
nodes = (
(151,642,o),
(139,650,o),
(123,650,cs),
(108,650,o),
(99,639,o),
(96,622,cs),
(-9,26,ls),
(-12,10,o),
(-2,0,o),
(11,0,cs),
(27,0,o),
(39,7,o),
(42,26,cs),
(147,621,ls)
);
},
{
closed = 1;
nodes = (
(124,174,l),
(233,18,ls),
(240,8,o),
(250,-1,o),
(263,-1,cs),
(273,-1,o),
(283,5,o),
(286,16,cs),
(288,23,o),
(287,31,o),
(280,41,cs),
(188,174,l)
);
},
{
closed = 1;
nodes = (
(54,122,o),
(92,170,o),
(121,210,cs),
(138,234,o),
(162,258,o),
(180,273,cs),
(200,289,o),
(227,304,o),
(240,304,cs),
(256,304,o),
(253,279,o),
(251,271,cs),
(246,245,o),
(228,236,o),
(202,219,cs),
(182,205,o),
(153,189,o),
(124,174,c),
(181,146,l),
(200,158,o),
(218,169,o),
(235,181,cs),
(268,205,o),
(293,228,o),
(301,272,cs),
(307,310,o),
(299,354,o),
(250,354,cs),
(219,354,o),
(182,337,o),
(150,312,cs),
(123,291,o),
(68,225,o),
(51,201,c),
(23,39,l)
);
}
);
vertWidth = 0;
width = 500;
}
);
unicode = 107;
},
{
color = 6;
glyphname = l;
kernLeft = h_left;
layers = (
{
layerId = m01;
shapes = (
{
closed = 1;
nodes = (
(41,0,o),
(53,7,o),
(56,22,cs),
(162,624,ls),
(165,640,o),
(151,650,o),
(137,650,cs),
(126,650,o),
(114,644,o),
(111,629,cs),
(5,27,ls),
(2,9,o),
(16,0,o),
(30,0,cs)
);
}
);
vertWidth = 0;
width = 167;
},
{
layerId = m002;
shapes = (
{
closed = 1;
nodes = (
(89,0,o),
(115,15,o),
(120,44,cs),
(218,599,ls),
(224,631,o),
(197,650,o),
(169,650,cs),
(147,650,o),
(125,640,o),
(120,612,cs),
(21,50,ls),
(15,15,o),
(44,0,o),
(67,0,cs)
);
}
);
vertWidth = 0;
width = 221;
}
);
unicode = 108;
},
{
color = 6;
glyphname = m;
kernLeft = n_left;
kernRight = n_right;
layers = (
{
layerId = m01;
shapes = (
{
closed = 1;
nodes = (
(27,-2,o),
(32,5,o),
(36,11,c),
(94,323,ls),
(97,340,o),
(91,350,o),
(74,350,cs),
(55,350,o),
(46,342,o),
(43,323,cs),
(-7,36,ls),
(-11,15,o),
(-10,3,o),
(12,0,cs)
);
},
{
closed = 1;
nodes = (
(266,0,o),
(270,6,o),
(275,14,c),
(318,233,ls),
(329,290,o),
(323,353,o),
(262,353,cs),
(195,353,o),
(117,238,o),
(42,109,c),
(36,11,l),
(120,155,o),
(220,304,o),
(255,304,cs),
(280,304,o),
(274,260,o),
(269,233,cs),
(235,36,ls),
(231,15,o),
(231,0,o),
(252,0,cs)
);
},
{
closed = 1;
nodes = (
(514,0,o),
(520,11,o),
(522,23,cs),
(561,234,ls),
(572,291,o),
(564,354,o),
(503,354,cs),
(431,354,o),
(354,236,o),
(280,109,c),
(275,14,l),
(349,146,o),
(452,305,o),
(496,305,cs),
(521,305,o),
(515,261,o),
(510,234,cs),
(473,30,ls),
(470,15,o),
(471,0,o),
(493,0,c)
);
}
);
vertWidth = 0;
width = 622;
},
{
layerId = m002;
shapes = (
{
closed = 1;
nodes = (
(74,0,o),
(81,14,o),
(91,37,c),
(138,302,ls),
(143,332,o),
(132,350,o),
(100,350,cs),
(58,350,o),
(45,320,o),
(43,308,cs),
(-4,44,ls),
(-8,20,o),
(3,0,o),
(37,0,cs)
);
},
{
closed = 1;
nodes = (
(312,0,o),
(323,20,o),
(327,42,cs),
(360,222,ls),
(372,288,o),
(350,354,o),
(279,354,cs),
(189,354,o),
(122,226,o),
(80,155,c),
(91,37,l),
(119,117,o),
(226,276,o),
(259,276,cs),
(272,276,o),
(270,256,o),
(265,231,cs),
(231,44,ls),
(227,20,o),
(242,0,o),
(275,0,cs)
);
},
{
closed = 1;
nodes = (
(543,0,o),
(554,20,o),
(558,42,cs),
(591,222,ls),
(603,288,o),
(581,354,o),
(510,354,cs),
(420,354,o),
(353,226,o),
(311,155,c),
(322,37,l),
(350,117,o),
(457,276,o),
(490,276,cs),
(503,276,o),
(501,256,o),
(496,231,cs),
(462,44,ls),
(458,20,o),
(473,0,o),
(506,0,cs)
);
}
);
vertWidth = 0;
width = 656;
}
);
unicode = 109;
},
{
color = 6;
glyphname = n;
kernLeft = n_left;
kernRight = n_right;
layers = (
{
layerId = m01;
shapes = (
{
closed = 1;
nodes = (
(288,0,o),
(294,11,o),
(296,23,cs),
(335,234,ls),
(346,291,o),
(338,354,o),
(278,354,cs),
(199,354,o),
(120,242,o),
(42,114,c),
(36,11,l),
(105,126,o),
(219,305,o),
(270,305,cs),
(295,305,o),
(289,261,o),
(284,234,cs),
(247,30,ls),
(244,15,o),
(245,0,o),
(267,0,cs)
);
},
{
closed = 1;
nodes = (
(27,-2,o),
(30,3,o),
(36,11,c),
(94,323,ls),
(97,340,o),
(91,350,o),
(74,350,cs),
(54,350,o),
(46,341,o),
(43,323,cs),
(-7,36,ls),
(-11,15,o),
(-10,3,o),
(12,0,cs)
);
}
);
vertWidth = 0;
width = 396;
},
{
layerId = m002;
shapes = (
{
closed = 1;
nodes = (
(312,0,o),
(323,20,o),
(327,42,cs),
(360,222,ls),
(372,288,o),
(350,354,o),
(279,354,cs),
(189,354,o),
(122,226,o),
(80,155,c),
(91,37,l),
(119,117,o),
(226,276,o),
(259,276,cs),
(272,276,o),
(270,256,o),
(265,231,cs),
(231,44,ls),
(227,20,o),
(242,0,o),
(275,0,cs)
);
},
{
closed = 1;
nodes = (
(74,0,o),
(81,14,o),
(91,37,c),
(138,302,ls),
(143,332,o),
(132,350,o),
(100,350,cs),
(58,350,o),
(45,320,o),
(43,308,cs),
(-4,44,ls),
(-8,20,o),
(3,0,o),
(37,0,cs)
);
}
);
vertWidth = 0;
width = 420;
}
);
unicode = 110;
},
{
color = 6;
glyphname = o;
kernLeft = o_left;
kernRight = o_right;
layers = (
{
layerId = m01;
shapes = (
{
closed = 1;
nodes = (
(173,-7,o),
(284,145,o),
(284,251,cs),
(284,310,o),
(235,351,o),
(169,351,cs),
(66,351,o),
(-8,227,o),
(-8,106,cs),
(-8,30,o),
(31,-7,o),
(76,-7,cs)
);
},
{
closed = 1;
nodes = (
(59,45,o),
(40,62,o),
(40,110,cs),
(40,209,o),
(112,303,o),
(173,303,cs),
(212,303,o),
(232,276,o),
(232,245,cs),
(232,162,o),
(137,45,o),
(88,45,cs)
);
}
);
vertWidth = 0;
width = 331;
},
{
layerId = m002;
shapes = (
{
closed = 1;
nodes = (
(216,-4,o),
(309,152,o),
(326,250,cs),
(337,314,o),
(270,354,o),
(194,354,cs),
(90,354,o),
(5,236,o),
(5,104,cs),
(5,24,o),
(53,-4,o),
(103,-4,cs)
);
},
{
closed = 1;
nodes = (
(107,83,o),
(99,94,o),
(99,113,cs),
(99,163,o),
(149,264,o),
(192,264,cs),
(212,264,o),
(234,255,o),
(231,236,cs),
(222,185,o),
(154,83,o),
(113,83,cs)
);
}
);
vertWidth = 0;
width = 367;
},
{
associatedMasterId = m01;
layerId = "6491E05C-A2DC-4376-A9DE-20EAB5F87DDF";
name = background;
shapes = (
{
closed = 1;
nodes = (
(170,-4,o),
(255,142,o),
(276,260,cs),
(286,319,o),
(241,351,o),
(171,351,cs),
(112,351,o),
(73,314,o),
(49,271,cs),
(31,237,o),
(2,170,o),
(2,95,cs),
(2,20,o),
(27,-4,o),
(67,-4,cs)
);
},
{
closed = 1;
nodes = (
(52,46,o),
(52,77,o),
(52,105,cs),
(52,152,o),
(71,203,o),
(95,251,cs),
(116,287,o),
(138,301,o),
(168,301,cs),
(208,301,o),
(233,287,o),
(226,247,cs),
(215,187,o),
(136,46,o),
(79,46,cs)
);
}
);
vertWidth = 0;
width = 500;
},
{
associatedMasterId = m002;
layerId = "AF270A96-4FF4-46EF-B70C-9E9AC1223539";
name = background;
shapes = (
{
closed = 1;
nodes = (
(219,-4,o),
(312,152,o),
(329,250,cs),
(340,314,o),
(278,352,o),
(202,352,cs),
(137,352,o),
(86,312,o),
(63,270,cs),
(46,238,o),
(13,174,o),
(13,104,cs),
(13,24,o),
(61,-4,o),
(111,-4,cs)
);
},
{
closed = 1;
nodes = (
(115,83,o),
(112,94,o),
(112,113,cs),
(112,151,o),
(132,190,o),
(154,230,cs),
(169,257,o),
(184,264,o),
(200,264,cs),
(220,264,o),
(232,255,o),
(229,236,cs),
(220,185,o),
(157,83,o),
(121,83,cs)
);
}
);
vertWidth = 0;
width = 500;
}
);
unicode = 111;
},
{
color = 6;
glyphname = p;
kernLeft = n_left;
kernRight = o_right;
layers = (
{
layerId = m01;
shapes = (
{
closed = 1;
nodes = (
(-29,-300,o),
(-15,-292,o),
(-12,-277,cs),
(95,327,ls),
(98,342,o),
(86,350,o),
(73,350,cs),
(61,350,o),
(47,342,o),
(44,327,cs),
(-63,-276,ls),
(-66,-292,o),
(-54,-300,o),
(-41,-300,cs)
);
},
{
closed = 1;
nodes = (
(336,328,o),
(316,354,o),
(277,354,cs),
(194,354,o),
(71,193,o),
(18,49,c),
(54,49,l),
(89,139,o),
(232,303,o),
(268,303,cs),
(286,303,o),
(286,288,o),
(286,272,cs),
(286,118,o),
(210,49,o),
(121,49,c),
(29,49,l),
(22,0,l),
(121,0,l),
(257,0,o),
(336,117,o),
(336,277,cs)
);
}
);
vertWidth = 0;
width = 384;
},
{
layerId = m002;
shapes = (
{
closed = 1;
nodes = (
(10,-303,o),
(34,-288,o),
(38,-263,cs),
(137,299,ls),
(142,327,o),
(125,350,o),
(98,350,cs),
(75,350,o),
(47,335,o),
(43,310,cs),
(-56,-254,ls),
(-61,-283,o),
(-40,-303,o),
(-13,-303,cs)
);
},
{
closed = 1;
nodes = (
(365,328,o),
(344,354,o),
(301,354,cs),
(209,354,o),
(52,179,o),
(29,42,c),
(81,42,l),
(125,127,o),
(237,266,o),
(264,266,cs),
(269,266,o),
(270,256,o),
(270,251,cs),
(270,165,o),
(233,87,o),
(161,87,c),
(54,87,l),
(54,0,l),
(161,0,l),
(322,0,o),
(365,149,o),
(365,265,cs)
);
}
);
vertWidth = 0;
width = 410;
},
{
associatedMasterId = m01;
layerId = "C5E65A12-CFD6-4074-8D2D-A044A2730983";
name = background;
shapes = (
{
closed = 1;
nodes = (
(98,342,o),
(86,350,o),
(73,350,cs),
(61,350,o),
(47,342,o),
(44,327,cs),
(-63,-276,ls),
(-66,-292,o),
(-54,-300,o),
(-41,-300,cs),
(-29,-300,o),
(-15,-292,o),
(-12,-277,cs),
(95,327,ls)
);
},
{
closed = 1;
nodes = (
(53,49,l),
(81,96,o),
(114,145,o),
(169,214,cs),
(216,273,o),
(253,303,o),
(268,303,cs),
(286,303,o),
(286,288,o),
(286,272,cs),
(286,235,o),
(268,144,o),
(242,105,cs),
(212,60,o),
(161,50,o),
(127,50,cs),
(120,50,o),
(52,50,o),
(44,50,c),
(33,50,l),
(33,48,o),
(33,3,o),
(33,0,c),
(45,0,o),
(107,0,o),
(127,0,cs),
(184,0,o),
(243,17,o),
(281,74,cs),
(313,122,o),
(336,219,o),
(336,277,cs),
(336,328,o),
(316,354,o),
(283,354,cs),
(225,354,o),
(173,300,o),
(136,253,cs),
(83,187,o),
(32,114,o),
(12,60,cs),
(8,49,l)
);
}
);
vertWidth = 0;
width = 500;
},
{
associatedMasterId = m002;
layerId = "B1845866-02A6-4379-95E0-649BA73078AC";
name = background;
shapes = (
{
closed = 1;
nodes = (
(17,-303,o),
(41,-288,o),
(45,-263,cs),
(144,299,ls),
(149,327,o),
(132,350,o),
(105,350,cs),
(82,350,o),
(54,335,o),
(50,310,cs),
(-49,-254,ls),
(-54,-283,o),
(-33,-303,o),
(-6,-303,cs)
);
},
{
closed = 1;
nodes = (
(372,332,o),
(351,354,o),
(308,354,cs),
(249,354,o),
(175,290,o),
(140,243,cs),
(90,176,o),
(46,120,o),
(26,42,c),
(96,42,l),
(128,96,o),
(157,147,o),
(201,201,cs),
(240,249,o),
(267,266,o),
(271,266,cs),
(276,266,o),
(277,256,o),
(277,251,cs),
(277,220,o),
(264,158,o),
(245,129,cs),
(222,95,o),
(192,87,o),
(168,87,c),
(61,87,l),
(61,0,l),
(168,0,l),
(215,0,o),
(280,16,o),
(319,73,cs),
(350,121,o),
(372,211,o),
(372,265,cs)
);
}
);
vertWidth = 0;
width = 500;
}
);
unicode = 112;
},
{
color = 6;
glyphname = q;
kernLeft = o_left;
layers = (
{
background = {
shapes = (
{
closed = 1;
nodes = (
(274,301,l),
(246,254,o),
(213,205,o),
(172,153,cs),
(111,77,o),
(74,47,o),
(55,47,cs),
(41,47,o),
(41,62,o),
(41,78,cs),
(41,116,o),
(59,206,o),
(85,245,cs),
(115,290,o),
(166,300,o),
(200,300,cs),
(207,300,o),
(275,300,o),
(283,300,c),
(294,300,l),
(294,302,o),
(294,347,o),
(294,350,c),
(282,350,o),
(220,350,o),
(200,350,cs),
(143,350,o),
(84,333,o),
(46,276,cs),
(14,228,o),
(-9,131,o),
(-9,73,cs),
(-9,22,o),
(11,-4,o),
(44,-4,cs),
(102,-4,o),
(154,50,o),
(195,101,cs),
(244,163,o),
(292,240,o),
(315,292,cs),
(319,301,l)
);
},
{
closed = 1;
nodes = (
(216,-294,l),
(324,-205,ls),
(336,-195,o),
(341,-185,o),
(343,-176,cs),
(344,-164,o),
(336,-154,o),
(323,-154,cs),
(315,-153,o),
(304,-157,o),
(292,-167,cs),
(210,-235,l)
);
},
{
closed = 1;
nodes = (
(338,335,o),
(337,350,o),
(315,350,cs),
(290,350,l),
(179,-273,ls),
(176,-291,o),
(186,-300,o),
(198,-300,cs),
(211,-300,o),
(226,-291,o),
(229,-273,cs),
(337,327,ls)
);
}
);
};
layerId = m01;
shapes = (
{
closed = 1;
nodes = (
(-9,22,o),
(11,-4,o),
(44,-4,cs),
(102,-4,o),
(153,51,o),
(204,114,c),
(243,164,o),
(285,242,o),
(314,300,c),
(274,300,l),
(246,253,o),
(213,205,o),
(172,153,cs),
(111,77,o),
(74,47,o),
(55,47,cs),
(41,47,o),
(41,62,o),
(41,78,cs),
(41,116,o),
(59,206,o),
(85,245,cs),
(115,290,o),
(166,300,o),
(200,300,cs),
(294,300,l),
(294,350,l),
(200,350,ls),
(143,350,o),
(84,333,o),
(46,276,cs),
(14,228,o),
(-9,131,o),
(-9,73,cs)
);
},
{
closed = 1;
nodes = (
(330,-152,o),
(312,-151,o),
(297,-164,cs),
(210,-235,l),
(227,-285,l),
(329,-201,ls),
(344,-189,o),
(346,-171,o),
(338,-162,cs)
);
},
{
closed = 1;
nodes = (
(208,-300,o),
(218,-292,o),
(227,-285,c),
(335,318,ls),
(339,339,o),
(333,350,o),
(311,350,cs),
(291,350,l),
(179,-273,ls),
(176,-291,o),
(186,-300,o),
(198,-300,cs)
);
}
);
vertWidth = 0;
width = 395;
},
{
layerId = m002;
shapes = (
{
closed = 1;
nodes = (
(2,22,o),
(20,-4,o),
(59,-4,cs),
(122,-4,o),
(187,57,o),
(241,124,cs),
(287,182,o),
(316,222,o),
(340,306,c),
(279,306,l),
(253,261,o),
(227,215,o),
(189,167,cs),
(136,101,o),
(111,87,o),
(102,87,cs),
(97,87,o),
(96,100,o),
(96,105,cs),
(96,137,o),
(110,194,o),
(130,224,cs),
(151,256,o),
(182,263,o),
(210,263,cs),
(308,263,l),
(308,350,l),
(210,350,ls),
(155,350,o),
(92,332,o),
(54,275,cs),
(22,228,o),
(2,139,o),
(2,85,cs)
);
},
{
closed = 1;
nodes = (
(355,-115,o),
(329,-110,o),
(306,-130,cs),
(227,-197,l),
(270,-274,l),
(360,-196,ls),
(384,-175,o),
(381,-149,o),
(369,-133,cs)
);
},
{
closed = 1;
nodes = (
(238,-300,o),
(253,-288,o),
(269,-274,c),
(370,306,ls),
(374,328,o),
(359,350,o),
(326,350,cs),
(290,350,l),
(180,-248,ls),
(174,-280,o),
(190,-300,o),
(217,-300,cs)
);
}
);
vertWidth = 0;
width = 433;
},
{
associatedMasterId = m002;
layerId = "1A9BECE9-190F-4D17-94FB-A85EFEAAD8FB";
name = background;
shapes = (
{
closed = 1;
nodes = (
(320,306,l),
(294,261,o),
(268,215,o),
(230,167,cs),
(177,101,o),
(151,87,o),
(146,87,cs),
(141,87,o),
(140,100,o),
(140,105,cs),
(140,137,o),
(154,194,o),
(174,224,cs),
(195,256,o),
(226,263,o),
(254,263,cs),
(260,263,o),
(320,263,o),
(327,263,cs),
(362,263,l),
(362,288,o),
(362,328,o),
(362,350,c),
(339,350,o),
(274,350,o),
(254,350,cs),
(199,350,o),
(136,332,o),
(98,275,cs),
(66,228,o),
(46,139,o),
(46,85,cs),
(46,22,o),
(64,-4,o),
(103,-4,cs),
(166,-4,o),
(233,51,o),
(287,118,cs),
(333,176,o),
(365,223,o),
(378,269,cs),
(389,307,l)
);
},
{
closed = 1;
nodes = (
(314,-274,l),
(395,-205,ls),
(410,-192,o),
(421,-179,o),
(423,-166,cs),
(427,-141,o),
(407,-122,o),
(382,-121,cs),
(369,-120,o),
(353,-125,o),
(337,-138,cs),
(268,-195,l)
);
},
{
closed = 1;
nodes = (
(282,-300,o),
(298,-288,o),
(314,-274,c),
(415,306,ls),
(419,328,o),
(403,350,o),
(370,350,cs),
(325,350,l),
(219,-248,ls),
(213,-280,o),
(234,-300,o),
(261,-300,cs)
);
}
);
vertWidth = 0;
width = 500;
}
);
unicode = 113;
},
{
color = 6;
glyphname = r;
kernLeft = n_left;
layers = (
{
layerId = m01;
shapes = (
{
closed = 1;
nodes = (
(296,239,o),
(303,253,o),
(303,265,cs),
(303,312,o),
(278,354,o),
(241,354,cs),
(191,354,o),
(133,309,o),
(43,161,c),
(26,55,l),
(137,246,o),
(211,301,o),
(233,301,cs),
(247,301,o),
(252,279,o),
(252,261,cs),
(252,248,o),
(264,237,o),
(279,238,cs)
);
},
{
closed = 1;
nodes = (
(25,0,o),
(39,9,o),
(42,27,cs),
(93,320,ls),
(96,340,o),
(85,350,o),
(72,350,cs),
(60,350,o),
(46,341,o),
(43,323,cs),
(-9,27,ls),
(-12,9,o),
(-1,0,o),
(12,0,cs)
);
}
);
vertWidth = 0;
width = 312;
},
{
layerId = m002;
shapes = (
{
closed = 1;
nodes = (
(323,211,o),
(337,228,o),
(337,256,cs),
(337,297,o),
(314,354,o),
(265,354,cs),
(193,354,o),
(140,287,o),
(79,201,c),
(69,46,l),
(149,187,o),
(213,258,o),
(236,258,cs),
(245,258,o),
(251,250,o),
(253,244,cs),
(259,224,o),
(276,211,o),
(299,211,cs)
);
},
{
closed = 1;
nodes = (
(65,0,o),
(86,14,o),
(91,41,cs),
(136,297,ls),
(142,329,o),
(121,350,o),
(95,350,cs),
(73,350,o),
(47,336,o),
(42,309,cs),
(-4,48,ls),
(-9,18,o),
(16,0,o),
(42,0,cs)
);
}
);
vertWidth = 0;
width = 362;
},
{
associatedMasterId = m01;
layerId = "29C4557D-BF25-4EEA-B9D7-33822A13039B";
name = background;
shapes = (
{
closed = 1;
nodes = (
(93,163,o),
(115,194,o),
(144,228,cs),
(162,249,o),
(186,275,o),
(207,289,cs),
(220,298,o),
(227,301,o),
(233,301,cs),
(244,301,o),
(252,271,o),
(253,268,cs),
(258,249,o),
(266,241,o),
(281,241,cs),
(300,241,o),
(304,253,o),
(303,265,cs),
(302,281,o),
(291,329,o),
(275,341,cs),
(270,345,o),
(258,354,o),
(237,354,cs),
(224,354,o),
(205,348,o),
(183,334,cs),
(166,323,o),
(140,300,o),
(113,271,cs),
(97,254,o),
(79,233,o),
(70,216,c),
(48,91,l)
);
},
{
closed = 1;
nodes = (
(96,340,o),
(85,350,o),
(72,350,cs),
(60,350,o),
(46,341,o),
(43,323,cs),
(-9,27,ls),
(-12,9,o),
(-1,0,o),
(12,0,cs),
(25,0,o),
(39,9,o),
(42,27,cs),
(93,320,ls)
);
}
);
vertWidth = 0;
width = 500;
},
{
associatedMasterId = m002;
layerId = "7ED098A4-EECC-4DF3-A192-66B5C788B14F";
name = background;
shapes = (
{
closed = 1;
nodes = (
(323,211,o),
(337,228,o),
(337,256,cs),
(337,274,o),
(328,319,o),
(306,338,cs),
(300,344,o),
(283,354,o),
(265,354,cs),
(242,354,o),
(203,348,o),
(179,333,cs),
(162,322,o),
(136,300,o),
(113,274,cs),
(96,257,o),
(79,239,o),
(69,227,c),
(69,46,l),
(108,109,o),
(154,180,o),
(167,196,cs),
(180,212,o),
(195,228,o),
(206,239,cs),
(215,248,o),
(240,258,o),
(243,258,cs),
(248,258,o),
(251,250,o),
(253,244,cs),
(259,224,o),
(276,211,o),
(299,211,cs)
);
},
{
closed = 1;
nodes = (
(65,0,o),
(91,14,o),
(96,41,cs),
(141,297,ls),
(147,329,o),
(121,350,o),
(95,350,cs),
(73,350,o),
(47,336,o),
(42,309,cs),
(-4,48,ls),
(-9,18,o),
(16,0,o),
(42,0,cs)
);
},
{
closed = 1;
nodes = (
(323,211,o),
(337,228,o),
(337,256,cs),
(337,274,o),
(328,319,o),
(306,338,cs),
(300,344,o),
(283,354,o),
(265,354,cs),
(242,354,o),
(203,348,o),
(179,333,cs),
(162,322,o),
(136,300,o),
(113,274,cs),
(96,257,o),
(79,239,o),
(69,227,c),
(69,46,l),
(108,109,o),
(154,180,o),
(167,196,cs),
(180,212,o),
(195,228,o),
(206,239,cs),
(215,248,o),
(240,258,o),
(243,258,cs),
(248,258,o),
(251,250,o),
(253,244,cs),
(259,224,o),
(276,211,o),
(299,211,cs)
);
},
{
closed = 1;
nodes = (
(65,0,o),
(91,14,o),
(96,41,cs),
(141,297,ls),
(147,329,o),
(121,350,o),
(95,350,cs),
(73,350,o),
(47,336,o),
(42,309,cs),
(-4,48,ls),
(-9,18,o),
(16,0,o),
(42,0,cs)
);
}
);
vertWidth = 0;
width = 500;
}
);
unicode = 114;
},
{
color = 6;
glyphname = s;
layers = (
{
layerId = m01;
shapes = (
{
closed = 1;
nodes = (
(187,0,o),
(229,46,o),
(229,91,cs),
(229,129,o),
(208,152,o),
(180,171,cs),
(101,226,ls),
(85,237,o),
(68,251,o),
(68,266,cs),
(68,285,o),
(80,300,o),
(126,300,cs),
(230,300,ls),
(243,300,o),
(258,308,o),
(258,325,cs),
(258,349,o),
(243,350,o),
(215,350,cs),
(130,350,ls),
(56,350,o),
(18,313,o),
(18,266,cs),
(18,224,o),
(44,198,o),
(73,179,cs),
(147,129,ls),
(162,119,o),
(175,106,o),
(175,89,cs),
(175,68,o),
(157,50,o),
(110,50,cs),
(1,50,ls),
(-15,50,o),
(-30,45,o),
(-30,25,cs),
(-30,6,o),
(-15,0,o),
(0,0,cs),
(100,0,ls)
);
}
);
vertWidth = 0;
width = 303;
},
{
layerId = m002;
shapes = (
{
closed = 1;
nodes = (
(169,0,o),
(242,18,o),
(254,87,cs),
(261,127,o),
(242,164,o),
(218,181,cs),
(137,237,ls),
(126,245,o),
(122,250,o),
(122,254,cs),
(122,258,o),
(135,262,o),
(156,262,cs),
(241,262,ls),
(265,262,o),
(290,278,o),
(290,306,cs),
(290,339,o),
(267,350,o),
(227,350,cs),
(156,350,ls),
(92,350,o),
(31,314,o),
(28,253,cs),
(27,208,o),
(57,182,o),
(85,163,cs),
(148,121,ls),
(157,115,o),
(161,110,o),
(159,101,cs),
(157,88,o),
(144,87,o),
(110,87,cs),
(42,87,ls),
(13,87,o),
(-10,72,o),
(-10,43,cs),
(-10,15,o),
(12,0,o),
(41,0,cs),
(110,0,ls)
);
}
);
vertWidth = 0;
width = 324;
},
{
associatedMasterId = m01;
layerId = "3A55E839-CDD0-4DB3-9202-B90C4BA29980";
name = background;
shapes = (
{
closed = 1;
nodes = (
(152,0,o),
(214,16,o),
(224,80,cs),
(230,117,o),
(216,144,o),
(197,159,cs),
(178,174,o),
(138,200,o),
(106,226,cs),
(91,238,o),
(77,251,o),
(77,263,cs),
(77,281,o),
(112,300,o),
(144,300,cs),
(239,300,ls),
(252,300,o),
(267,308,o),
(267,325,cs),
(267,349,o),
(252,350,o),
(224,350,cs),
(144,350,ls),
(84,350,o),
(29,316,o),
(27,262,cs),
(26,224,o),
(52,202,o),
(80,182,cs),
(107,163,o),
(140,143,o),
(154,132,cs),
(167,121,o),
(177,107,o),
(174,88,cs),
(169,55,o),
(133,50,o),
(92,50,cs),
(17,50,ls),
(1,50,o),
(-14,45,o),
(-14,25,cs),
(-14,6,o),
(1,0,o),
(16,0,cs),
(92,0,ls)
);
}
);
vertWidth = 0;
width = 500;
}
);
unicode = 115;
},
{
color = 6;
glyphname = t;
layers = (
{
layerId = m01;
shapes = (
{
closed = 1;
nodes = (
(70,0,o),
(83,7,o),
(86,23,cs),
(176,540,ls),
(179,558,o),
(165,568,o),
(151,568,cs),
(140,568,o),
(130,561,o),
(127,547,cs),
(34,24,ls),
(31,8,o),
(44,0,o),
(57,0,cs)
);
},
{
closed = 1;
nodes = (
(-8,316,o),
(-2,305,o),
(18,305,cs),
(221,305,ls),
(241,305,o),
(247,316,o),
(247,328,cs),
(247,340,o),
(241,350,o),
(221,350,cs),
(18,350,ls),
(-2,350,o),
(-8,340,o),
(-8,328,cs)
);
}
);
vertWidth = 0;
width = 241;
},
{
layerId = m002;
shapes = (
{
closed = 1;
nodes = (
(131,0,o),
(149,9,o),
(154,35,cs),
(240,523,ls),
(246,557,o),
(221,568,o),
(194,568,cs),
(172,568,o),
(149,555,o),
(145,532,cs),
(59,44,ls),
(53,12,o),
(80,0,o),
(106,0,cs)
);
},
{
closed = 1;
nodes = (
(15,283,o),
(33,265,o),
(65,265,cs),
(255,265,ls),
(287,265,o),
(305,283,o),
(305,307,cs),
(305,332,o),
(287,350,o),
(255,350,cs),
(65,350,ls),
(33,350,o),
(15,332,o),
(15,307,cs)
);
}
);
vertWidth = 0;
width = 316;
}
);
unicode = 116;
},
{
color = 6;
glyphname = u;
kernLeft = n_left;
kernRight = n_right;
layers = (
{
layerId = m01;
shapes = (
{
closed = 1;
nodes = (
(148,-4,o),
(254,169,o),
(308,260,c),
(303,337,l),
(234,222,o),
(120,45,o),
(69,45,cs),
(44,45,o),
(50,89,o),
(55,116,cs),
(91,321,ls),
(94,340,o),
(83,350,o),
(71,350,cs),
(58,350,o),
(43,341,o),
(40,322,cs),
(4,116,ls),
(-6,59,o),
(1,-4,o),
(59,-4,cs)
);
},
{
closed = 1;
nodes = (
(277,-1,o),
(291,7,o),
(295,31,cs),
(347,323,ls),
(350,340,o),
(346,350,o),
(329,350,cs),
(314,350,o),
(308,345,o),
(303,337,c),
(244,31,ls),
(240,12,o),
(252,-1,o),
(266,-1,cs)
);
}
);
vertWidth = 0;
width = 408;
},
{
layerId = m002;
shapes = (
{
closed = 1;
nodes = (
(179,-4,o),
(246,124,o),
(288,195,c),
(277,313,l),
(249,233,o),
(142,74,o),
(109,74,cs),
(96,74,o),
(98,94,o),
(103,119,cs),
(137,306,ls),
(141,330,o),
(126,350,o),
(93,350,cs),
(56,350,o),
(45,330,o),
(41,308,cs),
(8,128,ls),
(-4,62,o),
(18,-4,o),
(89,-4,cs)
);
},
{
closed = 1;
nodes = (
(310,0,o),
(323,30,o),
(325,42,cs),
(372,306,ls),
(376,330,o),
(365,350,o),
(331,350,cs),
(294,350,o),
(287,336,o),
(277,313,c),
(230,48,ls),
(225,18,o),
(236,0,o),
(268,0,cs)
);
}
);
vertWidth = 0;
width = 418;
}
);
unicode = 117;
},
{
color = 6;
glyphname = v;
kernLeft = v_left;
kernRight = v_right;
layers = (
{
background = {
shapes = (
{
closed = 1;
nodes = (
(98,340,o),
(86,350,o),
(73,350,cs),
(61,350,o),
(46,341,o),
(43,323,cs),
(6,116,ls),
(-1,76,o),
(-2,49,o),
(5,28,cs),
(12,9,o),
(26,-4,o),
(52,-4,cs),
(76,-4,o),
(102,7,o),
(127,25,cs),
(165,53,o),
(205,100,o),
(231,138,cs),
(265,186,o),
(311,269,o),
(321,288,cs),
(344,333,o),
(334,350,o),
(314,350,cs),
(296,350,o),
(290,337,o),
(278,315,cs),
(260,280,o),
(231,229,o),
(200,183,cs),
(167,133,o),
(132,89,o),
(98,63,cs),
(84,52,o),
(75,47,o),
(66,47,cs),
(58,47,o),
(51,51,o),
(50,60,cs),
(48,69,o),
(52,86,o),
(55,102,cs),
(94,320,ls)
);
},
{
closed = 1;
nodes = (
(302,294,l),
(346,230,ls),
(353,220,o),
(363,211,o),
(376,211,cs),
(386,211,o),
(396,217,o),
(399,228,cs),
(401,235,o),
(400,243,o),
(393,253,cs),
(330,344,l)
);
}
);
};
layerId = m01;
shapes = (
{
closed = 1;
nodes = (
(142,-4,o),
(261,154,o),
(334,322,c),
(332,341,l),
(330,344,o),
(325,350,o),
(314,350,cs),
(296,350,o),
(288,337,o),
(278,315,cs),
(219,188,o),
(106,46,o),
(68,46,cs),
(49,46,o),
(46,64,o),
(56,117,cs),
(94,320,ls),
(98,340,o),
(86,350,o),
(73,350,cs),
(61,350,o),
(46,341,o),
(43,323,cs),
(6,117,ls),
(-9,34,o),
(6,-4,o),
(53,-4,cs)
);
},
{
closed = 1;
nodes = (
(402,225,o),
(401,241,o),
(388,260,cs),
(332,341,l),
(295,304,l),
(347,229,ls),
(359,211,o),
(378,205,o),
(390,215,cs)
);
}
);
vertWidth = 0;
width = 391;
},
{
layerId = m002;
shapes = (
{
closed = 1;
nodes = (
(189,-4,o),
(257,86,o),
(364,264,c),
(373,334,l),
(365,347,o),
(349,351,o),
(336,351,cs),
(309,351,o),
(295,338,o),
(280,308,cs),
(227,199,o),
(133,78,o),
(112,78,cs),
(104,78,o),
(104,107,o),
(113,157,cs),
(139,298,ls),
(145,331,o),
(125,351,o),
(98,351,cs),
(76,351,o),
(47,335,o),
(42,308,cs),
(8,115,ls),
(-3,51,o),
(18,-4,o),
(78,-4,cs)
);
},
{
closed = 1;
nodes = (
(435,205,o),
(443,230,o),
(426,256,cs),
(373,334,l),
(298,278,l),
(345,209,ls),
(366,178,o),
(398,178,o),
(418,192,cs)
);
}
);
vertWidth = 0;
width = 432;
},
{
associatedMasterId = m01;
layerId = "18A92B4D-A0CD-47C8-BF39-3AF59CA50A40";
name = background;
shapes = (
{
closed = 1;
nodes = (
(98,340,o),
(86,350,o),
(73,350,cs),
(61,350,o),
(46,341,o),
(43,323,cs),
(4,102,ls),
(-1,76,o),
(-2,49,o),
(5,28,cs),
(12,9,o),
(26,-4,o),
(52,-4,cs),
(76,-4,o),
(102,7,o),
(127,25,cs),
(165,53,o),
(205,100,o),
(231,138,cs),
(265,186,o),
(311,269,o),
(321,288,cs),
(344,333,o),
(334,350,o),
(314,350,cs),
(296,350,o),
(290,337,o),
(278,315,cs),
(260,280,o),
(231,229,o),
(200,183,cs),
(167,133,o),
(132,89,o),
(98,63,cs),
(84,52,o),
(75,47,o),
(66,47,cs),
(58,47,o),
(51,51,o),
(50,60,cs),
(48,69,o),
(52,86,o),
(55,102,cs),
(94,320,ls)
);
},
{
closed = 1;
nodes = (
(302,294,l),
(346,230,ls),
(353,220,o),
(363,211,o),
(376,211,cs),
(386,211,o),
(396,217,o),
(399,228,cs),
(401,235,o),
(400,243,o),
(393,253,cs),
(330,344,l)
);
}
);
vertWidth = 0;
width = 500;
},
{
associatedMasterId = m002;
layerId = "90B56FA1-DE22-4E2E-9549-3FD06F5B5500";
name = background;
shapes = (
{
closed = 0;
nodes = (
(68,-4,l)
);
},
{
closed = 1;
nodes = (
(96,-4,o),
(135,4,o),
(169,27,cs),
(209,54,o),
(245,97,o),
(267,129,cs),
(299,173,o),
(347,248,o),
(354,264,c),
(392,336,o),
(348,351,o),
(326,351,cs),
(299,351,o),
(286,338,o),
(270,308,cs),
(262,293,o),
(244,262,o),
(218,223,cs),
(189,179,o),
(181,168,o),
(163,143,cs),
(150,126,o),
(134,106,o),
(124,96,cs),
(116,88,o),
(104,78,o),
(100,78,cs),
(94,78,o),
(97,107,o),
(106,157,cs),
(132,298,ls),
(138,331,o),
(115,351,o),
(88,351,cs),
(66,351,o),
(37,335,o),
(32,308,cs),
(-2,115,ls),
(-6,90,o),
(-4,62,o),
(3,39,cs),
(14,12,o),
(35,-4,o),
(68,-4,cs)
);
},
{
closed = 1;
nodes = (
(288,278,l),
(333,212,ls),
(344,196,o),
(360,184,o),
(381,184,cs),
(400,184,o),
(419,196,o),
(425,214,cs),
(429,229,o),
(426,241,o),
(416,256,cs),
(363,334,l)
);
}
);
vertWidth = 0;
width = 500;
}
);
unicode = 118;
},
{
color = 6;
glyphname = w;
kernLeft = v_left;
kernRight = v_right;
layers = (
{
layerId = m01;
shapes = (
{
closed = 1;
nodes = (
(411,-4,o),
(526,224,o),
(563,288,c),
(572,343,l),
(568,347,o),
(566,350,o),
(556,350,cs),
(538,350,o),
(531,338,o),
(520,315,cs),
(480,231,o),
(358,47,o),
(306,47,cs),
(290,47,o),
(287,58,o),
(295,102,cs),
(336,320,ls),
(340,340,o),
(328,350,o),
(315,350,c),
(277,270,l),
(246,102,ls),
(234,38,o),
(247,-4,o),
(294,-4,cs)
);
},
{
closed = 1;
nodes = (
(147,-4,o),
(264,187,o),
(304,267,c),
(315,350,l),
(297,350,o),
(289,336,o),
(279,314,cs),
(220,188,o),
(106,46,o),
(65,46,cs),
(49,46,o),
(47,69,o),
(56,117,cs),
(94,320,ls),
(98,340,o),
(86,350,o),
(73,350,cs),
(61,350,o),
(46,341,o),
(43,323,cs),
(6,117,ls),
(-9,33,o),
(6,-4,o),
(52,-4,cs)
);
},
{
closed = 1;
nodes = (
(644,225,o),
(643,241,o),
(630,260,cs),
(572,343,l),
(535,306,l),
(589,229,ls),
(601,211,o),
(620,205,o),
(632,215,cs)
);
}
);
vertWidth = 0;
width = 633;
},
{
layerId = m002;
shapes = (
{
closed = 1;
nodes = (
(425,-5,o),
(485,79,o),
(591,241,c),
(611,333,l),
(604,342,o),
(591,350,o),
(577,350,cs),
(549,350,o),
(539,343,o),
(522,314,cs),
(437,173,o),
(370,77,o),
(350,77,cs),
(343,77,o),
(344,93,o),
(348,117,cs),
(380,298,ls),
(387,335,o),
(360,350,o),
(336,350,c),
(277,264,l),
(247,115,ls),
(234,49,o),
(257,-5,o),
(316,-5,cs)
);
},
{
closed = 1;
nodes = (
(146,-4,o),
(237,53,o),
(348,267,c),
(336,350,l),
(312,350,o),
(299,345,o),
(279,307,cs),
(224,201,o),
(128,78,o),
(115,78,cs),
(105,78,o),
(108,109,o),
(111,125,cs),
(142,298,ls),
(148,332,o),
(125,350,o),
(99,350,cs),
(72,350,o),
(48,336,o),
(42,304,cs),
(8,113,ls),
(-4,43,o),
(28,-4,o),
(80,-4,cs)
);
},
{
closed = 1;
nodes = (
(674,205,o),
(682,229,o),
(664,255,cs),
(611,333,l),
(535,277,l),
(584,208,ls),
(604,179,o),
(637,178,o),
(656,192,cs)
);
}
);
vertWidth = 0;
width = 671;
},
{
associatedMasterId = m01;
layerId = "5615C205-54A9-4EE9-B19C-8BD28178C8BB";
name = background;
shapes = (
{
closed = 1;
nodes = (
(340,340,o),
(328,350,o),
(315,350,c),
(277,270,l),
(246,102,ls),
(241,76,o),
(240,49,o),
(247,28,cs),
(254,9,o),
(268,-4,o),
(294,-4,cs),
(318,-4,o),
(344,7,o),
(369,25,cs),
(407,53,o),
(447,100,o),
(473,138,cs),
(507,186,o),
(553,269,o),
(563,288,cs),
(586,333,o),
(576,350,o),
(556,350,cs),
(538,350,o),
(532,337,o),
(520,315,cs),
(502,280,o),
(473,229,o),
(442,183,cs),
(409,133,o),
(374,89,o),
(340,63,cs),
(326,52,o),
(317,47,o),
(308,47,cs),
(300,47,o),
(293,51,o),
(292,60,cs),
(290,69,o),
(294,86,o),
(297,102,cs),
(336,320,ls)
);
},
{
closed = 1;
nodes = (
(297,350,o),
(290,337,o),
(278,315,cs),
(260,280,o),
(231,229,o),
(200,183,cs),
(167,133,o),
(132,89,o),
(98,63,cs),
(84,52,o),
(75,47,o),
(66,47,cs),
(58,47,o),
(51,51,o),
(50,60,cs),
(48,69,o),
(52,86,o),
(55,102,cs),
(94,320,ls),
(98,340,o),
(86,350,o),
(73,350,cs),
(61,350,o),
(46,341,o),
(43,323,cs),
(4,102,ls),
(-1,76,o),
(-2,49,o),
(5,28,cs),
(12,9,o),
(26,-4,o),
(52,-4,cs),
(76,-4,o),
(102,7,o),
(127,25,cs),
(165,53,o),
(205,100,o),
(231,138,cs),
(266,189,o),
(294,248,o),
(304,267,c),
(315,350,l)
);
},
{
closed = 1;
nodes = (
(544,294,l),
(588,230,ls),
(595,220,o),
(605,211,o),
(618,211,cs),
(628,211,o),
(638,217,o),
(641,228,cs),
(643,235,o),
(642,243,o),
(635,253,cs),
(572,344,l)
);
}
);
vertWidth = 0;
width = 500;
},
{
associatedMasterId = m002;
layerId = "069EA431-E6FB-4829-8AE5-A213E100A453";
name = background;
shapes = (
{
closed = 1;
nodes = (
(385,335,o),
(356,350,o),
(334,350,c),
(275,264,l),
(245,115,ls),
(240,90,o),
(242,62,o),
(249,39,cs),
(258,12,o),
(282,-5,o),
(314,-5,cs),
(347,-5,o),
(385,6,o),
(411,24,cs),
(449,50,o),
(483,86,o),
(505,118,cs),
(537,162,o),
(592,244,o),
(600,260,cs),
(636,331,o),
(597,350,o),
(575,350,cs),
(547,350,o),
(535,343,o),
(520,314,cs),
(507,289,o),
(491,263,o),
(465,224,cs),
(436,180,o),
(423,161,o),
(413,147,cs),
(404,135,o),
(381,106,o),
(375,100,cs),
(366,91,o),
(352,77,o),
(346,77,cs),
(341,77,o),
(343,102,o),
(346,117,cs),
(378,298,ls)
);
},
{
closed = 1;
nodes = (
(310,350,o),
(298,344,o),
(277,307,cs),
(267,289,o),
(255,267,o),
(231,230,cs),
(211,199,o),
(195,177,o),
(182,158,cs),
(173,145,o),
(158,126,o),
(140,105,cs),
(127,90,o),
(112,78,o),
(108,78,cs),
(103,78,o),
(106,109,o),
(109,125,cs),
(140,298,ls),
(146,332,o),
(123,350,o),
(97,350,cs),
(70,350,o),
(46,336,o),
(40,304,cs),
(6,113,ls),
(2,88,o),
(4,60,o),
(12,37,cs),
(21,10,o),
(48,-4,o),
(78,-4,cs),
(106,-4,o),
(147,7,o),
(172,24,cs),
(217,54,o),
(252,97,o),
(275,129,cs),
(311,183,o),
(343,243,o),
(347,250,c),
(341,350,l)
);
},
{
closed = 1;
nodes = (
(533,277,l),
(580,210,ls),
(591,194,o),
(609,183,o),
(627,183,cs),
(647,183,o),
(668,196,o),
(673,217,cs),
(675,229,o),
(672,240,o),
(662,255,cs),
(609,333,l)
);
}
);
vertWidth = 0;
width = 500;
}
);
unicode = 119;
},
{
color = 6;
glyphname = x;
layers = (
{
layerId = m01;
shapes = (
{
closed = 1;
nodes = (
(-30,-1,o),
(-14,-4,o),
(0,10,cs),
(142,151,l),
(154,161,l),
(304,308,ls),
(318,321,o),
(316,336,o),
(308,344,cs),
(299,353,o),
(282,355,o),
(268,341,cs),
(124,197,l),
(115,193,l),
(-33,46,ls),
(-47,32,o),
(-47,17,o),
(-38,8,cs)
);
},
{
closed = 1;
nodes = (
(266,15,o),
(265,28,o),
(255,43,cs),
(154,191,l),
(55,335,ls),
(44,351,o),
(29,354,o),
(17,344,cs),
(3,333,o),
(4,322,o),
(15,305,cs),
(116,158,l),
(215,13,ls),
(225,-1,o),
(240,-6,o),
(252,4,cs)
);
}
);
vertWidth = 0;
width = 327;
},
{
layerId = m002;
shapes = (
{
closed = 1;
nodes = (
(20,-3,o),
(52,-7,o),
(76,16,cs),
(196,134,l),
(215,145,l),
(350,275,ls),
(373,297,o),
(368,322,o),
(351,337,cs),
(335,352,o),
(306,357,o),
(283,335,cs),
(160,218,l),
(140,206,l),
(6,76,ls),
(-18,53,o),
(-12,29,o),
(4,13,cs)
);
},
{
closed = 1;
nodes = (
(311,28,o),
(317,51,o),
(302,73,cs),
(215,199,l),
(124,329,l),
(105,355,o),
(77,354,o),
(58,340,cs),
(40,327,o),
(32,302,o),
(48,279,c),
(140,146,l),
(227,20,ls),
(246,-8,o),
(277,-3,o),
(295,13,cs)
);
}
);
vertWidth = 0;
width = 390;
},
{
associatedMasterId = m01;
layerId = "6A03CD33-ADB9-4501-8A6B-F0C1718C1545";
name = background;
shapes = (
{
closed = 1;
nodes = (
(341,313,o),
(345,317,o),
(345,327,cs),
(345,333,o),
(343,339,o),
(338,344,cs),
(333,349,o),
(326,350,o),
(319,350,cs),
(312,349,o),
(305,346,o),
(300,341,c),
(-7,44,l),
(-14,36,o),
(-16,28,o),
(-15,21,cs),
(-14,16,o),
(-11,11,o),
(-7,6,cs),
(-3,2,o),
(2,0,o),
(9,0,cs),
(17,0,o),
(25,5,o),
(30,10,c),
(336,308,l)
);
},
{
closed = 1;
nodes = (
(79,345,o),
(73,350,o),
(65,350,cs),
(58,350,o),
(52,347,o),
(47,343,cs),
(42,339,o),
(39,333,o),
(38,327,cs),
(38,321,o),
(41,314,o),
(44,309,c),
(248,10,l),
(252,4,o),
(258,1,o),
(263,0,cs),
(270,-1,o),
(278,3,o),
(283,8,cs),
(288,13,o),
(292,20,o),
(292,27,cs),
(292,33,o),
(290,39,o),
(286,44,c),
(84,338,l)
);
}
);
vertWidth = 0;
width = 500;
},
{
associatedMasterId = m002;
layerId = "86E3A803-96D9-4DFD-ABAD-095B2BAC530A";
name = background;
shapes = (
{
closed = 1;
nodes = (
(322,285,o),
(328,294,o),
(328,309,cs),
(328,321,o),
(324,331,o),
(315,340,cs),
(307,348,o),
(292,350,o),
(279,350,cs),
(268,350,o),
(254,344,o),
(246,337,cs),
(-24,76,ls),
(-36,64,o),
(-40,52,o),
(-38,38,cs),
(-37,29,o),
(-33,21,o),
(-26,12,cs),
(-19,4,o),
(-5,0,o),
(8,0,cs),
(22,0,o),
(36,7,o),
(46,16,cs),
(313,277,ls)
);
},
{
closed = 1;
nodes = (
(84,345,o),
(71,350,o),
(57,350,cs),
(45,350,o),
(34,347,o),
(24,339,cs),
(15,332,o),
(9,321,o),
(8,310,cs),
(8,299,o),
(13,288,o),
(18,281,cs),
(197,18,ls),
(208,2,o),
(228,0,o),
(238,0,cs),
(250,0,o),
(261,7,o),
(268,14,cs),
(275,22,o),
(282,33,o),
(282,45,cs),
(282,54,o),
(278,62,o),
(272,71,cs),
(94,331,ls)
);
}
);
vertWidth = 0;
width = 500;
}
);
unicode = 120;
},
{
color = 6;
glyphname = y;
kernLeft = n_left;
kernRight = n_right;
layers = (
{
layerId = m01;
shapes = (
{
closed = 1;
nodes = (
(-65,-292,o),
(-51,-300,o),
(-27,-300,cs),
(-8,-300,o),
(80,-299,o),
(113,-294,cs),
(167,-286,o),
(206,-257,o),
(231,-217,cs),
(265,-163,o),
(274,-87,o),
(289,-3,cs),
(348,323,ls),
(351,340,o),
(337,350,o),
(328,350,cs),
(315,350,o),
(309,345,o),
(304,337,c),
(238,-3,ls),
(225,-71,o),
(218,-142,o),
(190,-189,cs),
(172,-219,o),
(145,-240,o),
(97,-246,cs),
(76,-248,o),
(-7,-250,o),
(-26,-250,cs),
(-52,-250,o),
(-65,-263,o),
(-65,-277,cs)
);
},
{
closed = 1;
nodes = (
(149,-4,o),
(256,169,o),
(309,261,c),
(304,337,l),
(236,223,o),
(121,45,o),
(70,45,cs),
(45,45,o),
(51,89,o),
(56,116,cs),
(92,321,ls),
(95,340,o),
(84,350,o),
(72,350,cs),
(59,350,o),
(44,341,o),
(41,322,cs),
(5,116,ls),
(-5,59,o),
(2,-4,o),
(60,-4,cs)
);
}
);
vertWidth = 0;
width = 412;
},
{
layerId = m002;
shapes = (
{
closed = 1;
nodes = (
(-56,-282,o),
(-48,-300,o),
(-9,-300,cs),
(10,-300,o),
(101,-298,o),
(133,-293,c),
(184,-286,o),
(229,-260,o),
(260,-214,cs),
(297,-159,o),
(305,-83,o),
(318,-5,cs),
(369,295,ls),
(375,331,o),
(368,350,o),
(330,350,cs),
(297,350,o),
(277,333,o),
(272,302,cs),
(222,3,ls),
(211,-62,o),
(203,-126,o),
(180,-165,cs),
(164,-190,o),
(138,-204,o),
(111,-207,cs),
(92,-209,o),
(9,-209,o),
(-8,-209,cs),
(-45,-209,o),
(-56,-231,o),
(-56,-257,cs)
);
},
{
closed = 1;
nodes = (
(166,-4,o),
(232,70,o),
(284,172,c),
(272,302,l),
(239,207,o),
(145,74,o),
(111,74,cs),
(101,74,o),
(102,94,o),
(106,119,cs),
(138,300,ls),
(143,330,o),
(131,350,o),
(96,350,cs),
(65,350,o),
(48,335,o),
(43,307,cs),
(11,127,ls),
(-1,58,o),
(13,-4,o),
(80,-4,cs)
);
}
);
vertWidth = 0;
width = 419;
},
{
associatedMasterId = m01;
layerId = "9D58BF54-4C87-4672-AAF6-CEFF946E073A";
name = background;
shapes = (
{
closed = 1;
nodes = (
(353,338,o),
(340,350,o),
(326,350,cs),
(314,350,o),
(300,341,o),
(296,320,cs),
(241,-3,ls),
(229,-71,o),
(221,-142,o),
(193,-189,cs),
(175,-219,o),
(148,-240,o),
(100,-246,cs),
(79,-248,o),
(-4,-250,o),
(-23,-250,cs),
(-49,-250,o),
(-62,-263,o),
(-62,-277,cs),
(-62,-292,o),
(-48,-300,o),
(-24,-300,cs),
(-5,-300,o),
(83,-299,o),
(116,-294,cs),
(170,-286,o),
(209,-257,o),
(234,-217,cs),
(268,-163,o),
(277,-87,o),
(292,-3,cs),
(349,317,ls)
);
},
{
closed = 1;
nodes = (
(237,225,o),
(124,45,o),
(73,45,cs),
(48,45,o),
(54,89,o),
(59,116,cs),
(95,321,ls),
(98,340,o),
(87,350,o),
(75,350,cs),
(62,350,o),
(47,341,o),
(44,322,cs),
(8,116,ls),
(-2,59,o),
(5,-4,o),
(63,-4,cs),
(152,-4,o),
(257,166,o),
(312,254,c),
(306,340,l)
);
}
);
vertWidth = 0;
width = 500;
},
{
associatedMasterId = m002;
layerId = "AD9F8E26-F4FE-4738-85A2-DF07A808D0E0";
name = background;
shapes = (
{
closed = 1;
nodes = (
(381,331,o),
(373,350,o),
(335,350,cs),
(302,350,o),
(280,333,o),
(275,302,cs),
(222,3,ls),
(210,-62,o),
(206,-126,o),
(183,-165,cs),
(167,-190,o),
(151,-203,o),
(114,-208,cs),
(95,-210,o),
(12,-209,o),
(-5,-209,cs),
(-42,-209,o),
(-53,-231,o),
(-53,-257,cs),
(-53,-282,o),
(-45,-300,o),
(-6,-300,cs),
(13,-300,o),
(104,-298,o),
(136,-293,cs),
(194,-283,o),
(238,-256,o),
(264,-215,cs),
(299,-158,o),
(308,-83,o),
(322,-5,cs),
(375,295,ls)
);
},
{
closed = 1;
nodes = (
(247,252,o),
(148,74,o),
(110,74,cs),
(102,74,o),
(105,94,o),
(109,119,cs),
(141,300,ls),
(146,330,o),
(134,350,o),
(99,350,cs),
(68,350,o),
(51,335,o),
(46,307,cs),
(14,127,ls),
(2,58,o),
(16,-4,o),
(83,-4,cs),
(203,-4,o),
(247,108,o),
(293,153,c),
(284,326,l)
);
}
);
vertWidth = 0;
width = 500;
}
);
unicode = 121;
},
{
color = 6;
glyphname = z;
layers = (
{
layerId = m01;
shapes = (
{
closed = 1;
nodes = (
(-35,11,o),
(-24,0,o),
(-11,0,c),
(6,10,l),
(314,308,l),
(319,313,o),
(323,317,o),
(323,327,cs),
(323,342,o),
(311,350,o),
(297,350,c),
(281,341,l),
(-24,49,ls),
(-32,41,o),
(-35,32,o),
(-35,24,cs)
);
},
{
closed = 1;
nodes = (
(267,37,o),
(261,50,o),
(241,50,cs),
(9,50,l),
(-11,0,l),
(241,0,ls),
(261,0,o),
(267,13,o),
(267,25,cs)
);
},
{
closed = 1;
nodes = (
(21,313,o),
(27,300,o),
(47,300,cs),
(275,300,l),
(297,350,l),
(47,350,ls),
(27,350,o),
(21,337,o),
(21,325,cs)
);
}
);
vertWidth = 0;
width = 343;
},
{
layerId = m002;
shapes = (
{
closed = 1;
nodes = (
(-10,20,o),
(9,0,o),
(36,0,c),
(75,22,l),
(332,277,ls),
(341,286,o),
(347,294,o),
(347,309,cs),
(347,333,o),
(331,350,o),
(298,350,c),
(265,331,l),
(5,75,ls),
(-5,65,o),
(-10,54,o),
(-10,43,cs)
);
},
{
closed = 1;
nodes = (
(311,67,o),
(293,85,o),
(263,85,cs),
(74,85,l),
(36,0,l),
(263,0,ls),
(293,0,o),
(311,19,o),
(311,43,cs)
);
},
{
closed = 1;
nodes = (
(37,281,o),
(55,260,o),
(85,260,cs),
(257,260,l),
(299,350,l),
(85,350,ls),
(55,350,o),
(37,329,o),
(37,305,cs)
);
}
);
vertWidth = 0;
width = 389;
},
{
associatedMasterId = m01;
layerId = "6F8E4953-0E24-4BF1-8474-E33C6320F5EC";
name = background;
shapes = (
{
closed = 1;
nodes = (
(317,313,o),
(321,317,o),
(321,327,cs),
(321,333,o),
(319,339,o),
(314,344,cs),
(309,349,o),
(302,350,o),
(295,350,cs),
(288,349,o),
(281,346,o),
(276,341,c),
(-31,44,ls),
(-39,37,o),
(-40,28,o),
(-39,21,cs),
(-38,16,o),
(-35,11,o),
(-31,6,cs),
(-27,2,o),
(-22,0,o),
(-15,0,cs),
(-7,0,o),
(1,5,o),
(6,10,c),
(312,308,l)
);
},
{
closed = 1;
nodes = (
(268,37,o),
(262,50,o),
(242,50,cs),
(5,50,l),
(-17,0,l),
(242,0,ls),
(262,0,o),
(268,13,o),
(268,25,cs)
);
},
{
closed = 1;
nodes = (
(14,313,o),
(20,300,o),
(40,300,cs),
(273,300,l),
(297,350,l),
(40,350,ls),
(20,350,o),
(14,337,o),
(14,325,cs)
);
}
);
vertWidth = 0;
width = 500;
},
{
associatedMasterId = m002;
layerId = "E976A456-816C-481C-846A-1AA163B5988A";
name = background;
shapes = (
{
closed = 1;
nodes = (
(321,285,o),
(327,294,o),
(327,309,cs),
(327,321,o),
(322,331,o),
(314,340,cs),
(305,348,o),
(291,350,o),
(278,350,cs),
(266,350,o),
(253,344,o),
(245,337,cs),
(-25,75,ls),
(-36,65,o),
(-41,52,o),
(-39,38,cs),
(-38,29,o),
(-34,21,o),
(-27,12,cs),
(-20,4,o),
(-6,0,o),
(7,0,cs),
(21,0,o),
(35,7,o),
(45,16,cs),
(312,277,ls)
);
},
{
closed = 1;
nodes = (
(233,0,ls),
(263,0,o),
(281,19,o),
(281,43,cs),
(281,67,o),
(263,85,o),
(233,85,cs),
(44,85,l),
(6,0,l)
);
},
{
closed = 1;
nodes = (
(279,350,l),
(55,350,ls),
(25,350,o),
(7,329,o),
(7,305,cs),
(7,281,o),
(25,260,o),
(55,260,cs),
(237,260,l)
);
}
);
vertWidth = 0;
width = 500;
}
);
unicode = 122;
},
{
color = 6;
glyphname = a.sc;
layers = (
{
guides = (
{
name = " [#IWP0CKaMnU]";
pos = (209,396);
}
);
layerId = m01;
shapes = (
{
closed = 1;
nodes = (
(206,365,l),
(210,381,o),
(200,396,o),
(182,396,cs),
(167,396,o),
(162,387,o),
(157,377,cs),
(-21,35,ls),
(-30,18,o),
(-18,0,o),
(-1,0,cs),
(14,0,o),
(20,6,o),
(28,21,cs),
(204,359,l)
);
},
{
closed = 1;
nodes = (
(204,175,l),
(200,216,l),
(86,216,l),
(63,175,l)
);
},
{
closed = 1;
nodes = (
(158,358,l),
(187,25,ls),
(188,13,o),
(194,0,o),
(213,0,cs),
(228,0,o),
(239,10,o),
(237,28,cs),
(207,378,l)
);
}
);
vertWidth = 0;
width = 323;
},
{
guides = (
{
pos = (270,396);
}
);
layerId = m002;
shapes = (
{
closed = 1;
nodes = (
(272,348,l),
(281,380,o),
(263,396,o),
(232,396,cs),
(208,396,o),
(196,383,o),
(188,367,cs),
(31,65,ls),
(15,34,o),
(25,0,o),
(58,0,cs),
(80,0,o),
(95,9,o),
(106,31,cs),
(255,317,l)
);
},
{
closed = 1;
nodes = (
(280,151,l),
(273,221,l),
(133,221,l),
(90,151,l)
);
},
{
closed = 1;
nodes = (
(207,326,l),
(224,45,ls),
(226,18,o),
(238,0,o),
(266,0,cs),
(293,0,o),
(309,21,o),
(306,50,cs),
(274,371,l)
);
}
);
vertWidth = 0;
width = 448;
}
);
},
{
color = 6;
glyphname = b.sc;
layers = (
{
layerId = m01;
shapes = (
{
closed = 1;
nodes = (
(191,-1,o),
(229,18,o),
(243,92,cs),
(257,175,o),
(168,224,o),
(74,224,c),
(66,171,l),
(148,171,o),
(201,144,o),
(194,100,cs),
(186,59,o),
(151,49,o),
(41,50,c),
(33,0,l)
);
},
{
closed = 1;
nodes = (
(123,384,o),
(112,396,o),
(97,396,cs),
(82,396,o),
(72,387,o),
(69,369,cs),
(10,32,ls),
(7,15,o),
(18,0,o),
(34,0,cs),
(46,0,o),
(57,8,o),
(60,27,cs),
(119,363,ls)
);
},
{
closed = 1;
nodes = (
(229,171,o),
(264,212,o),
(276,281,cs),
(290,360,o),
(215,396,o),
(96,396,c),
(86,345,l),
(189,346,o),
(234,329,o),
(226,286,cs),
(220,247,o),
(201,224,o),
(78,224,c),
(69,171,l)
);
}
);
vertWidth = 0;
width = 335;
},
{
layerId = m002;
shapes = (
{
closed = 1;
nodes = (
(209,374,o),
(187,396,o),
(158,396,cs),
(133,396,o),
(114,380,o),
(109,352,cs),
(56,54,ls),
(51,25,o),
(73,0,o),
(103,0,cs),
(125,0,o),
(146,16,o),
(151,43,cs),
(203,340,ls)
);
},
{
closed = 1;
nodes = (
(246,0,o),
(296,17,o),
(313,100,cs),
(329,199,o),
(217,226,o),
(116,226,c),
(102,153,l),
(189,153,o),
(228,141,o),
(224,115,cs),
(220,91,o),
(200,80,o),
(116,80,c),
(102,0,l)
);
},
{
closed = 1;
nodes = (
(287,153,o),
(328,194,o),
(342,267,cs),
(358,361,o),
(263,396,o),
(155,396,c),
(138,317,l),
(233,317,o),
(257,302,o),
(253,280,cs),
(247,248,o),
(238,226,o),
(119,226,c),
(105,153,l)
);
}
);
vertWidth = 0;
width = 461;
}
);
},
{
color = 6;
glyphname = c.sc;
layers = (
{
layerId = m01;
shapes = (
{
closed = 1;
nodes = (
(155,0,o),
(196,31,o),
(245,103,cs),
(259,125,o),
(259,130,o),
(259,135,cs),
(259,148,o),
(250,158,o),
(238,158,cs),
(224,158,o),
(218,152,o),
(205,134,cs),
(162,72,o),
(136,50,o),
(104,50,cs),
(79,50,o),
(76,71,o),
(76,92,cs),
(76,122,o),
(84,180,o),
(90,209,cs),
(104,278,o),
(119,346,o),
(245,346,cs),
(276,346,o),
(282,345,o),
(290,349,cs),
(303,356,o),
(305,381,o),
(292,390,cs),
(285,394,o),
(277,396,o),
(245,396,cs),
(81,396,o),
(55,301,o),
(39,209,cs),
(37,197,o),
(26,131,o),
(26,93,cs),
(26,51,o),
(40,0,o),
(105,0,cs)
);
}
);
vertWidth = 0;
width = 362;
},
{
layerId = m002;
shapes = (
{
closed = 1;
nodes = (
(236,0,o),
(273,34,o),
(320,101,cs),
(333,122,o),
(337,142,o),
(333,157,cs),
(329,175,o),
(315,186,o),
(293,186,cs),
(271,186,o),
(260,177,o),
(243,154,cs),
(206,101,o),
(192,90,o),
(180,90,cs),
(174,90,o),
(174,99,o),
(174,113,cs),
(174,139,o),
(182,178,o),
(186,203,cs),
(197,265,o),
(208,306,o),
(299,306,cs),
(313,306,o),
(339,305,o),
(351,312,cs),
(379,327,o),
(382,369,o),
(354,387,cs),
(345,392,o),
(320,396,o),
(299,396,cs),
(133,396,o),
(106,294,o),
(91,211,cs),
(90,203,o),
(80,148,o),
(80,111,cs),
(80,61,o),
(89,0,o),
(175,0,cs)
);
}
);
vertWidth = 0;
width = 482;
}
);
},
{
color = 6;
glyphname = d.sc;
layers = (
{
layerId = m01;
shapes = (
{
closed = 1;
nodes = (
(70,0,ls),
(171,0,o),
(265,78,o),
(288,210,cs),
(306,315,o),
(223,396,o),
(117,396,cs),
(96,396,l),
(91,342,l),
(120,342,ls),
(197,342,o),
(251,287,o),
(238,214,cs),
(220,107,o),
(145,50,o),
(70,50,cs),
(44,50,l),
(33,0,l)
);
},
{
closed = 1;
nodes = (
(121,377,o),
(115,396,o),
(97,396,cs),
(80,396,o),
(72,388,o),
(69,369,cs),
(9,29,ls),
(6,14,o),
(16,0,o),
(34,0,cs),
(52,0,o),
(57,12,o),
(59,22,cs),
(118,359,ls)
);
}
);
vertWidth = 0;
width = 359;
},
{
layerId = m002;
shapes = (
{
closed = 1;
nodes = (
(134,0,ls),
(235,0,o),
(329,78,o),
(352,205,cs),
(370,313,o),
(283,396,o),
(175,396,cs),
(157,396,l),
(147,316,l),
(178,316,ls),
(235,316,o),
(267,270,o),
(257,216,cs),
(244,129,o),
(191,74,o),
(134,74,cs),
(122,74,l),
(101,0,l)
);
},
{
closed = 1;
nodes = (
(206,367,o),
(190,396,o),
(158,396,cs),
(135,396,o),
(114,385,o),
(108,353,cs),
(55,52,ls),
(50,24,o),
(71,0,o),
(102,0,cs),
(129,0,o),
(144,17,o),
(149,38,c),
(201,336,ls)
);
}
);
vertWidth = 0;
width = 482;
}
);
},
{
color = 6;
glyphname = e.sc;
layers = (
{
layerId = m01;
shapes = (
{
closed = 1;
nodes = (
(121,378,o),
(116,396,o),
(97,396,cs),
(79,396,o),
(72,388,o),
(69,369,cs),
(9,29,ls),
(7,15,o),
(16,0,o),
(33,0,cs),
(52,0,o),
(57,14,o),
(59,24,cs),
(118,360,ls)
);
},
{
closed = 1;
nodes = (
(220,0,ls),
(237,0,o),
(246,14,o),
(246,27,cs),
(246,40,o),
(237,53,o),
(220,53,cs),
(41,53,l),
(32,0,l)
);
},
{
closed = 1;
nodes = (
(235,174,ls),
(252,174,o),
(261,186,o),
(261,198,cs),
(261,211,o),
(252,224,o),
(235,224,cs),
(71,224,l),
(63,174,l)
);
},
{
closed = 1;
nodes = (
(282,343,ls),
(298,343,o),
(307,354,o),
(307,369,cs),
(307,384,o),
(298,396,o),
(282,396,cs),
(96,396,l),
(87,343,l)
);
}
);
vertWidth = 0;
width = 368;
},
{
layerId = m002;
shapes = (
{
closed = 1;
nodes = (
(207,367,o),
(192,396,o),
(158,396,cs),
(133,396,o),
(113,384,o),
(108,353,cs),
(55,52,ls),
(50,25,o),
(71,0,o),
(101,0,cs),
(129,0,o),
(145,18,o),
(149,41,cs),
(202,338,ls)
);
},
{
closed = 1;
nodes = (
(267,0,ls),
(296,0,o),
(315,18,o),
(315,42,cs),
(315,66,o),
(295,77,o),
(267,77,cs),
(115,77,l),
(99,0,l)
);
},
{
closed = 1;
nodes = (
(280,151,ls),
(308,151,o),
(328,164,o),
(328,188,cs),
(328,213,o),
(308,225,o),
(280,225,cs),
(128,225,l),
(114,151,l)
);
},
{
closed = 1;
nodes = (
(322,303,ls),
(349,303,o),
(369,323,o),
(369,349,cs),
(369,376,o),
(349,396,o),
(322,396,cs),
(155,396,l),
(139,303,l)
);
}
);
vertWidth = 0;
width = 478;
}
);
},
{
color = 6;
glyphname = f.sc;
layers = (
{
layerId = m01;
shapes = (
{
closed = 1;
nodes = (
(122,377,o),
(116,396,o),
(97,396,cs),
(79,396,o),
(72,388,o),
(69,369,cs),
(9,29,ls),
(7,15,o),
(16,0,o),
(33,0,cs),
(52,0,o),
(58,14,o),
(60,24,cs),
(119,359,ls)
);
},
{
closed = 1;
nodes = (
(234,175,ls),
(252,175,o),
(260,187,o),
(260,199,cs),
(260,214,o),
(251,225,o),
(234,225,cs),
(71,225,l),
(63,175,l)
);
},
{
closed = 1;
nodes = (
(282,343,ls),
(298,343,o),
(307,354,o),
(307,369,cs),
(307,384,o),
(298,396,o),
(282,396,cs),
(96,396,l),
(88,343,l)
);
}
);
vertWidth = 0;
width = 298;
},
{
layerId = m002;
shapes = (
{
closed = 1;
nodes = (
(207,366,o),
(192,396,o),
(158,396,cs),
(133,396,o),
(113,384,o),
(108,353,cs),
(55,52,ls),
(50,25,o),
(71,0,o),
(101,0,cs),
(129,0,o),
(146,19,o),
(150,40,cs),
(202,336,ls)
);
},
{
closed = 1;
nodes = (
(279,151,ls),
(308,151,o),
(327,168,o),
(327,192,cs),
(327,218,o),
(307,225,o),
(279,225,cs),
(153,225,l),
(139,151,l)
);
},
{
closed = 1;
nodes = (
(322,303,ls),
(349,303,o),
(369,323,o),
(369,349,cs),
(369,376,o),
(349,396,o),
(322,396,cs),
(157,396,l),
(143,303,l)
);
}
);
vertWidth = 0;
width = 408;
}
);
},
{
color = 6;
glyphname = g.sc;
layers = (
{
layerId = m01;
shapes = (
{
closed = 1;
nodes = (
(245,224,o),
(244,230,o),
(201,164,cs),
(180,132,o),
(124,48,o),
(91,48,cs),
(79,48,o),
(75,64,o),
(75,89,cs),
(75,125,o),
(86,187,o),
(93,217,cs),
(104,276,o),
(126,343,o),
(253,343,cs),
(285,343,ls),
(300,343,o),
(310,356,o),
(310,370,cs),
(310,383,o),
(300,396,o),
(287,396,cs),
(254,396,ls),
(90,396,o),
(55,300,o),
(39,207,cs),
(37,195,o),
(25,129,o),
(25,92,cs),
(25,49,o),
(42,-2,o),
(89,-2,cs),
(137,-2,o),
(184,52,o),
(229,115,c),
(260,224,l)
);
},
{
closed = 1;
nodes = (
(283,213,o),
(274,224,o),
(259,224,cs),
(242,224,o),
(232,214,o),
(229,198,cs),
(199,29,ls),
(197,17,o),
(204,0,o),
(221,0,cs),
(241,0,o),
(248,14,o),
(250,25,cs),
(280,194,ls)
);
}
);
vertWidth = 0;
width = 372;
},
{
layerId = m002;
shapes = (
{
closed = 1;
nodes = (
(297,244,o),
(282,218,o),
(248,165,cs),
(209,105,o),
(184,86,o),
(177,86,cs),
(172,86,o),
(171,105,o),
(175,130,cs),
(181,164,o),
(185,188,o),
(190,218,cs),
(194,240,o),
(198,303,o),
(327,303,cs),
(343,303,ls),
(377,303,o),
(390,328,o),
(391,350,cs),
(392,374,o),
(372,396,o),
(343,396,cs),
(327,396,ls),
(163,396,o),
(109,311,o),
(93,218,cs),
(91,206,o),
(79,139,o),
(79,102,cs),
(79,59,o),
(107,-2,o),
(162,-2,cs),
(210,-2,o),
(257,52,o),
(302,115,c),
(333,244,l)
);
},
{
closed = 1;
nodes = (
(371,212,o),
(359,244,o),
(332,244,cs),
(330,244,o),
(296,237,o),
(292,221,cs),
(247,45,ls),
(243,28,o),
(256,0,o),
(294,0,cs),
(318,0,o),
(338,22,o),
(340,36,cs),
(368,196,ls)
);
}
);
vertWidth = 0;
width = 504;
}
);
},
{
color = 6;
glyphname = h.sc;
layers = (
{
layerId = m01;
shapes = (
{
closed = 1;
nodes = (
(352,381,o),
(343,395,o),
(325,395,cs),
(310,395,o),
(301,384,o),
(299,371,cs),
(239,30,ls),
(237,17,o),
(243,0,o),
(263,0,cs),
(277,0,o),
(287,10,o),
(289,23,cs),
(349,364,ls)
);
},
{
closed = 1;
nodes = (
(122,381,o),
(113,395,o),
(97,395,cs),
(82,395,o),
(72,385,o),
(69,369,cs),
(9,29,ls),
(7,15,o),
(16,0,o),
(33,0,cs),
(50,0,o),
(57,13,o),
(59,24,cs),
(118,359,ls)
);
},
{
closed = 1;
nodes = (
(279,174,l),
(287,224,l),
(81,224,l),
(73,174,l)
);
}
);
vertWidth = 0;
width = 411;
},
{
layerId = m002;
shapes = (
{
closed = 1;
nodes = (
(411,371,o),
(390,395,o),
(359,395,cs),
(334,395,o),
(316,378,o),
(312,355,cs),
(259,53,ls),
(255,28,o),
(271,0,o),
(304,0,cs),
(329,0,o),
(349,17,o),
(353,40,cs),
(406,342,ls)
);
},
{
closed = 1;
nodes = (
(208,373,o),
(186,395,o),
(157,395,cs),
(132,395,o),
(112,378,o),
(108,353,cs),
(55,52,ls),
(50,25,o),
(71,0,o),
(101,0,cs),
(126,0,o),
(145,17,o),
(149,40,cs),
(201,336,ls)
);
},
{
closed = 1;
nodes = (
(296,151,l),
(310,225,l),
(158,225,l),
(144,151,l)
);
}
);
vertWidth = 0;
width = 516;
}
);
},
{
color = 6;
glyphname = i.sc;
layers = (
{
layerId = m01;
shapes = (
{
closed = 1;
nodes = (
(94,42,l),
(149,358,l),
(98,358,l),
(43,42,l)
);
},
{
closed = 1;
nodes = (
(112,0,o),
(121,12,o),
(121,25,cs),
(121,38,o),
(112,50,o),
(95,50,cs),
(39,50,ls),
(22,50,o),
(13,38,o),
(13,25,cs),
(13,12,o),
(22,0,o),
(39,0,cs),
(95,0,ls)
);
},
{
closed = 1;
nodes = (
(169,345,o),
(177,357,o),
(177,370,cs),
(177,383,o),
(169,396,o),
(151,396,cs),
(96,396,ls),
(78,396,o),
(70,383,o),
(70,370,cs),
(70,357,o),
(78,345,o),
(96,345,cs),
(151,345,ls)
);
}
);
vertWidth = 0;
width = 243;
},
{
layerId = m002;
shapes = (
{
closed = 1;
nodes = (
(180,61,l),
(229,334,l),
(134,334,l),
(85,61,l)
);
},
{
closed = 1;
nodes = (
(185,0,o),
(205,13,o),
(205,38,cs),
(205,62,o),
(185,75,o),
(157,75,cs),
(107,75,ls),
(79,75,o),
(59,62,o),
(59,38,cs),
(59,13,o),
(79,0,o),
(107,0,cs),
(157,0,ls)
);
},
{
closed = 1;
nodes = (
(236,320,o),
(255,333,o),
(255,357,cs),
(255,382,o),
(236,396,o),
(207,396,cs),
(158,396,ls),
(129,396,o),
(110,382,o),
(110,357,cs),
(110,333,o),
(129,320,o),
(158,320,cs),
(207,320,ls)
);
}
);
vertWidth = 0;
width = 369;
}
);
},
{
color = 6;
glyphname = j.sc;
layers = (
{
layerId = m01;
shapes = (
{
closed = 1;
nodes = (
(212,354,l),
(182,184,ls),
(175,144,o),
(168,108,o),
(155,82,cs),
(148,68,o),
(136,60,o),
(115,57,cs),
(100,55,o),
(48,53,o),
(34,53,cs),
(22,53,o),
(9,40,o),
(9,26,cs),
(9,12,o),
(22,0,o),
(34,0,cs),
(52,0,o),
(104,3,o),
(115,4,cs),
(159,10,o),
(183,29,o),
(198,55,cs),
(214,78,o),
(229,159,o),
(233,184,cs),
(263,354,l)
);
},
{
closed = 1;
nodes = (
(333,343,o),
(342,356,o),
(342,369,cs),
(342,382,o),
(333,396,o),
(316,396,cs),
(166,396,ls),
(149,396,o),
(140,384,o),
(140,369,cs),
(140,354,o),
(149,343,o),
(166,343,cs),
(316,343,ls)
);
}
);
vertWidth = 0;
width = 403;
},
{
layerId = m002;
shapes = (
{
closed = 1;
nodes = (
(248,331,l),
(223,190,ls),
(217,154,o),
(212,131,o),
(204,109,cs),
(200,99,o),
(182,95,o),
(173,94,cs),
(162,93,o),
(114,93,o),
(102,93,cs),
(77,93,o),
(55,70,o),
(55,46,cs),
(55,20,o),
(78,0,o),
(102,0,cs),
(108,0,o),
(133,0,o),
(144,0,cs),
(221,0,o),
(262,23,o),
(286,60,cs),
(299,80,o),
(314,160,o),
(318,182,cs),
(343,331,l)
);
},
{
closed = 1;
nodes = (
(394,318,o),
(414,333,o),
(414,357,cs),
(414,381,o),
(395,396,o),
(366,396,cs),
(234,396,ls),
(205,396,o),
(186,384,o),
(186,357,cs),
(186,331,o),
(205,318,o),
(234,318,cs),
(366,318,ls)
);
}
);
vertWidth = 0;
width = 522;
}
);
},
{
color = 6;
glyphname = k.sc;
layers = (
{
layerId = m01;
shapes = (
{
closed = 1;
nodes = (
(123,382,o),
(115,396,o),
(98,396,cs),
(83,396,o),
(73,385,o),
(70,369,cs),
(10,32,ls),
(7,16,o),
(18,0,o),
(34,0,cs),
(52,0,o),
(58,15,o),
(60,28,cs),
(120,363,ls)
);
},
{
closed = 1;
nodes = (
(73,210,l),
(73,179,l),
(186,16,ls),
(193,6,o),
(202,0,o),
(212,0,cs),
(224,0,o),
(233,8,o),
(235,18,c),
(238,25,o),
(236,32,o),
(229,42,cs),
(112,210,l)
);
},
{
closed = 1;
nodes = (
(108,202,l),
(282,346,ls),
(291,353,o),
(296,362,o),
(298,369,cs),
(300,383,o),
(290,396,o),
(276,396,cs),
(269,396,o),
(259,393,o),
(250,385,cs),
(73,238,l),
(73,202,l)
);
}
);
vertWidth = 0;
width = 309;
},
{
layerId = m002;
shapes = (
{
closed = 1;
nodes = (
(208,372,o),
(188,396,o),
(158,396,cs),
(133,396,o),
(113,378,o),
(109,353,cs),
(56,55,ls),
(50,27,o),
(72,0,o),
(102,0,cs),
(130,0,o),
(146,20,o),
(150,44,cs),
(203,340,ls)
);
},
{
closed = 1;
nodes = (
(111,232,l),
(111,174,l),
(215,24,ls),
(226,8,o),
(243,0,o),
(259,0,cs),
(281,0,o),
(300,14,o),
(304,34,c),
(308,46,o),
(305,59,o),
(295,73,cs),
(185,232,l)
);
},
{
closed = 1;
nodes = (
(177,179,l),
(338,312,ls),
(350,321,o),
(358,334,o),
(360,345,cs),
(364,373,o),
(343,396,o),
(316,396,cs),
(304,396,o),
(288,391,o),
(275,379,cs),
(111,243,l),
(111,179,l)
);
}
);
vertWidth = 0;
width = 419;
}
);
},
{
color = 6;
glyphname = l.sc;
layers = (
{
layerId = m01;
shapes = (
{
closed = 1;
nodes = (
(122,381,o),
(115,395,o),
(97,395,cs),
(82,395,o),
(72,385,o),
(69,369,cs),
(9,29,ls),
(6,14,o),
(16,0,o),
(34,0,cs),
(52,0,o),
(57,14,o),
(59,24,cs),
(119,363,ls)
);
},
{
closed = 1;
nodes = (
(221,0,ls),
(237,0,o),
(246,14,o),
(246,27,cs),
(246,40,o),
(237,53,o),
(221,53,cs),
(33,53,l),
(33,0,l)
);
}
);
vertWidth = 0;
width = 318;
},
{
layerId = m002;
shapes = (
{
closed = 1;
nodes = (
(208,372,o),
(188,395,o),
(158,395,cs),
(134,395,o),
(113,379,o),
(108,353,cs),
(55,52,ls),
(50,24,o),
(71,0,o),
(102,0,cs),
(129,0,o),
(145,18,o),
(149,41,cs),
(202,340,ls)
);
},
{
closed = 1;
nodes = (
(268,0,ls),
(296,0,o),
(315,17,o),
(315,41,cs),
(315,64,o),
(296,77,o),
(268,77,cs),
(101,77,l),
(101,0,l)
);
}
);
vertWidth = 0;
width = 428;
}
);
},
{
color = 6;
glyphname = m.sc;
layers = (
{
layerId = m01;
shapes = (
{
closed = 1;
nodes = (
(183,396,l),
(168,396,o),
(162,388,o),
(154,373,cs),
(-21,39,ls),
(-30,21,o),
(-21,0,o),
(-1,0,cs),
(7,0,o),
(18,5,o),
(26,21,cs),
(186,327,l)
);
},
{
closed = 1;
nodes = (
(207,374,ls),
(206,385,o),
(200,396,o),
(183,396,c),
(160,327,l),
(184,24,ls),
(185,11,o),
(191,0,o),
(208,0,c),
(232,50,l)
);
},
{
closed = 1;
nodes = (
(223,0,o),
(230,8,o),
(235,17,cs),
(397,327,l),
(394,396,l),
(381,396,o),
(372,388,o),
(367,378,cs),
(200,58,l),
(207,0,l)
);
},
{
closed = 1;
nodes = (
(418,384,o),
(408,396,o),
(394,396,c),
(372,327,l),
(397,25,ls),
(398,12,o),
(406,0,o),
(423,0,cs),
(439,0,o),
(448,13,o),
(447,28,cs),
(419,367,ls)
);
}
);
vertWidth = 0;
width = 533;
},
{
layerId = m002;
shapes = (
{
closed = 1;
nodes = (
(234,396,l),
(212,396,o),
(200,393,o),
(185,364,cs),
(30,67,ls),
(14,36,o),
(35,0,o),
(70,0,cs),
(86,0,o),
(105,9,o),
(116,31,cs),
(261,307,l)
);
},
{
closed = 1;
nodes = (
(279,356,ls),
(277,385,o),
(256,396,o),
(235,396,c),
(188,315,l),
(209,42,ls),
(211,11,o),
(233,0,o),
(255,0,c),
(301,63,l)
);
},
{
closed = 1;
nodes = (
(279,0,o),
(289,5,o),
(301,28,cs),
(447,307,l),
(429,396,l),
(403,396,o),
(385,389,o),
(373,366,cs),
(222,78,l),
(256,0,l)
);
},
{
closed = 1;
nodes = (
(472,389,o),
(455,396,o),
(428,396,c),
(382,315,l),
(405,43,ls),
(407,19,o),
(426,0,o),
(453,0,cs),
(482,0,o),
(502,22,o),
(500,50,cs),
(475,350,ls)
);
}
);
vertWidth = 0;
width = 641;
}
);
},
{
color = 6;
glyphname = n.sc;
layers = (
{
layerId = m01;
shapes = (
{
closed = 1;
nodes = (
(123,376,ls),
(118,387,o),
(111,396,o),
(95,396,c),
(85,340,l),
(237,22,ls),
(242,12,o),
(250,0,o),
(264,0,c),
(278,52,l)
);
},
{
closed = 1;
nodes = (
(96,396,l),
(80,396,o),
(72,386,o),
(69,369,cs),
(9,29,ls),
(7,15,o),
(16,0,o),
(33,0,cs),
(50,0,o),
(57,13,o),
(59,26,cs),
(115,340,l)
);
},
{
closed = 1;
nodes = (
(280,0,o),
(288,12,o),
(290,22,cs),
(349,363,ls),
(352,381,o),
(344,395,o),
(327,395,cs),
(312,395,o),
(302,385,o),
(299,369,cs),
(244,52,l),
(265,0,l)
);
}
);
vertWidth = 0;
width = 412;
},
{
layerId = m002;
shapes = (
{
closed = 1;
nodes = (
(204,366,ls),
(193,389,o),
(174,396,o),
(154,396,c),
(121,321,l),
(259,32,ls),
(268,14,o),
(278,0,o),
(316,0,c),
(344,71,l)
);
},
{
closed = 1;
nodes = (
(153,396,l),
(130,396,o),
(115,390,o),
(108,353,cs),
(55,52,ls),
(50,25,o),
(71,0,o),
(101,0,cs),
(126,0,o),
(147,17,o),
(151,42,cs),
(201,326,l)
);
},
{
closed = 1;
nodes = (
(341,0,o),
(350,15,o),
(354,38,cs),
(406,341,ls),
(411,368,o),
(393,395,o),
(361,395,cs),
(337,395,o),
(315,379,o),
(311,353,cs),
(262,67,l),
(317,0,l)
);
}
);
vertWidth = 0;
width = 517;
}
);
},
{
color = 6;
glyphname = o.sc;
layers = (
{
layerId = m01;
shapes = (
{
closed = 1;
nodes = (
(214,-2,o),
(326,154,o),
(334,262,cs),
(340,332,o),
(305,396,o),
(213,396,cs),
(125,396,o),
(74,337,o),
(48,249,cs),
(41,226,o),
(36,199,o),
(34,172,cs),
(27,93,o),
(46,-2,o),
(121,-2,cs)
);
},
{
closed = 1;
nodes = (
(88,51,o),
(80,114,o),
(84,165,cs),
(86,188,o),
(90,212,o),
(95,231,cs),
(116,307,o),
(148,343,o),
(210,343,cs),
(280,343,o),
(287,295,o),
(284,260,cs),
(275,171,o),
(169,51,o),
(120,51,cs)
);
}
);
vertWidth = 0;
width = 397;
},
{
layerId = m002;
shapes = (
{
closed = 1;
nodes = (
(288,-3,o),
(394,148,o),
(402,252,cs),
(408,325,o),
(368,396,o),
(270,396,cs),
(178,396,o),
(125,333,o),
(100,249,cs),
(94,227,o),
(88,201,o),
(87,175,cs),
(80,100,o),
(100,-3,o),
(189,-3,cs)
);
},
{
closed = 1;
nodes = (
(179,90,o),
(177,123,o),
(181,166,cs),
(183,186,o),
(186,206,o),
(190,220,cs),
(207,283,o),
(224,303,o),
(267,303,cs),
(308,303,o),
(311,282,o),
(308,254,cs),
(301,182,o),
(219,90,o),
(188,90,cs)
);
}
);
vertWidth = 0;
width = 524;
}
);
},
{
color = 6;
glyphname = p.sc;
layers = (
{
layerId = m01;
shapes = (
{
closed = 1;
nodes = (
(163,185,o),
(286,178,o),
(286,283,cs),
(286,363,o),
(222,396,o),
(96,396,c),
(96,343,l),
(198,344,o),
(236,324,o),
(236,286,cs),
(236,231,o),
(145,238,o),
(81,238,c),
(72,185,l)
);
},
{
closed = 1;
nodes = (
(122,383,o),
(108,396,o),
(97,396,cs),
(79,396,o),
(72,384,o),
(69,369,cs),
(9,29,ls),
(7,15,o),
(16,0,o),
(33,0,cs),
(50,0,o),
(57,14,o),
(59,24,cs),
(119,365,ls)
);
}
);
vertWidth = 0;
width = 300;
},
{
layerId = m002;
shapes = (
{
closed = 1;
nodes = (
(175,151,o),
(326,139,o),
(350,273,cs),
(365,358,o),
(271,396,o),
(156,396,c),
(156,303,l),
(249,305,o),
(266,301,o),
(258,261,cs),
(252,232,o),
(186,222,o),
(123,222,c),
(107,151,l)
);
},
{
closed = 1;
nodes = (
(208,373,o),
(183,396,o),
(158,396,cs),
(132,396,o),
(113,381,o),
(108,353,cs),
(55,52,ls),
(50,25,o),
(71,0,o),
(101,0,cs),
(128,0,o),
(146,20,o),
(150,41,cs),
(203,342,ls)
);
}
);
vertWidth = 0;
width = 422;
}
);
},
{
color = 6;
glyphname = q.sc;
layers = (
{
layerId = m01;
shapes = (
{
closed = 1;
nodes = (
(214,-2,o),
(323,138,o),
(332,248,cs),
(340,325,o),
(299,396,o),
(211,396,cs),
(124,396,o),
(74,341,o),
(48,249,cs),
(41,225,o),
(36,198,o),
(33,171,cs),
(27,91,o),
(46,-2,o),
(122,-2,cs)
);
},
{
closed = 1;
nodes = (
(177,120,o),
(160,123,o),
(148,113,cs),
(137,105,o),
(135,92,o),
(146,76,cs),
(206,-11,ls),
(215,-25,o),
(229,-31,o),
(241,-25,cs),
(253,-18,o),
(258,2,o),
(248,16,cs),
(187,105,ls)
);
},
{
closed = 1;
nodes = (
(85,51,o),
(79,111,o),
(83,161,cs),
(86,187,o),
(90,211,o),
(96,232,cs),
(117,306,o),
(145,343,o),
(207,343,cs),
(270,343,o),
(286,295,o),
(282,250,cs),
(273,162,o),
(179,51,o),
(122,51,cs)
);
}
);
vertWidth = 0;
width = 397;
},
{
layerId = m002;
shapes = (
{
closed = 1;
nodes = (
(288,-2,o),
(392,135,o),
(401,240,cs),
(409,319,o),
(364,396,o),
(269,396,cs),
(178,396,o),
(126,338,o),
(100,249,cs),
(93,226,o),
(89,200,o),
(86,176,cs),
(81,100,o),
(100,-2,o),
(190,-2,cs)
);
},
{
closed = 1;
nodes = (
(255,145,o),
(229,158,o),
(208,140,cs),
(188,125,o),
(189,102,o),
(206,77,cs),
(258,0,ls),
(274,-24,o),
(301,-30,o),
(320,-18,cs),
(343,-4,o),
(339,19,o),
(324,42,cs),
(271,121,ls)
);
},
{
closed = 1;
nodes = (
(180,88,o),
(177,121,o),
(180,163,cs),
(183,185,o),
(187,205,o),
(191,222,cs),
(209,284,o),
(223,303,o),
(265,303,cs),
(303,303,o),
(311,281,o),
(307,246,cs),
(298,162,o),
(228,88,o),
(190,88,cs)
);
}
);
vertWidth = 0;
width = 525;
}
);
},
{
color = 6;
glyphname = r.sc;
layers = (
{
layerId = m01;
shapes = (
{
closed = 1;
nodes = (
(165,175,o),
(267,179,o),
(286,281,cs),
(300,362,o),
(221,396,o),
(96,396,c),
(96,343,l),
(201,344,o),
(243,325,o),
(236,288,cs),
(226,231,o),
(154,227,o),
(80,227,c),
(72,175,l)
);
},
{
closed = 1;
nodes = (
(72,188,l),
(195,15,ls),
(203,4,o),
(210,0,o),
(217,0,cs),
(241,0,o),
(249,26,o),
(237,43,cs),
(133,188,l)
);
},
{
closed = 1;
nodes = (
(122,381,o),
(116,396,o),
(97,396,cs),
(79,396,o),
(72,384,o),
(69,369,cs),
(10,33,ls),
(7,15,o),
(17,0,o),
(33,0,cs),
(52,0,o),
(59,14,o),
(61,28,cs),
(119,363,ls)
);
}
);
vertWidth = 0;
width = 314;
},
{
layerId = m002;
shapes = (
{
closed = 1;
nodes = (
(191,151,o),
(328,145,o),
(350,267,cs),
(367,363,o),
(272,396,o),
(157,396,c),
(157,303,l),
(266,303,o),
(259,284,o),
(256,268,cs),
(250,233,o),
(198,225,o),
(121,225,c),
(107,151,l)
);
},
{
closed = 1;
nodes = (
(118,172,l),
(225,23,ls),
(237,7,o),
(250,0,o),
(264,0,cs),
(305,0,o),
(326,43,o),
(303,74,cs),
(231,172,l)
);
},
{
closed = 1;
nodes = (
(208,374,o),
(187,396,o),
(158,396,cs),
(132,396,o),
(113,381,o),
(108,353,cs),
(56,56,ls),
(51,26,o),
(71,0,o),
(101,0,cs),
(129,0,o),
(147,18,o),
(151,44,cs),
(202,340,ls)
);
}
);
vertWidth = 0;
width = 425;
}
);
},
{
color = 6;
glyphname = s.sc;
layers = (
{
layerId = m01;
shapes = (
{
closed = 1;
nodes = (
(158,0,o),
(266,31,o),
(266,117,cs),
(266,172,o),
(221,203,o),
(211,210,cs),
(196,220,o),
(183,229,o),
(172,237,cs),
(126,269,o),
(106,282,o),
(106,295,cs),
(106,320,o),
(159,343,o),
(201,343,cs),
(289,343,ls),
(303,343,o),
(314,356,o),
(314,370,cs),
(314,391,o),
(298,396,o),
(289,396,cs),
(202,396,ls),
(123,396,o),
(56,348,o),
(56,293,cs),
(56,253,o),
(91,229,o),
(143,194,cs),
(153,187,o),
(164,179,o),
(176,171,cs),
(191,160,o),
(216,142,o),
(216,116,cs),
(216,69,o),
(136,53,o),
(100,53,cs),
(32,53,ls),
(18,53,o),
(7,39,o),
(7,26,cs),
(7,5,o),
(24,0,o),
(32,0,cs),
(100,0,ls)
);
}
);
vertWidth = 0;
width = 357;
},
{
layerId = m002;
shapes = (
{
closed = 1;
nodes = (
(229,0,o),
(347,31,o),
(347,126,cs),
(347,187,o),
(292,221,o),
(284,227,cs),
(272,236,o),
(263,242,o),
(251,250,cs),
(227,266,o),
(202,280,o),
(202,285,cs),
(202,292,o),
(229,303,o),
(261,303,cs),
(341,303,ls),
(368,303,o),
(388,326,o),
(388,350,cs),
(388,382,o),
(368,396,o),
(341,396,cs),
(261,396,ls),
(180,396,o),
(106,346,o),
(106,282,cs),
(106,235,o),
(148,209,o),
(195,175,cs),
(203,169,o),
(214,162,o),
(224,155,cs),
(237,146,o),
(249,137,o),
(249,125,cs),
(249,103,o),
(200,93,o),
(171,93,cs),
(110,93,ls),
(84,93,o),
(63,69,o),
(63,46,cs),
(63,14,o),
(90,0,o),
(110,0,cs),
(171,0,ls)
);
}
);
vertWidth = 0;
width = 493;
}
);
},
{
color = 6;
glyphname = t.sc;
layers = (
{
layerId = m01;
shapes = (
{
closed = 1;
nodes = (
(158,358,l),
(101,29,ls),
(99,15,o),
(107,0,o),
(125,0,cs),
(143,0,o),
(149,14,o),
(151,24,cs),
(209,358,l)
);
},
{
closed = 1;
nodes = (
(295,342,o),
(304,353,o),
(304,368,cs),
(304,383,o),
(295,395,o),
(279,395,cs),
(94,395,ls),
(77,395,o),
(68,383,o),
(68,368,cs),
(68,353,o),
(77,342,o),
(94,342,cs),
(279,342,ls)
);
}
);
vertWidth = 0;
width = 258;
},
{
layerId = m002;
shapes = (
{
closed = 1;
nodes = (
(190,313,l),
(144,52,ls),
(139,25,o),
(160,0,o),
(191,0,cs),
(218,0,o),
(236,18,o),
(240,40,cs),
(288,313,l)
);
},
{
closed = 1;
nodes = (
(354,302,o),
(374,322,o),
(374,348,cs),
(374,375,o),
(354,395,o),
(327,395,cs),
(164,395,ls),
(136,395,o),
(116,375,o),
(116,348,cs),
(116,322,o),
(136,302,o),
(164,302,cs),
(327,302,ls)
);
}
);
vertWidth = 0;
width = 479;
}
);
},
{
color = 6;
glyphname = u.sc;
layers = (
{
layerId = m01;
shapes = (
{
closed = 1;
nodes = (
(277,305,l),
(265,254,o),
(243,227,o),
(232,209,cs),
(197,151,o),
(118,50,o),
(79,50,cs),
(65,50,o),
(68,76,o),
(75,113,cs),
(120,364,ls),
(123,379,o),
(115,394,o),
(99,395,cs),
(85,395,o),
(73,385,o),
(70,367,cs),
(25,118,ls),
(11,38,o),
(32,-2,o),
(74,-2,cs),
(128,-2,o),
(204,70,o),
(289,196,c),
(289,305,l)
);
},
{
closed = 1;
nodes = (
(342,381,o),
(332,395,o),
(314,395,cs),
(300,395,o),
(290,385,o),
(288,371,cs),
(228,29,ls),
(225,12,o),
(237,-1,o),
(252,-1,cs),
(265,-1,o),
(276,9,o),
(278,23,cs),
(339,366,ls)
);
}
);
vertWidth = 0;
width = 400;
},
{
layerId = m002;
shapes = (
{
closed = 1;
nodes = (
(297,316,l),
(290,264,o),
(272,232,o),
(260,213,cs),
(229,161,o),
(173,90,o),
(164,90,cs),
(159,90,o),
(163,119,o),
(168,148,cs),
(203,341,ls),
(208,368,o),
(190,394,o),
(161,396,cs),
(136,396,o),
(114,379,o),
(109,352,cs),
(69,131,ls),
(53,44,o),
(84,-2,o),
(138,-2,cs),
(200,-2,o),
(265,77,o),
(343,194,c),
(353,316,l)
);
},
{
closed = 1;
nodes = (
(402,371,o),
(381,396,o),
(350,396,cs),
(326,396,o),
(306,378,o),
(302,355,cs),
(249,52,ls),
(244,23,o),
(267,-1,o),
(295,-1,cs),
(319,-1,o),
(339,16,o),
(343,39,cs),
(397,343,ls)
);
}
);
vertWidth = 0;
width = 506;
}
);
},
{
color = 6;
glyphname = v.sc;
layers = (
{
layerId = m01;
shapes = (
{
closed = 1;
nodes = (
(104,0,o),
(114,13,o),
(118,21,cs),
(294,358,ls),
(304,377,o),
(291,395,o),
(275,395,cs),
(259,395,o),
(252,386,o),
(245,373,cs),
(80,57,l),
(88,0,l)
);
},
{
closed = 1;
nodes = (
(87,370,ls),
(86,384,o),
(78,395,o),
(61,395,cs),
(44,395,o),
(36,381,o),
(37,367,cs),
(65,28,ls),
(66,13,o),
(76,0,o),
(89,0,c),
(113,57,l)
);
}
);
vertWidth = 0;
width = 322;
},
{
layerId = m002;
shapes = (
{
closed = 1;
nodes = (
(164,0,o),
(187,11,o),
(198,32,cs),
(353,329,ls),
(370,362,o),
(347,395,o),
(314,395,cs),
(291,395,o),
(274,383,o),
(264,364,cs),
(114,77,l),
(145,0,l)
);
},
{
closed = 1;
nodes = (
(173,352,ls),
(171,377,o),
(152,395,o),
(125,395,cs),
(95,395,o),
(78,372,o),
(78,347,c),
(103,46,ls),
(106,13,o),
(128,0,o),
(146,0,c),
(196,69,l)
);
}
);
vertWidth = 0;
width = 445;
}
);
},
{
color = 6;
glyphname = w.sc;
layers = (
{
layerId = m01;
shapes = (
{
closed = 1;
nodes = (
(315,0,o),
(324,10,o),
(330,21,cs),
(506,358,ls),
(515,375,o),
(504,396,o),
(487,396,cs),
(474,396,o),
(463,386,o),
(456,373,cs),
(294,63,l),
(301,0,l)
);
},
{
closed = 1;
nodes = (
(87,369,ls),
(86,383,o),
(78,396,o),
(61,396,cs),
(44,396,o),
(36,381,o),
(37,367,cs),
(65,28,ls),
(66,14,o),
(75,0,o),
(90,0,c),
(112,63,l)
);
},
{
closed = 1;
nodes = (
(104,0,o),
(111,9,o),
(118,22,cs),
(282,337,l),
(273,396,l),
(260,396,o),
(250,383,o),
(245,374,cs),
(83,63,l),
(89,0,l)
);
},
{
closed = 1;
nodes = (
(300,370,ls),
(299,384,o),
(288,396,o),
(272,396,c),
(253,337,l),
(277,22,ls),
(278,10,o),
(288,0,o),
(302,0,c),
(325,63,l)
);
}
);
vertWidth = 0;
width = 534;
},
{
layerId = m002;
shapes = (
{
closed = 1;
nodes = (
(360,0,o),
(373,8,o),
(385,30,cs),
(541,329,ls),
(558,361,o),
(536,396,o),
(502,396,cs),
(481,396,o),
(462,383,o),
(452,364,cs),
(305,83,l),
(338,0,l)
);
},
{
closed = 1;
nodes = (
(174,351,ls),
(172,379,o),
(150,396,o),
(125,396,cs),
(93,396,o),
(77,370,o),
(79,346,cs),
(103,46,ls),
(105,15,o),
(114,0,o),
(138,0,c),
(196,76,l)
);
},
{
closed = 1;
nodes = (
(163,0,o),
(185,9,o),
(197,31,cs),
(346,317,l),
(313,396,l),
(293,396,o),
(279,388,o),
(266,364,cs),
(118,83,l),
(139,0,l)
);
},
{
closed = 1;
nodes = (
(361,351,l),
(360,383,o),
(338,396,o),
(314,396,c),
(270,324,l),
(291,40,ls),
(293,9,o),
(318,0,o),
(337,0,c),
(384,76,l)
);
}
);
vertWidth = 0;
width = 633;
}
);
},
{
color = 6;
glyphname = x.sc;
layers = (
{
layerId = m01;
shapes = (
{
closed = 1;
nodes = (
(349,365,o),
(350,384,o),
(339,392,cs),
(328,399,o),
(309,396,o),
(298,383,cs),
(15,42,ls),
(5,30,o),
(7,13,o),
(17,5,cs),
(29,-3,o),
(46,-3,o),
(56,10,cs),
(339,351,l)
);
},
{
closed = 1;
nodes = (
(113,393,o),
(99,399,o),
(87,394,cs),
(73,390,o),
(66,373,o),
(74,356,cs),
(235,18,ls),
(243,1,o),
(259,-4,o),
(273,3,cs),
(284,10,o),
(289,24,o),
(283,37,cs),
(121,377,ls)
);
}
);
vertWidth = 0;
width = 377;
},
{
layerId = m002;
shapes = (
{
closed = 1;
nodes = (
(410,339,o),
(411,372,o),
(386,389,cs),
(367,402,o),
(333,397,o),
(316,376,cs),
(67,75,ls),
(49,53,o),
(52,26,o),
(71,10,cs),
(92,-6,o),
(126,-3,o),
(144,18,cs),
(394,320,ls)
);
},
{
closed = 1;
nodes = (
(189,392,o),
(162,402,o),
(140,392,c),
(114,384,o),
(101,356,o),
(114,328,cs),
(257,29,ls),
(270,1,o),
(305,-8,o),
(328,6,cs),
(348,20,o),
(357,42,o),
(346,65,cs),
(202,366,ls)
);
}
);
vertWidth = 0;
width = 484;
}
);
},
{
color = 6;
glyphname = y.sc;
layers = (
{
layerId = m01;
shapes = (
{
closed = 1;
nodes = (
(338,351,ls),
(350,366,o),
(348,382,o),
(337,390,cs),
(325,400,o),
(310,396,o),
(299,382,cs),
(160,215,l),
(190,171,l)
);
},
{
closed = 1;
nodes = (
(155,208,l),
(123,29,ls),
(120,14,o),
(130,0,o),
(147,0,cs),
(166,0,o),
(172,14,o),
(174,24,cs),
(205,208,l)
);
},
{
closed = 1;
nodes = (
(198,215,l),
(118,377,ls),
(111,391,o),
(99,400,o),
(82,394,cs),
(69,389,o),
(65,372,o),
(72,357,cs),
(160,175,l)
);
}
);
vertWidth = 0;
width = 299;
},
{
layerId = m002;
shapes = (
{
closed = 1;
nodes = (
(401,320,l),
(417,342,o),
(418,368,o),
(396,385,cs),
(377,401,o),
(345,399,o),
(325,376,cs),
(191,214,l),
(248,134,l)
);
},
{
closed = 1;
nodes = (
(198,230,l),
(166,52,ls),
(161,24,o),
(182,0,o),
(212,0,cs),
(240,0,o),
(256,19,o),
(261,40,c),
(292,230,l)
);
},
{
closed = 1;
nodes = (
(287,209,l),
(209,366,ls),
(196,392,o),
(169,402,o),
(145,392,cs),
(118,382,o),
(111,352,o),
(122,329,cs),
(216,136,l)
);
}
);
vertWidth = 0;
width = 517;
}
);
},
{
color = 6;
glyphname = z.sc;
layers = (
{
layerId = m01;
shapes = (
{
closed = 1;
nodes = (
(346,360,o),
(347,373,o),
(342,383,cs),
(338,389,o),
(329,395,o),
(317,395,cs),
(310,395,o),
(303,387,o),
(299,383,cs),
(15,40,ls),
(10,33,o),
(5,23,o),
(10,13,cs),
(14,5,o),
(23,0,o),
(38,0,cs),
(46,0,o),
(52,6,o),
(56,10,cs),
(338,351,ls)
);
},
{
closed = 1;
nodes = (
(258,0,ls),
(275,0,o),
(284,11,o),
(284,26,cs),
(284,41,o),
(275,53,o),
(258,53,cs),
(83,53,l),
(37,0,l)
);
},
{
closed = 1;
nodes = (
(319,395,l),
(95,395,ls),
(78,395,o),
(69,381,o),
(69,368,cs),
(69,355,o),
(78,342,o),
(95,342,cs),
(274,342,l)
);
}
);
vertWidth = 0;
width = 406;
},
{
layerId = m002;
shapes = (
{
closed = 1;
nodes = (
(407,333,o),
(407,354,o),
(399,372,cs),
(391,386,o),
(373,395,o),
(354,395,cs),
(344,395,o),
(325,386,o),
(318,380,c),
(66,75,ls),
(56,62,o),
(51,44,o),
(59,26,cs),
(66,10,o),
(84,0,o),
(107,0,cs),
(123,0,o),
(137,8,o),
(145,17,cs),
(394,318,ls)
);
},
{
closed = 1;
nodes = (
(302,0,ls),
(330,0,o),
(350,20,o),
(350,46,cs),
(350,72,o),
(330,93,o),
(302,93,cs),
(186,93,l),
(105,0,l)
);
},
{
closed = 1;
nodes = (
(356,395,l),
(157,395,ls),
(128,395,o),
(109,372,o),
(109,348,cs),
(109,324,o),
(129,302,o),
(157,302,cs),
(277,302,l)
);
}
);
vertWidth = 0;
width = 514;
}
);
},
{
color = 6;
glyphname = zero;
layers = (
{
layerId = m01;
shapes = (
{
closed = 1;
nodes = (
(254,-3,o),
(423,228,o),
(423,402,cs),
(423,477,o),
(394,568,o),
(288,568,cs),
(99,568,o),
(22,280,o),
(22,160,cs),
(22,81,o),
(56,-4,o),
(131,-4,cs)
);
},
{
closed = 1;
nodes = (
(99,47,o),
(74,84,o),
(74,155,cs),
(74,279,o),
(153,517,o),
(290,517,cs),
(355,517,o),
(371,463,o),
(371,405,cs),
(371,212,o),
(195,47,o),
(130,47,cs)
);
}
);
vertWidth = 0;
width = 445;
},
{
layerId = m002;
shapes = (
{
closed = 1;
nodes = (
(284,-3,o),
(449,223,o),
(449,395,cs),
(449,471,o),
(417,568,o),
(297,568,cs),
(97,568,o),
(22,290,o),
(22,172,cs),
(22,91,o),
(59,-4,o),
(149,-4,cs)
);
},
{
closed = 1;
nodes = (
(133,88,o),
(121,107,o),
(121,168,cs),
(121,281,o),
(189,476,o),
(299,476,cs),
(341,476,o),
(350,449,o),
(350,398,cs),
(350,225,o),
(199,88,o),
(149,88,cs)
);
}
);
vertWidth = 0;
width = 471;
}
);
unicode = 48;
},
{
color = 6;
glyphname = one;
layers = (
{
layerId = m01;
shapes = (
{
closed = 1;
nodes = (
(227,560,o),
(216,568,o),
(203,568,cs),
(190,568,o),
(176,561,o),
(173,543,cs),
(82,28,ls),
(79,9,o),
(91,0,o),
(104,0,cs),
(116,0,o),
(129,6,o),
(132,23,cs),
(224,543,ls)
);
}
);
vertWidth = 0;
width = 321;
},
{
layerId = m002;
shapes = (
{
closed = 1;
nodes = (
(259,548,o),
(235,568,o),
(208,568,cs),
(185,568,o),
(159,554,o),
(154,526,cs),
(70,51,ls),
(64,18,o),
(90,0,o),
(117,0,cs),
(139,0,o),
(164,12,o),
(169,39,cs),
(254,518,ls)
);
}
);
vertWidth = 0;
width = 337;
}
);
unicode = 49;
},
{
color = 6;
glyphname = two;
layers = (
{
layerId = m01;
shapes = (
{
closed = 1;
nodes = (
(-34,30,o),
(-21,0,o),
(6,0,c),
(49,49,l),
(107,115,o),
(244,263,o),
(257,278,cs),
(382,431,o),
(393,501,o),
(314,549,cs),
(245,591,o),
(126,558,o),
(63,505,cs),
(39,485,o),
(43,472,o),
(51,463,cs),
(59,454,o),
(75,451,o),
(100,471,cs),
(152,513,o),
(248,531,o),
(291,505,cs),
(341,475,o),
(289,392,o),
(236,332,cs),
(-11,55,ls)
);
},
{
closed = 1;
nodes = (
(286,37,o),
(280,50,o),
(260,50,cs),
(6,50,l),
(6,0,l),
(260,0,ls),
(280,0,o),
(286,13,o),
(286,25,cs)
);
}
);
vertWidth = 0;
width = 380;
},
{
layerId = m002;
shapes = (
{
closed = 1;
nodes = (
(-23,41,o),
(-8,0,o),
(32,0,c),
(107,49,l),
(162,112,o),
(292,251,o),
(303,264,cs),
(428,417,o),
(442,491,o),
(351,547,cs),
(276,593,o),
(148,558,o),
(84,504,cs),
(50,476,o),
(56,454,o),
(73,434,cs),
(85,421,o),
(115,413,o),
(153,443,cs),
(198,479,o),
(271,493,o),
(303,473,cs),
(330,457,o),
(294,397,o),
(246,343,cs),
(3,70,l)
);
},
{
closed = 1;
nodes = (
(337,65,o),
(319,86,o),
(287,86,cs),
(31,86,l),
(31,0,l),
(287,0,ls),
(317,0,o),
(337,14,o),
(337,41,cs)
);
}
);
vertWidth = 0;
width = 430;
},
{
associatedMasterId = m01;
layerId = "2289F6C3-EA17-4427-A9F7-39E6DE0574E1";
name = background;
shapes = (
{
closed = 1;
nodes = (
(99,49,l),
(156,115,o),
(284,263,o),
(297,278,cs),
(422,431,o),
(433,501,o),
(354,549,cs),
(285,591,o),
(166,558,o),
(103,505,cs),
(79,485,o),
(83,472,o),
(91,463,cs),
(99,454,o),
(115,451,o),
(140,471,cs),
(192,513,o),
(288,531,o),
(331,505,cs),
(381,475,o),
(328,393,o),
(276,332,cs),
(250,301,o),
(147,185,o),
(12,35,cs),
(-5,16,o),
(6,0,o),
(28,0,c),
(49,0,l)
);
},
{
closed = 1;
nodes = (
(300,0,ls),
(320,0,o),
(326,13,o),
(326,25,cs),
(326,37,o),
(320,50,o),
(300,50,cs),
(45,50,l),
(45,0,l)
);
}
);
vertWidth = 0;
width = 500;
}
);
unicode = 50;
},
{
color = 6;
glyphname = three;
layers = (
{
layerId = m01;
shapes = (
{
closed = 1;
nodes = (
(-16,54,o),
(-15,42,o),
(6,25,cs),
(30,6,o),
(62,-4,o),
(96,-4,cs),
(210,-4,o),
(353,98,o),
(353,226,cs),
(353,303,o),
(302,354,o),
(219,354,cs),
(183,354,o),
(176,357,o),
(84,317,c),
(108,277,l),
(161,307,o),
(194,308,o),
(222,308,cs),
(281,308,o),
(303,266,o),
(303,225,cs),
(303,125,o),
(185,47,o),
(97,47,cs),
(73,47,o),
(52,52,o),
(32,67,cs),
(16,79,o),
(0,78,o),
(-8,66,cs)
);
},
{
closed = 1;
nodes = (
(73,460,o),
(89,455,o),
(102,464,cs),
(163,505,o),
(220,522,o),
(257,522,cs),
(287,522,o),
(300,513,o),
(300,495,cs),
(300,460,o),
(182,374,o),
(84,317,cs),
(67,307,o),
(64,294,o),
(70,282,cs),
(76,271,o),
(92,268,o),
(108,277,cs),
(236,349,o),
(350,437,o),
(350,499,cs),
(350,542,o),
(310,568,o),
(251,568,cs),
(203,568,o),
(142,551,o),
(82,511,cs),
(57,495,o),
(62,478,o),
(67,470,cs)
);
}
);
vertWidth = 0;
width = 404;
},
{
layerId = m002;
shapes = (
{
closed = 1;
nodes = (
(-22,76,o),
(-24,54,o),
(9,28,cs),
(35,7,o),
(72,-4,o),
(109,-4,cs),
(244,-4,o),
(388,125,o),
(388,254,cs),
(388,328,o),
(333,369,o),
(252,369,cs),
(209,369,o),
(157,360,o),
(95,327,c),
(147,256,l),
(175,275,o),
(213,282,o),
(241,282,cs),
(272,282,o),
(291,269,o),
(291,240,cs),
(291,160,o),
(195,86,o),
(110,86,cs),
(92,86,o),
(79,90,o),
(66,100,cs),
(35,124,o),
(0,113,o),
(-11,93,cs)
);
},
{
closed = 1;
nodes = (
(84,423,o),
(114,416,o),
(137,431,cs),
(192,468,o),
(242,482,o),
(273,482,cs),
(284,482,o),
(289,479,o),
(289,473,cs),
(289,457,o),
(165,374,o),
(95,327,cs),
(68,309,o),
(65,290,o),
(75,270,cs),
(86,249,o),
(120,238,o),
(147,256,cs),
(263,331,o),
(385,426,o),
(385,500,cs),
(385,548,o),
(334,568,o),
(266,568,cs),
(212,568,o),
(151,550,o),
(91,510,cs),
(58,489,o),
(60,464,o),
(71,445,cs)
);
}
);
vertWidth = 0;
width = 436;
},
{
associatedMasterId = m01;
layerId = "D5837476-B911-47A8-8C16-63685508A3DF";
name = background;
shapes = (
{
closed = 1;
nodes = (
(169,296,o),
(206,305,o),
(234,305,cs),
(293,305,o),
(313,266,o),
(313,225,cs),
(313,125,o),
(195,47,o),
(107,47,cs),
(83,47,o),
(61,53,o),
(44,66,cs),
(20,84,o),
(6,72,o),
(1,65,cs),
(-4,58,o),
(-9,45,o),
(16,25,cs),
(40,5,o),
(72,-4,o),
(106,-4,cs),
(220,-4,o),
(363,98,o),
(363,226,cs),
(363,303,o),
(312,354,o),
(229,354,cs),
(193,354,o),
(151,345,o),
(105,324,c),
(121,275,l)
);
},
{
closed = 1;
nodes = (
(242,355,o),
(360,437,o),
(360,499,cs),
(360,542,o),
(320,568,o),
(261,568,cs),
(213,568,o),
(152,551,o),
(92,511,cs),
(67,495,o),
(72,478,o),
(77,470,cs),
(83,460,o),
(99,455,o),
(112,464,cs),
(173,505,o),
(230,522,o),
(267,522,cs),
(294,522,o),
(310,513,o),
(310,499,cs),
(310,466,o),
(175,368,o),
(91,316,cs),
(74,305,o),
(77,288,o),
(81,280,cs),
(86,270,o),
(104,263,o),
(119,273,cs)
);
}
);
vertWidth = 0;
width = 500;
},
{
associatedMasterId = m002;
layerId = "72DCB3B5-02A1-4512-91A5-D0E1AFCD3C46";
name = background;
shapes = (
{
closed = 1;
nodes = (
(-23,76,o),
(-25,54,o),
(8,28,cs),
(34,7,o),
(71,-4,o),
(108,-4,cs),
(228,-4,o),
(363,96,o),
(386,229,cs),
(401,313,o),
(343,379,o),
(251,379,cs),
(208,379,o),
(154,366,o),
(92,333,c),
(146,256,l),
(174,275,o),
(212,282,o),
(240,282,cs),
(279,282,o),
(295,262,o),
(289,228,cs),
(274,145,o),
(184,86,o),
(109,86,cs),
(91,86,o),
(78,90,o),
(65,100,cs),
(34,124,o),
(-1,113,o),
(-12,93,cs)
);
},
{
closed = 1;
nodes = (
(83,423,o),
(111,424,o),
(134,439,cs),
(189,476,o),
(239,488,o),
(270,488,cs),
(277,488,o),
(287,487,o),
(286,481,cs),
(283,465,o),
(167,383,o),
(92,333,cs),
(65,315,o),
(64,290,o),
(74,270,cs),
(85,249,o),
(119,238,o),
(146,256,cs),
(256,330,o),
(370,410,o),
(383,481,cs),
(393,535,o),
(333,568,o),
(265,568,cs),
(211,568,o),
(150,550,o),
(90,510,cs),
(57,489,o),
(59,464,o),
(70,445,cs)
);
}
);
vertWidth = 0;
width = 500;
}
);
unicode = 51;
},
{
color = 6;
glyphname = four;
layers = (
{
layerId = m01;
shapes = (
{
closed = 1;
nodes = (
(24,147,o),
(33,135,o),
(51,135,cs),
(68,135,o),
(74,148,o),
(77,160,cs),
(164,540,ls),
(168,558,o),
(155,568,o),
(143,568,cs),
(131,568,o),
(118,562,o),
(114,544,cs),
(27,162,ls)
);
},
{
closed = 1;
nodes = (
(232,-1,o),
(246,6,o),
(250,26,cs),
(300,302,ls),
(303,319,o),
(292,329,o),
(280,331,cs),
(267,333,o),
(253,326,o),
(250,309,cs),
(200,31,ls),
(196,11,o),
(207,1,o),
(220,0,cs)
);
},
{
closed = 1;
nodes = (
(397,170,o),
(387,180,o),
(371,180,cs),
(51,180,l),
(51,135,l),
(371,135,ls),
(387,135,o),
(397,146,o),
(397,158,cs)
);
}
);
vertWidth = 0;
width = 404;
},
{
layerId = m002;
shapes = (
{
closed = 1;
nodes = (
(15,145,o),
(37,122,o),
(69,122,cs),
(95,122,o),
(115,140,o),
(121,164,cs),
(204,519,ls),
(211,551,o),
(184,568,o),
(158,568,cs),
(135,568,o),
(110,555,o),
(104,527,cs),
(22,177,ls)
);
},
{
closed = 1;
nodes = (
(266,0,o),
(284,16,o),
(289,44,cs),
(333,289,ls),
(338,318,o),
(325,336,o),
(301,341,cs),
(277,345,o),
(247,330,o),
(242,302,cs),
(198,59,ls),
(192,26,o),
(212,0,o),
(238,0,cs)
);
},
{
closed = 1;
nodes = (
(441,192,o),
(420,212,o),
(392,212,cs),
(69,212,l),
(69,122,l),
(392,122,ls),
(420,122,o),
(441,143,o),
(441,168,cs)
);
}
);
vertWidth = 0;
width = 451;
},
{
associatedMasterId = m01;
layerId = "AAB36A12-CCC4-41A9-8529-B05CAD544CA6";
name = background;
shapes = (
{
closed = 1;
nodes = (
(162,558,o),
(150,568,o),
(138,568,cs),
(126,568,o),
(112,562,o),
(109,544,cs),
(40,159,ls),
(38,147,o),
(47,135,o),
(65,135,cs),
(82,135,o),
(89,148,o),
(91,160,cs),
(159,540,ls)
);
},
{
closed = 1;
nodes = (
(274,299,o),
(263,309,o),
(251,311,cs),
(238,313,o),
(224,306,o),
(221,289,cs),
(174,31,ls),
(170,11,o),
(181,1,o),
(194,0,cs),
(206,-1,o),
(220,6,o),
(224,26,cs),
(271,282,ls)
);
},
{
closed = 1;
nodes = (
(365,135,ls),
(381,135,o),
(391,146,o),
(391,158,cs),
(391,170,o),
(381,180,o),
(365,180,cs),
(66,180,l),
(66,135,l)
);
}
);
vertWidth = 0;
width = 500;
}
);
unicode = 52;
},
{
color = 6;
glyphname = five;
layers = (
{
layerId = m01;
shapes = (
{
closed = 1;
nodes = (
(233,-3,o),
(339,96,o),
(339,220,cs),
(339,298,o),
(277,354,o),
(186,354,cs),
(145,354,o),
(117,347,o),
(82,335,c),
(77,286,l),
(110,298,o),
(144,304,o),
(189,304,cs),
(248,304,o),
(289,267,o),
(289,211,cs),
(289,140,o),
(218,47,o),
(106,47,cs),
(76,47,o),
(50,62,o),
(35,78,cs),
(24,89,o),
(9,95,o),
(-4,80,cs),
(-16,67,o),
(-8,50,o),
(3,39,cs),
(24,18,o),
(64,-3,o),
(106,-3,cs)
);
},
{
closed = 1;
nodes = (
(51,295,o),
(66,283,o),
(77,286,c),
(103,310,l),
(156,541,l),
(139,568,l),
(123,568,o),
(108,556,o),
(105,541,cs),
(54,310,ls)
);
},
{
closed = 1;
nodes = (
(398,557,o),
(392,568,o),
(372,568,cs),
(139,568,l),
(139,523,l),
(372,523,ls),
(392,523,o),
(398,533,o),
(398,545,cs)
);
}
);
vertWidth = 0;
width = 402;
},
{
layerId = m002;
shapes = (
{
closed = 1;
nodes = (
(271,-3,o),
(367,125,o),
(367,216,cs),
(367,298,o),
(297,372,o),
(186,372,cs),
(152,372,o),
(115,364,o),
(74,348,c),
(96,264,l),
(129,274,o),
(162,281,o),
(189,281,cs),
(249,281,o),
(267,248,o),
(267,215,cs),
(267,164,o),
(210,83,o),
(132,83,cs),
(114,83,o),
(91,90,o),
(79,99,cs),
(59,114,o),
(36,106,o),
(23,90,cs),
(10,73,o),
(7,48,o),
(27,31,cs),
(53,9,o),
(90,-3,o),
(131,-3,cs)
);
},
{
closed = 1;
nodes = (
(42,281,o),
(71,257,o),
(96,264,c),
(146,304,l),
(195,529,l),
(169,571,l),
(127,571,o),
(105,559,o),
(98,528,cs),
(49,312,ls)
);
},
{
closed = 1;
nodes = (
(424,556,o),
(405,571,o),
(375,571,cs),
(169,571,l),
(154,487,l),
(375,487,ls),
(407,487,o),
(424,505,o),
(424,529,cs)
);
}
);
vertWidth = 0;
width = 405;
},
{
associatedMasterId = m01;
layerId = "8A4306C3-55A0-41EE-8493-142ACB7C0448";
name = background;
shapes = (
{
closed = 1;
nodes = (
(133,299,o),
(161,304,o),
(186,304,cs),
(265,304,o),
(299,252,o),
(299,211,cs),
(299,149,o),
(223,47,o),
(126,47,cs),
(101,47,o),
(79,54,o),
(65,67,cs),
(58,74,o),
(51,76,o),
(44,76,cs),
(31,76,o),
(20,67,o),
(20,54,cs),
(20,46,o),
(24,37,o),
(33,28,cs),
(54,8,o),
(87,-3,o),
(126,-3,cs),
(257,-3,o),
(349,125,o),
(349,212,cs),
(349,287,o),
(285,354,o),
(183,354,cs),
(155,354,o),
(127,349,o),
(92,337,c),
(96,288,l)
);
},
{
closed = 1;
nodes = (
(139,568,l),
(129,568,o),
(121,566,o),
(116,562,cs),
(111,558,o),
(107,551,o),
(105,541,cs),
(64,310,ls),
(61,295,o),
(74,286,o),
(87,286,cs),
(99,286,o),
(112,294,o),
(115,310,cs),
(156,541,l)
);
},
{
closed = 1;
nodes = (
(382,523,ls),
(402,523,o),
(408,533,o),
(408,545,cs),
(408,557,o),
(402,568,o),
(382,568,cs),
(138,568,l),
(138,523,l)
);
}
);
vertWidth = 0;
width = 500;
}
);
unicode = 53;
},
{
color = 6;
glyphname = six;
layers = (
{
layerId = m01;
shapes = (
{
closed = 1;
nodes = (
(331,575,o),
(314,574,o),
(298,565,cs),
(253,539,o),
(166,460,o),
(110,382,cs),
(57,309,o),
(21,209,o),
(21,114,c),
(72,135,l),
(72,228,o),
(101,291,o),
(149,358,cs),
(200,429,o),
(274,487,o),
(326,525,cs),
(341,536,o),
(347,551,o),
(339,563,cs)
);
},
{
closed = 1;
nodes = (
(240,0,o),
(348,149,o),
(348,257,cs),
(348,321,o),
(310,353,o),
(238,353,cs),
(151,353,o),
(90,306,o),
(55,244,c),
(21,114,l),
(21,50,o),
(65,0,o),
(138,0,cs)
);
},
{
closed = 1;
nodes = (
(97,50,o),
(72,84,o),
(72,135,cs),
(72,215,o),
(133,303,o),
(236,303,cs),
(277,303,o),
(298,289,o),
(298,251,cs),
(298,173,o),
(206,50,o),
(136,50,cs)
);
}
);
vertWidth = 0;
width = 398;
},
{
layerId = m002;
shapes = (
{
closed = 1;
nodes = (
(340,576,o),
(314,581,o),
(289,568,c),
(241,540,o),
(160,467,o),
(110,396,cs),
(55,319,o),
(10,247,o),
(10,118,c),
(105,140,l),
(105,231,o),
(137,265,o),
(192,347,c),
(234,406,o),
(274,446,o),
(342,494,cs),
(372,516,o),
(370,541,o),
(355,559,cs)
);
},
{
closed = 1;
nodes = (
(245,-1,o),
(347,143,o),
(347,247,cs),
(347,316,o),
(302,353,o),
(226,353,cs),
(153,353,o),
(72,304,o),
(41,243,c),
(10,118,l),
(10,48,o),
(57,-1,o),
(138,-1,cs)
);
},
{
closed = 1;
nodes = (
(118,87,o),
(105,99,o),
(105,140,cs),
(105,204,o),
(147,270,o),
(224,270,cs),
(247,270,o),
(253,260,o),
(253,242,cs),
(253,180,o),
(184,87,o),
(136,87,cs)
);
}
);
vertWidth = 0;
width = 385;
},
{
associatedMasterId = m01;
layerId = "B5968A0D-F3E5-460A-AC2C-2F99A4DA6DEA";
name = background;
shapes = (
{
closed = 1;
nodes = (
(70,209,o),
(104,288,o),
(174,387,cs),
(201,425,o),
(247,471,o),
(322,523,cs),
(333,530,o),
(337,540,o),
(337,548,cs),
(336,559,o),
(328,568,o),
(315,568,cs),
(309,568,o),
(302,566,o),
(294,562,cs),
(247,535,o),
(164,460,o),
(130,412,cs),
(62,316,o),
(21,213,o),
(21,113,c),
(70,113,l)
);
},
{
closed = 1;
nodes = (
(21,53,o),
(69,0,o),
(137,0,cs),
(239,0,o),
(347,149,o),
(347,257,cs),
(347,321,o),
(309,353,o),
(237,353,cs),
(150,353,o),
(89,306,o),
(54,244,c),
(21,114,l)
);
},
{
closed = 1;
nodes = (
(102,50,o),
(71,78,o),
(71,135,cs),
(71,215,o),
(132,303,o),
(235,303,cs),
(276,303,o),
(297,289,o),
(297,251,cs),
(297,173,o),
(205,50,o),
(135,50,cs)
);
}
);
vertWidth = 0;
width = 500;
},
{
associatedMasterId = m002;
layerId = "1651019C-8C5D-42A0-851B-884A7B05576C";
name = background;
shapes = (
{
closed = 1;
nodes = (
(91,195,o),
(140,274,o),
(208,371,cs),
(234,407,o),
(275,447,o),
(342,494,cs),
(359,506,o),
(367,521,o),
(367,537,cs),
(366,559,o),
(346,576,o),
(321,576,cs),
(311,576,o),
(300,573,o),
(289,568,c),
(241,540,o),
(160,467,o),
(127,421,cs),
(55,319,o),
(24,279,o),
(10,118,c),
(105,114,l)
);
},
{
closed = 1;
nodes = (
(0,84,o),
(57,-1,o),
(138,-1,cs),
(245,-1,o),
(347,143,o),
(347,247,cs),
(347,316,o),
(302,354,o),
(226,354,cs),
(135,354,o),
(58,308,o),
(41,243,cs),
(11,126,ls)
);
},
{
closed = 1;
nodes = (
(118,87,o),
(105,99,o),
(105,140,cs),
(105,204,o),
(147,266,o),
(224,266,cs),
(247,266,o),
(253,260,o),
(253,242,cs),
(253,180,o),
(184,87,o),
(136,87,cs)
);
},
{
closed = 1;
nodes = (
(91,195,o),
(140,274,o),
(208,371,cs),
(234,407,o),
(275,447,o),
(342,494,cs),
(359,506,o),
(367,521,o),
(367,537,cs),
(366,559,o),
(346,576,o),
(321,576,cs),
(311,576,o),
(300,573,o),
(289,568,c),
(241,540,o),
(160,467,o),
(127,421,cs),
(55,319,o),
(24,279,o),
(10,118,c),
(105,114,l)
);
},
{
closed = 1;
nodes = (
(0,84,o),
(57,-1,o),
(138,-1,cs),
(245,-1,o),
(347,143,o),
(347,247,cs),
(347,316,o),
(302,354,o),
(226,354,cs),
(135,354,o),
(58,308,o),
(41,243,cs),
(11,126,ls)
);
},
{
closed = 1;
nodes = (
(118,87,o),
(105,99,o),
(105,140,cs),
(105,204,o),
(147,266,o),
(224,266,cs),
(247,266,o),
(253,260,o),
(253,242,cs),
(253,180,o),
(184,87,o),
(136,87,cs)
);
},
{
closed = 1;
nodes = (
(91,195,o),
(140,274,o),
(208,371,cs),
(234,407,o),
(275,447,o),
(342,494,cs),
(359,506,o),
(367,521,o),
(367,537,cs),
(366,559,o),
(346,576,o),
(321,576,cs),
(311,576,o),
(300,573,o),
(289,568,c),
(241,540,o),
(160,467,o),
(127,421,cs),
(55,319,o),
(24,279,o),
(10,118,c),
(105,114,l)
);
},
{
closed = 1;
nodes = (
(0,84,o),
(57,-1,o),
(138,-1,cs),
(245,-1,o),
(347,143,o),
(347,247,cs),
(347,316,o),
(302,354,o),
(226,354,cs),
(135,354,o),
(58,308,o),
(41,243,cs),
(11,126,ls)
);
},
{
closed = 1;
nodes = (
(118,87,o),
(105,99,o),
(105,140,cs),
(105,204,o),
(147,266,o),
(224,266,cs),
(247,266,o),
(253,260,o),
(253,242,cs),
(253,180,o),
(184,87,o),
(136,87,cs)
);
}
);
vertWidth = 0;
width = 500;
}
);
unicode = 54;
},
{
color = 6;
glyphname = seven;
layers = (
{
layerId = m01;
shapes = (
{
closed = 1;
nodes = (
(183,0,o),
(196,8,o),
(200,26,cs),
(301,539,ls),
(305,557,o),
(296,568,o),
(278,568,c),
(253,549,l),
(151,33,ls),
(147,12,o),
(158,0,o),
(171,0,cs)
);
},
{
closed = 1;
nodes = (
(5,534,o),
(14,523,o),
(32,523,cs),
(278,523,l),
(278,568,l),
(32,568,ls),
(14,568,o),
(5,557,o),
(5,546,cs)
);
}
);
vertWidth = 0;
width = 334;
},
{
layerId = m002;
shapes = (
{
closed = 1;
nodes = (
(242,0,o),
(267,15,o),
(272,42,cs),
(356,518,ls),
(362,551,o),
(346,568,o),
(311,568,c),
(261,537,l),
(175,50,ls),
(170,20,o),
(192,0,o),
(219,0,cs)
);
},
{
closed = 1;
nodes = (
(28,503,o),
(48,488,o),
(78,488,cs),
(311,488,l),
(311,568,l),
(78,568,ls),
(48,568,o),
(28,551,o),
(28,527,cs)
);
}
);
vertWidth = 0;
width = 404;
},
{
associatedMasterId = m01;
layerId = "08DE366F-5677-4CB5-B33F-3BA18852202A";
name = background;
shapes = (
{
closed = 1;
nodes = (
(304,556,o),
(298,568,o),
(278,568,cs),
(267,568,o),
(255,560,o),
(253,549,cs),
(160,26,ls),
(157,8,o),
(168,0,o),
(181,0,cs),
(193,0,o),
(207,8,o),
(210,26,cs),
(302,544,ls)
);
},
{
closed = 1;
nodes = (
(279,568,l),
(32,568,ls),
(14,568,o),
(5,557,o),
(5,546,cs),
(5,534,o),
(14,523,o),
(32,523,cs),
(279,523,l)
);
}
);
vertWidth = 0;
width = 500;
}
);
unicode = 55;
},
{
color = 6;
glyphname = eight;
layers = (
{
layerId = m01;
shapes = (
{
closed = 1;
nodes = (
(200,45,o),
(246,105,o),
(246,149,cs),
(246,179,o),
(214,231,o),
(180,268,cs),
(148,302,ls),
(113,339,o),
(63,386,o),
(63,442,cs),
(63,529,o),
(150,568,o),
(223,568,cs),
(282,568,o),
(356,542,o),
(356,488,cs),
(356,431,o),
(275,367,o),
(174,296,cs),
(81,230,o),
(60,178,o),
(60,139,cs),
(60,90,o),
(93,45,o),
(143,45,cs)
);
},
{
closed = 1;
nodes = (
(40,-4,o),
(11,74,o),
(11,132,cs),
(11,185,o),
(36,261,o),
(148,340,cs),
(209,383,o),
(309,462,o),
(309,488,cs),
(309,507,o),
(249,518,o),
(213,518,cs),
(172,518,o),
(114,504,o),
(114,447,cs),
(114,405,o),
(145,373,o),
(176,340,cs),
(206,309,ls),
(256,257,o),
(297,198,o),
(297,149,cs),
(297,84,o),
(241,-4,o),
(137,-4,cs)
);
}
);
vertWidth = 0;
width = 365;
},
{
layerId = m002;
shapes = (
{
closed = 1;
nodes = (
(209,81,o),
(240,114,o),
(240,148,cs),
(240,191,o),
(197,236,o),
(173,263,cs),
(146,292,ls),
(126,314,o),
(68,355,o),
(68,428,cs),
(68,526,o),
(167,569,o),
(244,569,cs),
(306,569,o),
(394,539,o),
(394,472,cs),
(394,405,o),
(288,334,o),
(219,284,cs),
(134,222,o),
(115,177,o),
(115,148,cs),
(115,108,o),
(135,81,o),
(168,81,cs)
);
},
{
closed = 1;
nodes = (
(52,-4,o),
(18,80,o),
(18,141,cs),
(18,197,o),
(54,278,o),
(149,347,cs),
(204,387,o),
(299,456,o),
(299,471,cs),
(299,486,o),
(260,488,o),
(228,488,cs),
(193,488,o),
(166,470,o),
(166,433,cs),
(166,390,o),
(200,367,o),
(220,347,cs),
(247,321,ls),
(291,278,o),
(338,219,o),
(338,157,cs),
(338,87,o),
(278,-4,o),
(163,-4,cs)
);
}
);
vertWidth = 0;
width = 400;
},
{
associatedMasterId = m01;
layerId = "4F5DD8FE-C57C-4AC7-80A5-4AD7BA33A64C";
name = background;
shapes = (
{
closed = 1;
nodes = (
(156,325,l),
(66,259,o),
(41,185,o),
(41,132,cs),
(41,74,o),
(70,-4,o),
(167,-4,cs),
(271,-4,o),
(327,84,o),
(327,149,cs),
(327,208,o),
(281,266,o),
(237,307,cs),
(222,321,l)
);
},
{
closed = 1;
nodes = (
(235,238,o),
(276,190,o),
(276,149,cs),
(276,105,o),
(230,45,o),
(173,45,cs),
(123,45,o),
(90,90,o),
(90,139,cs),
(90,178,o),
(111,231,o),
(188,285,c),
(200,273,ls)
);
},
{
closed = 1;
nodes = (
(305,368,o),
(386,431,o),
(386,488,cs),
(386,542,o),
(312,568,o),
(253,568,cs),
(180,568,o),
(93,529,o),
(93,442,cs),
(93,386,o),
(130,350,o),
(156,323,c),
(199,349,l),
(176,371,o),
(144,405,o),
(144,447,cs),
(144,504,o),
(202,518,o),
(243,518,cs),
(279,518,o),
(339,507,o),
(339,488,cs),
(339,462,o),
(230,369,o),
(155,322,c),
(224,312,l)
);
}
);
vertWidth = 0;
width = 500;
}
);
unicode = 56;
},
{
color = 6;
glyphname = nine;
layers = (
{
layerId = m01;
shapes = (
{
closed = 1;
nodes = (
(40,240,o),
(60,214,o),
(93,214,cs),
(158,214,o),
(248,287,o),
(367,528,c),
(328,528,l),
(215,340,o),
(133,265,o),
(104,265,cs),
(93,265,o),
(90,276,o),
(90,296,cs),
(90,334,o),
(108,424,o),
(134,463,cs),
(164,508,o),
(215,518,o),
(249,518,cs),
(332,518,l),
(343,518,l),
(343,568,l),
(249,568,ls),
(192,568,o),
(133,551,o),
(95,494,cs),
(63,446,o),
(40,349,o),
(40,291,cs)
);
},
{
closed = 1;
nodes = (
(269,0,o),
(282,8,o),
(285,24,cs),
(387,546,ls),
(389,558,o),
(383,568,o),
(371,568,cs),
(323,568,l),
(323,479,l),
(235,24,ls),
(232,8,o),
(244,0,o),
(256,0,cs)
);
}
);
vertWidth = 0;
width = 407;
},
{
layerId = m002;
shapes = (
{
closed = 1;
nodes = (
(33,226,o),
(66,196,o),
(108,196,cs),
(196,196,o),
(354,439,o),
(394,527,c),
(314,527,l),
(286,479,o),
(155,302,o),
(141,302,cs),
(136,302,o),
(135,315,o),
(135,320,cs),
(135,343,o),
(146,408,o),
(168,440,cs),
(191,476,o),
(226,481,o),
(255,481,cs),
(333,481,l),
(358,481,l),
(358,568,l),
(255,568,ls),
(196,568,o),
(130,554,o),
(89,493,cs),
(56,443,o),
(33,348,o),
(33,291,cs)
);
},
{
closed = 1;
nodes = (
(294,-5,o),
(321,10,o),
(326,36,cs),
(409,506,ls),
(418,555,o),
(403,568,o),
(370,568,cs),
(301,568,l),
(301,469,l),
(226,43,ls),
(220,11,o),
(249,-5,o),
(271,-5,cs)
);
}
);
vertWidth = 0;
width = 445;
},
{
associatedMasterId = m01;
layerId = "E5B1F992-8E7B-45A5-B210-A6D52BF533F5";
name = background;
shapes = (
{
closed = 1;
nodes = (
(323,519,l),
(295,472,o),
(262,423,o),
(221,371,cs),
(160,295,o),
(123,265,o),
(104,265,cs),
(90,265,o),
(90,280,o),
(90,296,cs),
(90,334,o),
(108,424,o),
(134,463,cs),
(164,508,o),
(215,518,o),
(249,518,cs),
(256,518,o),
(324,518,o),
(332,518,c),
(343,518,l),
(343,520,o),
(343,565,o),
(343,568,c),
(331,568,o),
(269,568,o),
(249,568,cs),
(192,568,o),
(133,551,o),
(95,494,cs),
(63,446,o),
(40,349,o),
(40,291,cs),
(40,240,o),
(60,214,o),
(93,214,cs),
(151,214,o),
(203,268,o),
(244,319,cs),
(293,381,o),
(341,458,o),
(364,510,cs),
(368,519,l)
);
},
{
closed = 1;
nodes = (
(389,558,o),
(383,568,o),
(371,568,c),
(323,568,l),
(323,479,l),
(245,24,ls),
(243,8,o),
(254,0,o),
(266,0,cs),
(279,0,o),
(292,8,o),
(295,24,cs),
(387,546,ls)
);
}
);
vertWidth = 0;
width = 500;
},
{
associatedMasterId = m002;
layerId = "FD7543B8-B2A8-487E-A6A9-2E2D6CF92D33";
name = background;
shapes = (
{
closed = 1;
nodes = (
(33,226,o),
(66,196,o),
(108,196,cs),
(176,196,o),
(231,255,o),
(270,303,cs),
(317,363,o),
(364,439,o),
(386,487,cs),
(404,527,l),
(309,527,l),
(281,479,o),
(256,431,o),
(216,380,cs),
(159,309,o),
(145,302,o),
(141,302,cs),
(136,302,o),
(135,315,o),
(135,320,cs),
(135,343,o),
(146,408,o),
(168,440,cs),
(191,476,o),
(226,481,o),
(255,481,cs),
(261,481,o),
(325,481,o),
(333,481,cs),
(368,481,l),
(368,506,o),
(368,546,o),
(368,568,c),
(345,568,o),
(276,568,o),
(255,568,cs),
(196,568,o),
(130,554,o),
(89,493,cs),
(56,443,o),
(33,348,o),
(33,291,cs)
);
},
{
closed = 1;
nodes = (
(294,-5,o),
(321,10,o),
(326,36,cs),
(413,529,ls),
(418,555,o),
(403,568,o),
(370,568,cs),
(299,568,l),
(301,469,l),
(226,43,ls),
(220,11,o),
(249,-5,o),
(271,-5,cs)
);
}
);
vertWidth = 0;
width = 500;
}
);
unicode = 57;
},
{
color = 6;
glyphname = zero.c2sc;
layers = (
{
layerId = m01;
shapes = (
{
closed = 1;
nodes = (
(168,0,o),
(282,157,o),
(282,276,cs),
(282,328,o),
(262,396,o),
(184,396,cs),
(52,396,o),
(0,196,o),
(0,115,cs),
(0,61,o),
(23,-1,o),
(80,-1,cs)
);
},
{
closed = 1;
nodes = (
(64,47,o),
(50,67,o),
(50,111,cs),
(50,193,o),
(101,348,o),
(186,348,cs),
(223,348,o),
(232,315,o),
(232,278,cs),
(232,152,o),
(120,47,o),
(80,47,cs)
);
}
);
vertWidth = 0;
width = 336;
},
{
layerId = m002;
shapes = (
{
closed = 1;
nodes = (
(199,0,o),
(307,152,o),
(307,267,cs),
(307,319,o),
(284,396,o),
(195,396,cs),
(57,396,o),
(8,201,o),
(8,125,cs),
(8,71,o),
(33,-1,o),
(103,-1,cs)
);
},
{
closed = 1;
nodes = (
(100,87,o),
(97,94,o),
(97,121,cs),
(97,191,o),
(136,308,o),
(197,308,cs),
(211,308,o),
(216,296,o),
(216,269,cs),
(216,166,o),
(129,87,o),
(108,87,c)
);
}
);
vertWidth = 0;
width = 378;
}
);
},
{
color = 6;
glyphname = one.c2sc;
layers = (
{
layerId = m01;
shapes = (
{
closed = 1;
nodes = (
(254,387,o),
(241,396,o),
(229,396,cs),
(217,396,o),
(203,389,o),
(200,373,cs),
(139,26,ls),
(136,8,o),
(149,0,o),
(162,0,cs),
(172,0,o),
(186,5,o),
(189,21,cs),
(251,371,ls)
);
}
);
vertWidth = 0;
width = 445;
},
{
layerId = m002;
shapes = (
{
closed = 1;
nodes = (
(295,387,o),
(264,396,o),
(248,396,cs),
(232,396,o),
(200,389,o),
(194,355,cs),
(139,43,ls),
(133,8,o),
(164,0,o),
(181,0,cs),
(195,0,o),
(227,5,o),
(233,38,cs),
(289,353,ls)
);
}
);
vertWidth = 0;
width = 489;
}
);
},
{
color = 6;
glyphname = two.c2sc;
layers = (
{
layerId = m01;
shapes = (
{
closed = 1;
nodes = (
(77,34,l),
(115,79,o),
(202,179,o),
(211,190,cs),
(299,295,o),
(307,347,o),
(248,382,cs),
(198,413,o),
(112,389,o),
(69,352,cs),
(49,335,o),
(52,323,o),
(60,313,cs),
(67,305,o),
(84,302,o),
(104,319,cs),
(138,347,o),
(197,358,o),
(224,341,cs),
(251,325,o),
(219,275,o),
(185,234,cs),
(168,213,o),
(97,135,o),
(7,34,cs),
(-10,15,o),
(3,0,o),
(24,0,cs),
(41,0,l)
);
},
{
closed = 1;
nodes = (
(207,0,ls),
(227,0,o),
(233,14,o),
(233,24,cs),
(233,34,o),
(227,48,o),
(207,48,cs),
(36,48,l),
(36,0,l)
);
}
);
vertWidth = 0;
width = 356;
},
{
layerId = m002;
shapes = (
{
closed = 1;
nodes = (
(127,38,l),
(160,78,o),
(238,167,o),
(245,176,cs),
(330,278,o),
(341,339,o),
(272,381,cs),
(217,414,o),
(128,389,o),
(84,351,cs),
(56,327,o),
(57,305,o),
(73,285,cs),
(87,269,o),
(121,264,o),
(148,288,cs),
(174,309,o),
(209,315,o),
(220,308,cs),
(228,303,o),
(212,279,o),
(184,244,cs),
(168,225,o),
(106,157,o),
(27,68,cs),
(-2,35,o),
(22,0,o),
(61,0,cs),
(86,0,l)
);
},
{
closed = 1;
nodes = (
(223,0,ls),
(253,0,o),
(271,22,o),
(271,44,cs),
(271,66,o),
(253,88,o),
(223,88,cs),
(77,88,l),
(77,0,l)
);
}
);
vertWidth = 0;
width = 400;
}
);
},
{
color = 6;
glyphname = three.c2sc;
layers = (
{
layerId = m01;
shapes = (
{
closed = 1;
nodes = (
(113,196,o),
(138,203,o),
(157,203,cs),
(192,203,o),
(202,183,o),
(202,157,cs),
(202,93,o),
(129,45,o),
(72,45,cs),
(57,45,o),
(46,48,o),
(35,57,cs),
(15,71,o),
(-1,59,o),
(-4,54,cs),
(-10,47,o),
(-15,36,o),
(7,18,cs),
(24,4,o),
(48,-3,o),
(72,-3,cs),
(152,-3,o),
(252,68,o),
(252,157,cs),
(252,213,o),
(215,250,o),
(154,250,cs),
(127,250,o),
(95,243,o),
(62,226,c),
(77,180,l)
);
},
{
closed = 1;
nodes = (
(168,239,o),
(250,297,o),
(250,342,cs),
(250,375,o),
(217,396,o),
(175,396,cs),
(142,396,o),
(98,383,o),
(58,357,cs),
(38,344,o),
(41,328,o),
(46,321,c),
(50,311,o),
(67,304,o),
(80,313,cs),
(121,341,o),
(156,351,o),
(179,351,cs),
(195,351,o),
(200,348,o),
(200,342,cs),
(200,324,o),
(113,258,o),
(57,223,cs),
(42,213,o),
(45,198,o),
(47,191,cs),
(51,182,o),
(70,173,o),
(85,183,cs)
);
}
);
vertWidth = 0;
width = 349;
},
{
layerId = m002;
shapes = (
{
closed = 1;
nodes = (
(138,174,o),
(158,181,o),
(173,181,cs),
(186,181,o),
(192,176,o),
(192,159,cs),
(192,119,o),
(145,86,o),
(109,86,cs),
(93,86,o),
(88,90,o),
(81,95,cs),
(57,112,o),
(24,99,o),
(14,84,cs),
(2,66,o),
(-3,43,o),
(26,19,cs),
(45,4,o),
(74,-4,o),
(102,-4,cs),
(185,-4,o),
(286,71,o),
(286,163,cs),
(286,225,o),
(243,264,o),
(175,264,cs),
(143,264,o),
(108,253,o),
(77,239,c),
(131,169,l)
);
},
{
closed = 1;
nodes = (
(203,218,o),
(285,271,o),
(285,325,cs),
(285,364,o),
(249,396,o),
(193,396,cs),
(159,396,o),
(114,382,o),
(76,357,cs),
(48,339,o),
(47,314,o),
(56,296,cs),
(66,274,o),
(96,269,o),
(118,285,cs),
(152,308,o),
(177,322,o),
(189,325,cs),
(196,327,o),
(198,325,o),
(193,318,cs),
(186,307,o),
(128,265,o),
(76,239,cs),
(54,228,o),
(50,204,o),
(57,186,cs),
(65,164,o),
(103,150,o),
(129,168,cs)
);
}
);
vertWidth = 0;
width = 383;
}
);
},
{
color = 6;
glyphname = four.c2sc;
layers = (
{
layerId = m01;
shapes = (
{
closed = 1;
nodes = (
(129,387,o),
(116,396,o),
(103,396,cs),
(93,396,o),
(79,390,o),
(76,374,cs),
(29,116,l),
(28,103,o),
(37,91,o),
(54,91,cs),
(70,91,o),
(78,103,o),
(79,114,c),
(126,369,ls)
);
},
{
closed = 1;
nodes = (
(203,211,o),
(192,221,o),
(182,224,cs),
(169,226,o),
(154,219,o),
(151,202,cs),
(119,29,ls),
(116,11,o),
(127,0,o),
(141,0,cs),
(151,0,o),
(166,6,o),
(169,23,cs),
(200,195,ls)
);
},
{
closed = 1;
nodes = (
(256,91,ls),
(272,91,o),
(282,103,o),
(282,114,cs),
(282,125,o),
(272,135,o),
(256,135,cs),
(47,135,l),
(47,91,l)
);
}
);
vertWidth = 0;
width = 348;
},
{
layerId = m002;
shapes = (
{
closed = 1;
nodes = (
(179,376,o),
(154,396,o),
(128,396,cs),
(107,396,o),
(84,383,o),
(79,358,cs),
(37,129,ls),
(32,103,o),
(55,80,o),
(84,80,cs),
(110,80,o),
(127,99,o),
(131,122,cs),
(173,345,ls)
);
},
{
closed = 1;
nodes = (
(268,218,o),
(249,241,o),
(229,243,cs),
(204,246,o),
(174,235,o),
(169,206,cs),
(141,53,ls),
(136,23,o),
(157,0,o),
(183,0,cs),
(204,0,o),
(230,12,o),
(235,39,cs),
(263,191,ls)
);
},
{
closed = 1;
nodes = (
(283,80,ls),
(310,80,o),
(331,101,o),
(331,124,cs),
(331,147,o),
(310,165,o),
(283,165,cs),
(81,165,l),
(81,80,l)
);
}
);
vertWidth = 0;
width = 410;
}
);
},
{
color = 6;
glyphname = five.c2sc;
layers = (
{
layerId = m01;
shapes = (
{
closed = 1;
nodes = (
(96,200,o),
(115,204,o),
(134,204,cs),
(182,204,o),
(201,174,o),
(201,149,cs),
(201,109,o),
(154,44,o),
(94,44,cs),
(78,44,o),
(66,50,o),
(58,57,cs),
(52,63,o),
(44,65,o),
(38,65,cs),
(26,65,o),
(14,56,o),
(14,44,cs),
(14,38,o),
(18,29,o),
(25,21,c),
(41,7,o),
(65,-4,o),
(94,-4,cs),
(186,-4,o),
(251,89,o),
(251,150,cs),
(251,203,o),
(205,252,o),
(131,252,cs),
(110,252,o),
(89,248,o),
(62,239,c),
(66,192,l)
);
},
{
closed = 1;
nodes = (
(106,395,l),
(100,398,o),
(87,394,o),
(82,389,c),
(76,386,o),
(73,379,o),
(71,372,c),
(43,216,ls),
(40,202,o),
(52,193,o),
(67,193,cs),
(78,193,o),
(92,200,o),
(94,214,cs),
(121,371,l)
);
},
{
closed = 1;
nodes = (
(265,352,ls),
(283,352,o),
(290,362,o),
(290,373,cs),
(290,383,o),
(284,396,o),
(265,396,cs),
(93,396,l),
(93,352,l)
);
}
);
vertWidth = 0;
width = 361;
},
{
layerId = m002;
shapes = (
{
closed = 1;
nodes = (
(123,177,o),
(136,183,o),
(159,180,cs),
(180,177,o),
(189,171,o),
(189,151,cs),
(189,126,o),
(159,85,o),
(129,85,cs),
(110,85,o),
(105,89,o),
(99,93,cs),
(92,98,o),
(80,103,o),
(62,103,cs),
(46,103,o),
(23,85,o),
(23,67,cs),
(23,52,o),
(27,37,o),
(39,26,cs),
(56,10,o),
(85,-4,o),
(119,-4,cs),
(216,-4,o),
(283,92,o),
(283,156,cs),
(283,215,o),
(231,269,o),
(152,269,cs),
(125,269,o),
(95,261,o),
(89,259,c),
(104,172,l)
);
},
{
closed = 1;
nodes = (
(148,390,l),
(127,401,o),
(103,396,o),
(91,385,cs),
(82,378,o),
(76,367,o),
(74,356,cs),
(49,218,ls),
(44,191,o),
(67,171,o),
(95,171,cs),
(116,171,o),
(140,185,o),
(144,208,cs),
(169,355,l)
);
},
{
closed = 1;
nodes = (
(270,311,ls),
(299,311,o),
(317,330,o),
(317,353,cs),
(317,375,o),
(300,396,o),
(270,396,cs),
(124,396,l),
(124,311,l)
);
}
);
vertWidth = 0;
width = 405;
}
);
},
{
color = 6;
glyphname = six.c2sc;
layers = (
{
layerId = m01;
shapes = (
{
closed = 1;
nodes = (
(86,138,o),
(109,191,o),
(156,259,cs),
(174,285,o),
(204,319,o),
(254,353,cs),
(263,358,o),
(267,367,o),
(267,376,cs),
(267,387,o),
(258,396,o),
(244,396,cs),
(239,396,o),
(233,395,o),
(226,391,cs),
(193,372,o),
(137,316,o),
(113,284,cs),
(66,216,o),
(37,142,o),
(39,72,c),
(88,72,l)
);
},
{
closed = 1;
nodes = (
(39,36,o),
(74,-4,o),
(125,-4,cs),
(198,-4,o),
(273,100,o),
(273,175,cs),
(273,223,o),
(244,247,o),
(192,247,cs),
(130,247,o),
(85,212,o),
(61,169,c),
(39,81,l)
);
},
{
closed = 1;
nodes = (
(104,44,o),
(88,58,o),
(88,94,cs),
(88,145,o),
(126,199,o),
(191,199,cs),
(215,199,o),
(224,193,o),
(224,172,cs),
(224,121,o),
(166,44,o),
(124,44,cs)
);
}
);
vertWidth = 0;
width = 359;
},
{
layerId = m002;
shapes = (
{
closed = 1;
nodes = (
(135,133,o),
(158,175,o),
(204,242,cs),
(219,264,o),
(242,286,o),
(283,314,cs),
(297,323,o),
(306,338,o),
(306,354,cs),
(306,376,o),
(286,396,o),
(261,396,cs),
(252,396,o),
(241,393,o),
(231,386,cs),
(197,366,o),
(147,320,o),
(125,290,cs),
(75,219,o),
(53,158,o),
(54,92,c),
(143,92,l)
);
},
{
closed = 1;
nodes = (
(53,47,o),
(94,-4,o),
(155,-4,cs),
(237,-4,o),
(311,105,o),
(311,180,cs),
(311,236,o),
(274,267,o),
(214,267,cs),
(147,267,o),
(98,226,o),
(75,183,c),
(54,97,l)
);
},
{
closed = 1;
nodes = (
(152,84,o),
(147,94,o),
(147,113,cs),
(147,147,o),
(170,179,o),
(204,179,cs),
(216,179,o),
(218,175,o),
(218,163,cs),
(218,133,o),
(182,84,o),
(162,84,cs)
);
}
);
vertWidth = 0;
width = 422;
}
);
},
{
color = 6;
glyphname = seven.c2sc;
layers = (
{
layerId = m01;
shapes = (
{
closed = 1;
nodes = (
(248,383,o),
(241,396,o),
(221,396,cs),
(212,396,o),
(199,389,o),
(197,377,cs),
(135,26,ls),
(132,8,o),
(143,0,o),
(156,0,cs),
(167,0,o),
(181,7,o),
(184,24,cs),
(245,372,l)
);
},
{
closed = 1;
nodes = (
(230,396,l),
(56,396,ls),
(39,396,o),
(30,384,o),
(30,374,cs),
(30,363,o),
(39,351,o),
(56,351,cs),
(230,351,l)
);
}
);
vertWidth = 0;
width = 363;
},
{
layerId = m002;
shapes = (
{
closed = 1;
nodes = (
(278,372,o),
(261,396,o),
(228,396,cs),
(208,396,o),
(186,382,o),
(182,359,cs),
(127,50,ls),
(121,19,o),
(144,0,o),
(170,0,cs),
(191,0,o),
(215,14,o),
(220,40,cs),
(274,348,ls)
);
},
{
closed = 1;
nodes = (
(229,396,l),
(82,396,ls),
(54,396,o),
(34,376,o),
(34,354,cs),
(34,331,o),
(54,310,o),
(82,310,cs),
(229,310,l)
);
}
);
vertWidth = 0;
width = 407;
}
);
},
{
color = 6;
glyphname = eight.c2sc;
layers = (
{
layerId = m01;
shapes = (
{
closed = 1;
nodes = (
(111,231,l),
(47,184,o),
(29,132,o),
(29,94,cs),
(29,53,o),
(51,-4,o),
(121,-4,cs),
(196,-4,o),
(237,59,o),
(237,106,cs),
(237,147,o),
(204,187,o),
(174,217,cs),
(162,229,l)
);
},
{
closed = 1;
nodes = (
(161,161,o),
(187,131,o),
(187,106,cs),
(187,79,o),
(159,44,o),
(125,44,cs),
(96,44,o),
(78,68,o),
(78,99,cs),
(78,124,o),
(90,154,o),
(135,187,c),
(138,184,ls)
);
},
{
closed = 1;
nodes = (
(218,246,o),
(276,291,o),
(276,333,cs),
(276,374,o),
(221,396,o),
(179,396,cs),
(127,396,o),
(64,366,o),
(64,302,cs),
(64,259,o),
(96,230,o),
(113,214,c),
(155,239,l),
(139,254,o),
(114,275,o),
(114,306,cs),
(114,339,o),
(146,348,o),
(172,348,cs),
(196,348,o),
(229,340,o),
(229,333,cs),
(229,317,o),
(150,252,o),
(103,227,c),
(161,208,l)
);
}
);
vertWidth = 0;
width = 367;
},
{
layerId = m002;
shapes = (
{
closed = 1;
nodes = (
(129,245,l),
(60,197,o),
(37,145,o),
(37,106,cs),
(37,64,o),
(61,-3,o),
(141,-3,cs),
(222,-3,o),
(265,66,o),
(265,117,cs),
(265,160,o),
(227,197,o),
(199,225,cs),
(182,242,l)
);
},
{
closed = 1;
nodes = (
(146,166,o),
(185,137,o),
(185,117,cs),
(185,99,o),
(163,78,o),
(144,78,cs),
(130,78,o),
(117,89,o),
(117,110,cs),
(117,129,o),
(132,147,o),
(151,161,c),
(150,162,ls)
);
},
{
closed = 1;
nodes = (
(230,223,o),
(300,267,o),
(300,317,cs),
(300,369,o),
(237,396,o),
(192,396,cs),
(138,396,o),
(68,361,o),
(68,290,cs),
(68,243,o),
(103,212,o),
(130,186,c),
(199,225,l),
(186,248,o),
(148,266,o),
(148,294,cs),
(148,308,o),
(166,325,o),
(186,325,cs),
(201,325,o),
(219,322,o),
(219,316,cs),
(219,309,o),
(189,290,o),
(103,225,c),
(176,187,l)
);
}
);
vertWidth = 0;
width = 404;
}
);
},
{
color = 6;
glyphname = nine.c2sc;
layers = (
{
layerId = m01;
shapes = (
{
closed = 1;
nodes = (
(213,363,l),
(192,330,o),
(171,295,o),
(143,260,cs),
(102,210,o),
(80,191,o),
(70,191,cs),
(68,191,o),
(68,195,o),
(68,205,cs),
(68,229,o),
(81,289,o),
(97,314,cs),
(116,342,o),
(146,348,o),
(168,348,cs),
(173,348,o),
(218,348,o),
(224,348,cs),
(239,348,l),
(239,356,o),
(239,389,o),
(239,396,c),
(232,396,o),
(184,396,o),
(168,396,cs),
(127,396,o),
(85,383,o),
(57,343,cs),
(35,308,o),
(19,242,o),
(19,202,cs),
(19,164,o),
(36,143,o),
(62,143,cs),
(106,143,o),
(142,182,o),
(171,217,cs),
(204,259,o),
(239,310,o),
(253,347,cs),
(259,363,l)
);
},
{
closed = 1;
nodes = (
(271,387,o),
(262,396,o),
(250,396,cs),
(210,396,l),
(210,330,l),
(157,23,ls),
(154,7,o),
(167,0,o),
(180,0,cs),
(191,0,o),
(203,6,o),
(206,21,cs),
(268,372,ls)
);
}
);
vertWidth = 0;
width = 360;
},
{
layerId = m002;
shapes = (
{
closed = 1;
nodes = (
(210,349,l),
(207,329,o),
(180,300,o),
(166,281,cs),
(146,255,o),
(133,244,o),
(128,239,cs),
(122,233,o),
(115,227,o),
(105,227,cs),
(97,227,o),
(112,279,o),
(129,304,cs),
(140,320,o),
(168,318,o),
(184,318,cs),
(189,318,o),
(228,318,o),
(234,318,cs),
(259,318,l),
(259,352,o),
(259,374,o),
(259,396,c),
(235,396,o),
(199,396,o),
(184,396,cs),
(143,396,o),
(90,386,o),
(59,343,cs),
(36,307,o),
(24,240,o),
(21,202,cs),
(18,157,o),
(53,135,o),
(90,135,cs),
(133,135,o),
(174,184,o),
(200,216,cs),
(231,255,o),
(277,303,o),
(282,321,cs),
(290,349,l)
);
},
{
closed = 1;
nodes = (
(303,376,o),
(282,396,o),
(257,396,cs),
(196,396,l),
(200,317,l),
(152,46,ls),
(147,15,o),
(172,0,o),
(195,0,cs),
(215,0,o),
(239,13,o),
(243,37,cs),
(298,348,ls)
);
}
);
vertWidth = 0;
width = 406;
}
);
},
{
color = 6;
glyphname = .notdef;
layers = (
{
layerId = m01;
shapes = (
{
closed = 1;
nodes = (
(468,0,o),
(479,12,o),
(482,27,cs),
(596,673,ls),
(599,689,o),
(592,700,o),
(578,700,cs),
(182,700,ls),
(165,700,o),
(154,689,o),
(151,673,cs),
(37,27,ls),
(34,12,o),
(42,0,o),
(61,0,cs),
(457,0,ls)
);
},
{
closed = 1;
nodes = (
(199,655,l),
(542,655,l),
(435,45,l),
(91,45,l)
);
}
);
vertWidth = 0;
width = 625;
},
{
layerId = m002;
shapes = (
{
closed = 1;
nodes = (
(513,0,o),
(536,26,o),
(540,49,cs),
(647,659,ls),
(652,687,o),
(637,700,o),
(600,700,c),
(220,700,l),
(192,700,o),
(171,687,o),
(166,659,cs),
(59,49,ls),
(54,21,o),
(68,0,o),
(107,0,cs),
(488,0,ls)
);
},
{
closed = 1;
nodes = (
(259,605,l),
(536,605,l),
(446,95,l),
(169,95,l)
);
}
);
vertWidth = 0;
width = 697;
}
);
},
{
color = 6;
glyphname = period;
kernLeft = period_left;
kernRight = period_right;
layers = (
{
layerId = m01;
shapes = (
{
closed = 1;
nodes = (
(79,-12,o),
(97,6,o),
(97,27,cs),
(97,47,o),
(79,64,o),
(59,64,cs),
(38,64,o),
(22,47,o),
(22,27,cs),
(22,7,o),
(38,-12,o),
(59,-12,cs)
);
}
);
vertWidth = 0;
width = 202;
},
{
layerId = m002;
shapes = (
{
closed = 1;
nodes = (
(132,-11,o),
(162,19,o),
(162,54,cs),
(162,88,o),
(132,117,o),
(98,117,cs),
(62,117,o),
(34,88,o),
(34,54,cs),
(34,20,o),
(62,-11,o),
(98,-11,cs)
);
}
);
vertWidth = 0;
width = 328;
}
);
unicode = 46;
},
{
color = 6;
glyphname = comma;
kernLeft = period_left;
kernRight = period_right;
layers = (
{
layerId = m01;
shapes = (
{
closed = 1;
nodes = (
(51,-103,o),
(66,-96,o),
(69,-78,cs),
(87,21,ls),
(90,39,o),
(79,49,o),
(66,50,cs),
(53,52,o),
(40,45,o),
(37,28,cs),
(20,-71,ls),
(17,-89,o),
(27,-99,o),
(39,-101,cs)
);
}
);
vertWidth = 0;
width = 202;
},
{
layerId = m002;
shapes = (
{
closed = 1;
nodes = (
(103,-105,o),
(133,-90,o),
(138,-60,cs),
(156,39,ls),
(161,71,o),
(140,91,o),
(113,94,cs),
(88,97,o),
(61,83,o),
(56,54,cs),
(39,-45,ls),
(34,-76,o),
(54,-97,o),
(79,-101,cs)
);
}
);
vertWidth = 0;
width = 319;
}
);
unicode = 44;
},
{
color = 6;
glyphname = colon;
kernLeft = colon_left;
kernRight = colon_right;
layers = (
{
layerId = m01;
shapes = (
{
closed = 1;
nodes = (
(92,-11,o),
(110,7,o),
(110,28,cs),
(110,48,o),
(92,65,o),
(71,65,cs),
(50,65,o),
(34,48,o),
(34,28,cs),
(34,8,o),
(50,-11,o),
(71,-11,cs)
);
},
{
closed = 1;
nodes = (
(130,235,o),
(148,254,o),
(148,274,cs),
(148,295,o),
(130,311,o),
(110,311,cs),
(89,311,o),
(73,294,o),
(73,274,cs),
(73,255,o),
(89,235,o),
(110,235,cs)
);
}
);
vertWidth = 0;
width = 245;
},
{
layerId = m002;
shapes = (
{
closed = 1;
nodes = (
(132,-10,o),
(162,20,o),
(162,55,cs),
(162,90,o),
(132,118,o),
(97,118,cs),
(61,118,o),
(34,89,o),
(34,55,cs),
(34,21,o),
(61,-10,o),
(97,-10,cs)
);
},
{
closed = 1;
nodes = (
(171,225,o),
(201,256,o),
(201,291,cs),
(201,325,o),
(171,353,o),
(137,353,cs),
(101,353,o),
(73,323,o),
(73,290,cs),
(73,257,o),
(101,225,o),
(136,225,cs)
);
}
);
vertWidth = 0;
width = 328;
},
{
associatedMasterId = m01;
layerId = "91A00DA1-DFBA-4F9F-8518-7DECF8D34E4E";
name = background;
shapes = (
{
closed = 1;
nodes = (
(92,-30,o),
(110,-12,o),
(110,9,cs),
(110,29,o),
(92,46,o),
(71,46,cs),
(50,46,o),
(34,29,o),
(34,9,cs),
(34,-11,o),
(50,-30,o),
(71,-30,cs)
);
},
{
closed = 1;
nodes = (
(127,175,o),
(145,194,o),
(145,214,cs),
(145,235,o),
(127,251,o),
(107,251,cs),
(86,251,o),
(70,234,o),
(70,214,cs),
(70,195,o),
(86,175,o),
(107,175,cs)
);
}
);
vertWidth = 0;
width = 500;
}
);
unicode = 58;
},
{
color = 6;
glyphname = semicolon;
kernLeft = colon_left;
kernRight = colon_right;
layers = (
{
layerId = m01;
shapes = (
{
closed = 1;
nodes = (
(66,-103,o),
(79,-95,o),
(82,-78,cs),
(100,21,ls),
(103,39,o),
(92,49,o),
(79,50,cs),
(66,52,o),
(53,45,o),
(50,28,cs),
(33,-71,ls),
(30,-90,o),
(42,-101,o),
(55,-102,cs)
);
},
{
closed = 1;
nodes = (
(130,235,o),
(148,254,o),
(148,274,cs),
(148,295,o),
(130,311,o),
(110,311,cs),
(89,311,o),
(73,294,o),
(73,274,cs),
(73,255,o),
(89,235,o),
(110,235,cs)
);
}
);
vertWidth = 0;
width = 245;
},
{
layerId = m002;
shapes = (
{
closed = 1;
nodes = (
(110,-104,o),
(136,-89,o),
(141,-60,cs),
(159,39,ls),
(165,71,o),
(143,91,o),
(116,94,cs),
(91,97,o),
(64,83,o),
(59,54,cs),
(42,-45,ls),
(36,-78,o),
(60,-100,o),
(87,-102,cs)
);
},
{
closed = 1;
nodes = (
(177,217,o),
(207,249,o),
(207,282,cs),
(207,318,o),
(177,345,o),
(143,345,cs),
(107,345,o),
(81,316,o),
(81,282,cs),
(81,251,o),
(107,217,o),
(143,217,cs)
);
}
);
vertWidth = 0;
width = 327;
}
);
unicode = 59;
},
{
color = 6;
glyphname = ellipsis;
layers = (
{
layerId = m01;
shapes = (
{
closed = 1;
nodes = (
(311,-30,o),
(329,-12,o),
(329,9,cs),
(329,29,o),
(311,46,o),
(291,46,cs),
(270,46,o),
(254,29,o),
(254,9,cs),
(254,-11,o),
(270,-30,o),
(291,-30,cs)
);
},
{
closed = 1;
nodes = (
(91,-30,o),
(109,-12,o),
(109,9,cs),
(109,29,o),
(91,46,o),
(71,46,cs),
(50,46,o),
(34,29,o),
(34,9,cs),
(34,-11,o),
(50,-30,o),
(71,-30,cs)
);
},
{
closed = 1;
nodes = (
(201,-30,o),
(219,-12,o),
(219,9,cs),
(219,29,o),
(201,46,o),
(181,46,cs),
(160,46,o),
(144,29,o),
(144,9,cs),
(144,-11,o),
(160,-30,o),
(181,-30,cs)
);
}
);
vertWidth = 0;
width = 474;
},
{
layerId = m002;
shapes = (
{
closed = 1;
nodes = (
(424,-31,o),
(451,-6,o),
(451,25,cs),
(451,56,o),
(424,79,o),
(395,79,cs),
(367,79,o),
(341,57,o),
(341,25,cs),
(341,-6,o),
(367,-31,o),
(396,-31,cs)
);
},
{
closed = 1;
nodes = (
(134,-31,o),
(161,-6,o),
(161,25,cs),
(161,56,o),
(134,79,o),
(105,79,cs),
(77,79,o),
(51,57,o),
(51,25,cs),
(51,-6,o),
(77,-31,o),
(106,-31,cs)
);
},
{
closed = 1;
nodes = (
(279,-30,o),
(306,-6,o),
(306,25,cs),
(306,56,o),
(279,79,o),
(251,79,cs),
(222,79,o),
(196,56,o),
(196,25,cs),
(196,-6,o),
(222,-30,o),
(251,-30,cs)
);
}
);
vertWidth = 0;
width = 617;
}
);
unicode = 8230;
},
{
color = 6;
glyphname = exclam;
layers = (
{
layerId = m01;
shapes = (
{
closed = 1;
nodes = (
(202,643,o),
(192,650,o),
(180,650,cs),
(167,650,o),
(152,643,o),
(149,629,cs),
(73,202,ls),
(70,185,o),
(82,176,o),
(94,175,cs),
(106,174,o),
(121,183,o),
(124,202,cs),
(200,629,ls)
);
},
{
closed = 1;
nodes = (
(94,-6,o),
(113,14,o),
(113,35,cs),
(113,56,o),
(94,74,o),
(71,74,cs),
(49,74,o),
(33,55,o),
(33,35,cs),
(33,15,o),
(49,-6,o),
(71,-6,cs)
);
}
);
vertWidth = 0;
width = 246;
},
{
layerId = m002;
shapes = (
{
closed = 1;
nodes = (
(249,632,o),
(222,650,o),
(198,650,cs),
(176,650,o),
(147,635,o),
(143,611,cs),
(74,226,ls),
(69,197,o),
(93,177,o),
(118,175,cs),
(141,173,o),
(170,191,o),
(175,220,cs),
(244,605,ls)
);
},
{
closed = 1;
nodes = (
(130,-10,o),
(163,20,o),
(163,54,cs),
(163,88,o),
(130,118,o),
(95,118,cs),
(59,118,o),
(35,86,o),
(35,54,cs),
(35,23,o),
(59,-10,o),
(95,-10,cs)
);
}
);
vertWidth = 0;
width = 292;
}
);
unicode = 33;
},
{
color = 6;
glyphname = exclamdown;
layers = (
{
layerId = m01;
shapes = (
{
closed = 1;
nodes = (
(167,441,o),
(155,450,o),
(143,451,cs),
(131,452,o),
(116,443,o),
(113,424,cs),
(39,21,ls),
(36,6,o),
(48,-1,o),
(61,0,cs),
(73,0,o),
(87,7,o),
(90,21,cs),
(164,424,ls)
);
},
{
closed = 1;
nodes = (
(193,585,o),
(206,601,o),
(206,617,cs),
(206,633,o),
(193,650,o),
(175,650,cs),
(157,650,o),
(141,634,o),
(141,617,cs),
(141,600,o),
(157,585,o),
(175,585,cs)
);
}
);
vertWidth = 0;
width = 246;
},
{
layerId = m002;
shapes = (
{
closed = 1;
nodes = (
(212,433,o),
(186,450,o),
(163,452,cs),
(139,454,o),
(111,437,o),
(106,407,cs),
(42,47,ls),
(37,17,o),
(62,-2,o),
(90,0,cs),
(112,0,o),
(138,14,o),
(142,39,cs),
(206,399,ls)
);
},
{
closed = 1;
nodes = (
(222,540,o),
(244,566,o),
(244,594,cs),
(244,623,o),
(222,650,o),
(191,650,cs),
(161,650,o),
(134,623,o),
(134,594,cs),
(134,566,o),
(161,540,o),
(191,540,cs)
);
}
);
vertWidth = 0;
width = 273;
}
);
unicode = 161;
},
{
color = 6;
glyphname = question;
layers = (
{
layerId = m01;
shapes = (
{
closed = 1;
nodes = (
(140,454,o),
(160,463,o),
(164,485,cs),
(174,542,o),
(212,604,o),
(297,604,cs),
(363,604,o),
(416,568,o),
(404,495,cs),
(392,418,o),
(348,322,o),
(210,322,c),
(206,272,l),
(362,272,o),
(431,364,o),
(453,487,cs),
(470,582,o),
(402,654,o),
(311,654,cs),
(196,654,o),
(132,590,o),
(115,495,cs),
(111,473,o),
(116,460,o),
(127,457,cs)
);
},
{
closed = 1;
nodes = (
(192,-6,o),
(212,12,o),
(212,32,cs),
(212,55,o),
(193,74,o),
(170,74,cs),
(149,74,o),
(132,54,o),
(132,32,cs),
(132,13,o),
(149,-6,o),
(170,-6,cs)
);
},
{
closed = 1;
nodes = (
(200,173,o),
(214,180,o),
(218,202,c),
(236,303,l),
(210,322,l),
(199,322,o),
(187,314,o),
(185,303,cs),
(167,202,ls),
(165,188,o),
(175,178,o),
(187,175,cs)
);
}
);
vertWidth = 0;
width = 487;
},
{
layerId = m002;
shapes = (
{
closed = 1;
nodes = (
(149,427,o),
(184,443,o),
(189,476,cs),
(197,524,o),
(222,565,o),
(284,565,cs),
(335,565,o),
(365,545,o),
(357,504,cs),
(350,459,o),
(330,348,o),
(198,356,c),
(176,267,l),
(351,256,o),
(426,353,o),
(452,492,cs),
(467,577,o),
(393,654,o),
(296,654,cs),
(179,654,o),
(112,586,o),
(95,493,cs),
(88,458,o),
(103,439,o),
(124,434,cs)
);
},
{
closed = 1;
nodes = (
(186,-12,o),
(218,18,o),
(218,53,cs),
(218,87,o),
(188,116,o),
(153,116,cs),
(117,116,o),
(90,86,o),
(90,53,cs),
(90,20,o),
(117,-12,o),
(152,-12,cs)
);
},
{
closed = 1;
nodes = (
(200,171,o),
(224,193,o),
(230,225,c),
(246,313,l),
(198,356,l),
(177,356,o),
(155,342,o),
(151,321,cs),
(135,233,ls),
(130,207,o),
(145,182,o),
(174,176,cs)
);
}
);
vertWidth = 0;
width = 484;
}
);
unicode = 63;
},
{
color = 6;
glyphname = questiondown;
layers = (
{
layerId = m01;
shapes = (
{
closed = 1;
nodes = (
(148,382,o),
(80,290,o),
(55,151,cs),
(41,72,o),
(109,0,o),
(200,0,cs),
(315,0,o),
(379,64,o),
(396,159,cs),
(400,181,o),
(395,194,o),
(384,197,cs),
(371,200,o),
(351,191,o),
(347,169,cs),
(337,112,o),
(299,50,o),
(214,50,cs),
(148,50,o),
(94,86,o),
(105,147,cs),
(113,193,o),
(137,332,o),
(299,332,c),
(304,382,l)
);
},
{
closed = 1;
nodes = (
(346,466,o),
(336,476,o),
(324,479,cs),
(311,481,o),
(297,474,o),
(293,452,cs),
(275,351,ls),
(274,344,o),
(281,332,o),
(301,332,cs),
(312,332,o),
(324,340,o),
(326,351,cs),
(344,452,ls)
);
},
{
closed = 1;
nodes = (
(366,585,o),
(380,601,o),
(380,619,cs),
(380,634,o),
(366,650,o),
(349,650,cs),
(331,650,o),
(315,635,o),
(315,619,cs),
(315,600,o),
(330,585,o),
(349,585,cs)
);
}
);
vertWidth = 0;
width = 488;
},
{
layerId = m002;
shapes = (
{
closed = 1;
nodes = (
(192,398,o),
(111,296,o),
(86,160,cs),
(72,76,o),
(143,1,o),
(238,1,cs),
(353,1,o),
(425,67,o),
(442,159,cs),
(447,194,o),
(434,212,o),
(413,217,cs),
(389,224,o),
(354,208,o),
(348,175,cs),
(341,128,o),
(316,89,o),
(256,89,cs),
(206,89,o),
(178,108,o),
(185,148,cs),
(192,192,o),
(216,300,o),
(337,289,c),
(366,386,l)
);
},
{
closed = 1;
nodes = (
(409,454,o),
(390,473,o),
(366,479,cs),
(340,484,o),
(310,470,o),
(304,435,cs),
(286,333,ls),
(282,310,o),
(306,289,o),
(337,289,cs),
(359,289,o),
(382,304,o),
(386,326,cs),
(404,428,ls)
);
},
{
closed = 1;
nodes = (
(414,540,o),
(436,568,o),
(436,597,cs),
(436,625,o),
(412,650,o),
(382,650,cs),
(351,650,o),
(326,625,o),
(326,598,cs),
(326,568,o),
(351,540,o),
(383,540,cs)
);
}
);
vertWidth = 0;
width = 576;
}
);
unicode = 191;
},
{
color = 6;
glyphname = periodcentered;
layers = (
{
layerId = m01;
shapes = (
{
closed = 1;
nodes = (
(121,138,o),
(139,157,o),
(139,177,cs),
(139,198,o),
(121,214,o),
(101,214,cs),
(80,214,o),
(64,197,o),
(64,177,cs),
(64,158,o),
(80,138,o),
(101,138,cs)
);
}
);
vertWidth = 0;
width = 254;
},
{
layerId = m002;
shapes = (
{
closed = 1;
nodes = (
(161,121,o),
(188,149,o),
(188,178,cs),
(188,209,o),
(161,231,o),
(132,231,cs),
(101,231,o),
(78,207,o),
(78,178,cs),
(78,151,o),
(101,121,o),
(132,121,cs)
);
}
);
vertWidth = 0;
width = 327;
}
);
unicode = 183;
},
{
color = 6;
glyphname = bullet;
layers = (
{
layerId = m01;
shapes = (
{
closed = 1;
nodes = (
(209,278,o),
(246,314,o),
(246,355,cs),
(246,396,o),
(210,430,o),
(170,430,cs),
(128,430,o),
(96,395,o),
(96,355,cs),
(96,316,o),
(127,278,o),
(169,278,cs)
);
}
);
vertWidth = 0;
width = 330;
},
{
layerId = m002;
shapes = (
{
closed = 1;
nodes = (
(261,254,o),
(310,301,o),
(310,355,cs),
(310,409,o),
(262,454,o),
(208,454,cs),
(153,454,o),
(110,408,o),
(110,355,cs),
(110,304,o),
(151,254,o),
(207,254,cs)
);
}
);
vertWidth = 0;
width = 419;
}
);
unicode = 8226;
},
{
color = 6;
glyphname = asterisk;
layers = (
{
layerId = m01;
shapes = (
{
closed = 1;
nodes = (
(309,584,o),
(312,598,o),
(306,607,cs),
(301,614,o),
(289,617,o),
(274,608,cs),
(138,524,ls),
(121,513,o),
(117,499,o),
(123,491,cs),
(128,483,o),
(140,481,o),
(156,490,cs),
(292,574,ls)
);
},
{
closed = 1;
nodes = (
(269,482,o),
(282,484,o),
(289,492,cs),
(294,499,o),
(294,511,o),
(281,521,cs),
(173,606,ls),
(161,616,o),
(149,614,o),
(143,606,cs),
(136,599,o),
(136,586,o),
(149,576,cs),
(256,492,ls)
);
},
{
closed = 1;
nodes = (
(250,641,o),
(242,650,o),
(233,650,cs),
(223,650,o),
(211,641,o),
(208,623,cs),
(182,475,ls),
(179,458,o),
(186,450,o),
(195,448,cs),
(205,447,o),
(218,456,o),
(221,475,cs),
(247,623,ls)
);
}
);
vertWidth = 0;
width = 352;
},
{
layerId = m002;
shapes = (
{
closed = 1;
nodes = (
(367,570,o),
(377,594,o),
(362,617,cs),
(351,633,o),
(323,639,o),
(298,625,cs),
(165,543,l),
(143,527,o),
(131,504,o),
(144,483,cs),
(154,464,o),
(185,458,o),
(212,474,cs),
(341,554,ls)
);
},
{
closed = 1;
nodes = (
(302,460,o),
(331,464,o),
(345,481,cs),
(358,499,o),
(356,521,o),
(334,538,cs),
(229,621,ls),
(207,638,o),
(178,634,o),
(165,617,cs),
(150,599,o),
(152,576,o),
(176,558,cs),
(277,477,l)
);
},
{
closed = 1;
nodes = (
(315,648,o),
(295,668,o),
(271,668,cs),
(250,668,o),
(227,651,o),
(222,624,cs),
(197,482,ls),
(192,453,o),
(208,436,o),
(229,431,cs),
(251,426,o),
(279,443,o),
(285,474,cs),
(310,616,ls)
);
}
);
vertWidth = 0;
width = 431;
}
);
unicode = 42;
},
{
color = 6;
glyphname = numbersign;
layers = (
{
layerId = m01;
shapes = (
{
closed = 1;
nodes = (
(215,-1,o),
(230,8,o),
(234,28,cs),
(325,543,ls),
(328,559,o),
(317,568,o),
(304,568,cs),
(291,568,o),
(277,560,o),
(274,543,cs),
(183,28,ls),
(180,10,o),
(190,0,o),
(202,0,cs)
);
},
{
closed = 1;
nodes = (
(63,159,o),
(72,147,o),
(89,147,cs),
(634,147,ls),
(651,147,o),
(660,159,o),
(660,170,cs),
(660,181,o),
(652,192,o),
(634,192,cs),
(89,192,ls),
(71,192,o),
(63,181,o),
(63,170,cs)
);
},
{
closed = 1;
nodes = (
(473,0,o),
(487,9,o),
(490,28,cs),
(581,543,ls),
(584,559,o),
(573,567,o),
(561,568,cs),
(548,568,o),
(533,560,o),
(530,543,cs),
(439,28,ls),
(436,9,o),
(447,-1,o),
(460,0,cs)
);
},
{
closed = 1;
nodes = (
(104,395,o),
(113,384,o),
(131,384,cs),
(675,384,ls),
(693,384,o),
(702,395,o),
(702,406,cs),
(702,417,o),
(693,429,o),
(675,429,cs),
(131,429,ls),
(113,429,o),
(104,417,o),
(104,406,cs)
);
}
);
vertWidth = 0;
width = 779;
},
{
layerId = m002;
shapes = (
{
closed = 1;
nodes = (
(229,0,o),
(258,10,o),
(263,39,cs),
(348,523,ls),
(353,552,o),
(329,568,o),
(302,568,cs),
(277,568,o),
(256,557,o),
(251,530,cs),
(165,47,ls),
(159,16,o),
(179,0,o),
(205,0,cs)
);
},
{
closed = 1;
nodes = (
(52,153,o),
(73,133,o),
(102,133,cs),
(614,133,ls),
(643,133,o),
(663,153,o),
(663,177,cs),
(663,200,o),
(644,218,o),
(614,218,cs),
(102,218,ls),
(72,218,o),
(52,200,o),
(52,177,cs)
);
},
{
closed = 1;
nodes = (
(477,0,o),
(499,11,o),
(504,39,cs),
(589,523,ls),
(595,555,o),
(571,568,o),
(548,568,cs),
(524,568,o),
(496,558,o),
(491,531,cs),
(406,47,ls),
(400,13,o),
(426,0,o),
(453,0,cs)
);
},
{
closed = 1;
nodes = (
(91,375,o),
(111,357,o),
(141,357,cs),
(652,357,ls),
(682,357,o),
(703,375,o),
(703,399,cs),
(703,422,o),
(682,442,o),
(652,442,cs),
(141,442,ls),
(111,442,o),
(91,422,o),
(91,399,cs)
);
}
);
vertWidth = 0;
width = 756;
}
);
unicode = 35;
},
{
color = 6;
glyphname = slash;
layers = (
{
layerId = m01;
shapes = (
{
closed = 1;
nodes = (
(354,637,o),
(339,650,o),
(324,650,cs),
(313,650,o),
(302,644,o),
(295,627,cs),
(38,31,ls),
(30,12,o),
(44,0,o),
(60,0,cs),
(71,0,o),
(82,6,o),
(88,20,cs),
(345,616,ls)
);
}
);
vertWidth = 0;
width = 385;
},
{
layerId = m002;
shapes = (
{
closed = 1;
nodes = (
(447,624,o),
(416,650,o),
(386,650,cs),
(366,650,o),
(344,639,o),
(333,614,cs),
(68,12,ls),
(53,-23,o),
(82,-48,o),
(114,-48,cs),
(133,-48,o),
(155,-38,o),
(165,-16,cs),
(431,588,ls)
);
}
);
vertWidth = 0;
width = 464;
}
);
unicode = 47;
},
{
color = 6;
glyphname = backslash;
layers = (
{
layerId = m01;
shapes = (
{
closed = 1;
nodes = (
(99,644,o),
(88,650,o),
(77,650,cs),
(62,650,o),
(47,637,o),
(56,616,cs),
(313,20,ls),
(319,5,o),
(331,0,o),
(342,0,cs),
(357,0,o),
(371,13,o),
(363,31,cs),
(106,627,ls)
);
}
);
vertWidth = 0;
width = 385;
},
{
layerId = m002;
shapes = (
{
closed = 1;
nodes = (
(160,648,o),
(129,655,o),
(104,646,cs),
(82,638,o),
(68,608,o),
(83,574,cs),
(340,-16,ls),
(354,-47,o),
(387,-54,o),
(412,-44,cs),
(433,-35,o),
(445,-7,o),
(433,21,cs),
(175,614,ls)
);
}
);
vertWidth = 0;
width = 464;
}
);
unicode = 92;
},
{
color = 6;
glyphname = exclam.c2sc;
layers = (
{
layerId = m01;
shapes = (
{
closed = 1;
nodes = (
(79,-24,o),
(95,-8,o),
(95,9,cs),
(95,26,o),
(79,41,o),
(61,41,cs),
(43,41,o),
(30,25,o),
(30,9,cs),
(30,-7,o),
(43,-24,o),
(61,-24,cs)
);
},
{
closed = 1;
nodes = (
(154,382,o),
(145,396,o),
(131,396,cs),
(113,396,o),
(104,386,o),
(101,372,cs),
(71,205,ls),
(68,188,o),
(80,175,o),
(93,175,cs),
(108,175,o),
(118,185,o),
(121,199,cs),
(151,367,ls)
);
}
);
vertWidth = 0;
width = 246;
},
{
layerId = m002;
shapes = (
{
closed = 1;
nodes = (
(131,-47,o),
(158,-20,o),
(158,9,cs),
(158,38,o),
(131,64,o),
(101,64,cs),
(70,64,o),
(48,36,o),
(48,9,cs),
(48,-18,o),
(70,-47,o),
(101,-47,cs)
);
},
{
closed = 1;
nodes = (
(218,370,o),
(198,396,o),
(168,396,cs),
(142,396,o),
(118,381,o),
(113,353,cs),
(83,186,ls),
(77,154,o),
(102,129,o),
(130,129,cs),
(156,129,o),
(176,146,o),
(182,172,cs),
(212,340,ls)
);
}
);
vertWidth = 0;
width = 327;
}
);
},
{
color = 6;
glyphname = exclamdown.c2sc;
layers = (
{
layerId = m01;
shapes = (
{
closed = 1;
nodes = (
(113,420,o),
(97,404,o),
(97,387,cs),
(97,370,o),
(113,355,o),
(131,355,cs),
(149,355,o),
(162,371,o),
(162,387,cs),
(162,403,o),
(149,420,o),
(131,420,cs)
);
},
{
closed = 1;
nodes = (
(38,14,o),
(47,0,o),
(61,0,cs),
(79,0,o),
(88,10,o),
(91,24,cs),
(121,191,ls),
(124,208,o),
(112,221,o),
(99,221,cs),
(84,221,o),
(74,211,o),
(71,197,cs),
(41,29,ls)
);
}
);
vertWidth = 0;
width = 246;
},
{
layerId = m002;
shapes = (
{
closed = 1;
nodes = (
(142,443,o),
(115,416,o),
(115,387,cs),
(115,358,o),
(142,332,o),
(172,332,cs),
(203,332,o),
(225,360,o),
(225,387,cs),
(225,414,o),
(203,443,o),
(172,443,cs)
);
},
{
closed = 1;
nodes = (
(55,26,o),
(75,0,o),
(105,0,cs),
(131,0,o),
(155,15,o),
(160,43,cs),
(190,210,ls),
(196,242,o),
(171,267,o),
(143,267,cs),
(117,267,o),
(97,250,o),
(91,224,cs),
(61,56,ls)
);
}
);
vertWidth = 0;
width = 327;
}
);
},
{
color = 6;
glyphname = question.c2sc;
layers = (
{
layerId = m01;
shapes = (
{
closed = 1;
nodes = (
(245,139,o),
(315,167,o),
(323,275,cs),
(329,345,o),
(294,395,o),
(209,395,cs),
(147,395,o),
(104,366,o),
(79,308,cs),
(72,292,o),
(80,277,o),
(88,274,cs),
(96,271,o),
(118,271,o),
(124,286,cs),
(139,324,o),
(162,345,o),
(206,345,cs),
(276,345,o),
(276,308,o),
(273,273,cs),
(264,184,o),
(200,189,o),
(151,189,cs),
(148,189,o),
(147,187,o),
(145,185,c),
(159,139,l)
);
},
{
closed = 1;
nodes = (
(137,-24,o),
(153,-9,o),
(153,7,cs),
(153,26,o),
(138,41,o),
(119,41,cs),
(102,41,o),
(88,25,o),
(88,7,cs),
(88,-8,o),
(102,-24,o),
(119,-24,cs)
);
},
{
closed = 1;
nodes = (
(148,87,o),
(162,94,o),
(166,116,cs),
(176,170,ls),
(177,177,o),
(170,189,o),
(150,189,cs),
(139,189,o),
(127,181,o),
(125,170,cs),
(115,116,ls),
(112,102,o),
(123,92,o),
(135,89,cs)
);
}
);
vertWidth = 0;
width = 400;
},
{
layerId = m002;
shapes = (
{
closed = 1;
nodes = (
(295,120,o),
(393,157,o),
(403,273,cs),
(410,356,o),
(364,418,o),
(264,418,cs),
(192,418,o),
(139,383,o),
(111,317,cs),
(100,291,o),
(110,262,o),
(134,252,cs),
(154,245,o),
(191,251,o),
(202,278,cs),
(216,311,o),
(230,322,o),
(261,322,cs),
(293,322,o),
(308,307,o),
(303,275,cs),
(294,218,o),
(250,222,o),
(203,222,cs),
(205,222,o),
(198,217,o),
(170,198,c),
(192,127,l)
);
},
{
closed = 1;
nodes = (
(201,-70,o),
(229,-44,o),
(229,-17,cs),
(229,15,o),
(203,41,o),
(171,41,cs),
(142,41,o),
(119,13,o),
(119,-17,cs),
(119,-42,o),
(142,-70,o),
(171,-70,cs)
);
},
{
closed = 1;
nodes = (
(210,72,o),
(238,86,o),
(245,122,cs),
(255,176,ls),
(260,201,o),
(236,222,o),
(204,222,cs),
(182,222,o),
(158,206,o),
(154,184,cs),
(144,131,ls),
(139,104,o),
(158,83,o),
(183,77,cs)
);
}
);
vertWidth = 0;
width = 522;
}
);
},
